<svg xmlns="http://www.w3.org/2000/svg" width="79.051" height="55.287" viewBox="0 0 79.051 55.287"><g transform="translate(0 0)"><path d="M76.493,76.96H2.558A2.561,2.561,0,0,0,0,79.518v50.171a2.561,2.561,0,0,0,2.558,2.558H76.493a2.561,2.561,0,0,0,2.558-2.558V79.518A2.561,2.561,0,0,0,76.493,76.96Zm.083,42.249H72.532a1.238,1.238,0,1,0,0,2.476h4.044v2.806H56.689a1.238,1.238,0,1,0,0,2.476H76.576v2.723a.082.082,0,0,1-.082.082H2.558a.082.082,0,0,1-.082-.082v-2.723H51.408a1.238,1.238,0,0,0,0-2.476H2.475v-2.806H67.252a1.238,1.238,0,0,0,0-2.476H2.475V116.4c.028,0,.055,0,.082,0H76.493c.028,0,.055,0,.082,0v2.81Zm0-5.364a.082.082,0,0,1-.082.082H2.558a.082.082,0,0,1-.082-.082V79.518a.082.082,0,0,1,.082-.082H76.493a.082.082,0,0,1,.082.082v34.327Z" transform="translate(0 -76.96)"/></g><g transform="translate(51.49 5.281)"><path d="M354.534,116.445a4.048,4.048,0,0,1-4.043-4.043,1.238,1.238,0,0,0-1.238-1.238H334.729a1.238,1.238,0,0,0,0,2.476h13.4A6.537,6.537,0,0,0,353.3,118.8v13.6a6.537,6.537,0,0,0-5.163,5.163h-13.4a1.238,1.238,0,0,0,0,2.476h14.524a1.238,1.238,0,0,0,1.238-1.238,4.048,4.048,0,0,1,4.043-4.043,1.238,1.238,0,0,0,1.238-1.238V117.683A1.238,1.238,0,0,0,354.534,116.445Z" transform="translate(-333.491 -111.164)"/></g><g transform="translate(5.281 5.281)"><path d="M55.246,137.571h-13.4a6.538,6.538,0,0,0-5.163-5.163V118.8a6.538,6.538,0,0,0,5.163-5.163h13.4a1.238,1.238,0,1,0,0-2.476H40.723a1.238,1.238,0,0,0-1.238,1.238,4.048,4.048,0,0,1-4.043,4.043,1.238,1.238,0,0,0-1.238,1.238v15.843a1.238,1.238,0,0,0,1.238,1.238,4.048,4.048,0,0,1,4.043,4.043,1.238,1.238,0,0,0,1.238,1.238H55.246a1.238,1.238,0,1,0,0-2.476Z" transform="translate(-34.204 -111.165)"/></g><g transform="translate(25.085 5.281)"><path d="M176.912,111.165a14.44,14.44,0,1,0,14.44,14.44A14.457,14.457,0,0,0,176.912,111.165Zm0,26.406a11.965,11.965,0,1,1,11.965-11.965A11.979,11.979,0,0,1,176.912,137.571Z" transform="translate(-162.472 -111.165)"/></g><g transform="translate(33.007 10.562)"><path d="M221.535,153.578v-4.319c1.765.271,2.806,1.078,2.806,1.557a1.238,1.238,0,0,0,2.476,0c0-2.083-2.2-3.711-5.281-4.057v-.152a1.238,1.238,0,1,0-2.476,0v.152c-3.083.346-5.281,1.974-5.281,4.057,0,2.9,2.9,4,5.281,4.664V159.8c-1.765-.271-2.806-1.078-2.806-1.557a1.238,1.238,0,1,0-2.476,0c0,2.083,2.2,3.711,5.281,4.057v.152a1.238,1.238,0,0,0,2.476,0V162.3c3.083-.346,5.281-1.974,5.281-4.057C226.816,155.339,223.915,154.239,221.535,153.578Zm-2.476-.686c-2.065-.649-2.806-1.229-2.806-2.076,0-.479,1.041-1.286,2.806-1.557Zm2.476,6.907v-3.633c2.065.649,2.806,1.229,2.806,2.076C224.34,158.721,223.3,159.528,221.535,159.8Z" transform="translate(-213.778 -145.37)"/></g></svg>