<svg xmlns="http://www.w3.org/2000/svg" width="64.528" height="79.052" viewBox="0 0 64.528 79.052"><g transform="translate(7.922 11.882)"><path d="M107.5,80.921a1.238,1.238,0,0,0-1.238,1.238,2.723,2.723,0,1,1-2.723-2.723,1.238,1.238,0,0,0,0-2.476,5.2,5.2,0,1,0,5.2,5.2A1.238,1.238,0,0,0,107.5,80.921Z" transform="translate(-98.338 -76.96)"/></g><g transform="translate(7.922 26.405)"><path d="M107.5,174.983a1.238,1.238,0,0,0-1.238,1.238,2.723,2.723,0,1,1-2.723-2.723,1.238,1.238,0,1,0,0-2.476,5.2,5.2,0,1,0,5.2,5.2A1.238,1.238,0,0,0,107.5,174.983Z" transform="translate(-98.338 -171.022)"/></g><g transform="translate(21.124 33.007)"><path d="M194.329,213.779h-9.242a1.238,1.238,0,0,0,0,2.476h9.242a1.238,1.238,0,0,0,0-2.476Z" transform="translate(-183.849 -213.779)"/></g><g transform="translate(21.124 27.726)"><path d="M194.329,179.574h-9.242a1.238,1.238,0,0,0,0,2.476h9.242a1.238,1.238,0,1,0,0-2.476Z" transform="translate(-183.849 -179.574)"/></g><g transform="translate(21.124 47.53)"><path d="M191.688,307.841h-6.6a1.238,1.238,0,0,0,0,2.476h6.6a1.238,1.238,0,1,0,0-2.476Z" transform="translate(-183.849 -307.841)"/></g><g transform="translate(21.124 42.249)"><path d="M194.329,273.637h-9.242a1.238,1.238,0,0,0,0,2.476h9.242a1.238,1.238,0,1,0,0-2.476Z" transform="translate(-183.849 -273.637)"/></g><g transform="translate(21.124 18.484)"><path d="M206.211,119.716H185.087a1.238,1.238,0,0,0,0,2.476h21.124a1.238,1.238,0,0,0,0-2.476Z" transform="translate(-183.849 -119.716)"/></g><g transform="translate(21.124 13.203)"><path d="M200.93,85.511H185.087a1.238,1.238,0,0,0,0,2.476H200.93a1.238,1.238,0,1,0,0-2.476Z" transform="translate(-183.849 -85.511)"/></g><g transform="translate(7.922 40.928)"><path d="M107.5,269.046a1.238,1.238,0,0,0-1.238,1.238,2.723,2.723,0,1,1-2.723-2.723,1.238,1.238,0,0,0,0-2.476,5.2,5.2,0,1,0,5.2,5.2A1.238,1.238,0,0,0,107.5,269.046Z" transform="translate(-98.338 -265.085)"/></g><g transform="translate(0)"><path d="M95.8,0H50.909a3.883,3.883,0,0,0-3.878,3.878V59.33a3.883,3.883,0,0,0,3.878,3.878H73.354a1.238,1.238,0,0,0,0-2.476H50.909a1.4,1.4,0,0,1-1.4-1.4V3.878a1.4,1.4,0,0,1,1.4-1.4H95.8a1.4,1.4,0,0,1,1.4,1.4V44.807a1.238,1.238,0,1,0,2.476,0V3.878A3.883,3.883,0,0,0,95.8,0Z" transform="translate(-47.031)"/></g><g transform="translate(29.709 27.726)"><path d="M270.2,202.045a4.567,4.567,0,0,0-3.21.9,4.508,4.508,0,0,0-3.391-2.223,4.568,4.568,0,0,0-3.21.9,4.508,4.508,0,0,0-3.391-2.223,4.573,4.573,0,0,0-2.527.474V184.116a4.539,4.539,0,0,0-5-4.515,4.683,4.683,0,0,0-4.075,4.7v15.8l-3.639,3.639a7.79,7.79,0,0,0-2.088,7.339l2.762,11.74a10.439,10.439,0,0,0,10.2,8.079h11.164a10.492,10.492,0,0,0,10.48-10.48V206.749A4.683,4.683,0,0,0,270.2,202.045Zm1.6,18.378a8.013,8.013,0,0,1-8,8H252.627a7.974,7.974,0,0,1-7.792-6.171l-2.762-11.74A5.33,5.33,0,0,1,243.5,205.5l1.888-1.888v4.273a1.238,1.238,0,0,0,2.476,0V184.3a2.188,2.188,0,0,1,1.846-2.24,2.064,2.064,0,0,1,2.28,2.052V205.9a1.238,1.238,0,0,0,2.476,0v-1.98a2.064,2.064,0,0,1,2.28-2.052,2.189,2.189,0,0,1,1.846,2.24v3.112a1.238,1.238,0,1,0,2.476,0v-1.98a2.064,2.064,0,0,1,2.28-2.052,2.189,2.189,0,0,1,1.846,2.24v3.112a1.238,1.238,0,1,0,2.476,0v-1.98a2.064,2.064,0,0,1,2.28-2.052,2.189,2.189,0,0,1,1.846,2.24v13.675Z" transform="translate(-239.452 -179.578)"/></g></svg>