<svg width="80" height="80" viewBox="0 0 80 80" fill="none" xmlns="http://www.w3.org/2000/svg">
<path d="M15.5005 57.008C24.0765 50.608 30.8605 44.816 35.8525 39.632C40.8445 34.384 43.3405 29.488 43.3405 24.944C43.3405 23.408 42.9885 22.224 42.2845 21.392C41.6445 20.56 40.7805 20.144 39.6925 20.144C38.4125 20.144 37.3885 20.816 36.6205 22.16C35.9165 23.44 35.6605 25.424 35.8525 28.112H15.2125C15.4045 22.16 16.6845 17.264 19.0525 13.424C21.4845 9.584 24.6205 6.768 28.4605 4.976C32.3005 3.184 36.5245 2.288 41.1325 2.288C49.3245 2.288 55.3085 4.272 59.0845 8.23999C62.9245 12.144 64.8445 17.168 64.8445 23.312C64.8445 29.776 62.7645 35.856 58.6045 41.552C54.5085 47.184 49.3565 51.952 43.1485 55.856H65.1325V73.04H15.5005V57.008Z" fill="#D9ECFD"/>
</svg>
