<svg width="80" height="80" viewBox="0 0 80 80" fill="none" xmlns="http://www.w3.org/2000/svg">
<path d="M14.7888 25.808C14.9808 18.192 17.1888 12.368 21.4128 8.336C25.7008 4.304 31.7488 2.288 39.5568 2.288C44.6128 2.288 48.9328 3.152 52.5168 4.88C56.1008 6.608 58.7888 8.944 60.5808 11.888C62.4368 14.832 63.3647 18.16 63.3647 21.872C63.3647 26.352 62.3088 29.872 60.1968 32.432C58.0848 34.928 55.7168 36.624 53.0928 37.52V37.904C60.7728 40.784 64.6128 46.128 64.6128 53.936C64.6128 58.032 63.6528 61.648 61.7328 64.784C59.8128 67.92 57.0608 70.352 53.4768 72.08C49.9568 73.808 45.7648 74.672 40.9008 74.672C32.5808 74.672 26.0528 72.688 21.3168 68.72C16.5808 64.752 14.1488 58.544 14.0208 50.096H34.7568C34.6288 52.4 34.9488 54.16 35.7168 55.376C36.5488 56.528 37.9568 57.104 39.9408 57.104C41.0928 57.104 42.0528 56.688 42.8208 55.856C43.5888 54.96 43.9728 53.808 43.9728 52.4C43.9728 50.608 43.3648 49.264 42.1488 48.368C40.9968 47.408 39.0128 46.928 36.1968 46.928H32.6448V29.744H36.1008C40.4528 30 42.6288 28.272 42.6288 24.56C42.6288 22.96 42.2768 21.776 41.5728 21.008C40.9328 20.24 40.1008 19.856 39.0768 19.856C36.7088 19.856 35.5248 21.84 35.5248 25.808H14.7888Z" fill="#D9ECFD"/>
</svg>
