<svg width="257" height="80" viewBox="0 0 257 80" fill="none" xmlns="http://www.w3.org/2000/svg">
<path d="M16.9999 52.5712C13.9688 52.5712 11.0619 53.7752 8.91864 55.9185C6.77537 58.0618 5.57129 60.9687 5.57129 63.9997C5.57129 67.0308 6.77537 69.9377 8.91864 72.081C11.0619 74.2242 13.9688 75.4283 16.9999 75.4283C20.0309 75.4283 22.9378 74.2242 25.0811 72.081C27.2243 69.9377 28.4284 67.0308 28.4284 63.9997C28.4284 60.9687 27.2243 58.0618 25.0811 55.9185C22.9378 53.7752 20.0309 52.5712 16.9999 52.5712Z" fill="#03A9F4"/>
<path d="M22.4286 62.8571C20.6857 62.8571 19.0143 63.5495 17.7819 64.7819C16.5495 66.0143 15.8571 67.6857 15.8571 69.4286C15.8571 71.1714 16.5495 72.8429 17.7819 74.0753C19.0143 75.3077 20.6857 76 22.4286 76C24.1714 76 25.8429 75.3077 27.0753 74.0753C28.3077 72.8429 29 71.1714 29 69.4286C29 67.6857 28.3077 66.0143 27.0753 64.7819C25.8429 63.5495 24.1714 62.8571 22.4286 62.8571ZM11.5714 52C10.7085 52 9.85393 52.17 9.05665 52.5002C8.25937 52.8305 7.53494 53.3145 6.92473 53.9247C6.31451 54.5349 5.83047 55.2594 5.50022 56.0567C5.16998 56.8539 5 57.7085 5 58.5714C5 59.4344 5.16998 60.2889 5.50022 61.0862C5.83047 61.8835 6.31451 62.6079 6.92473 63.2181C7.53494 63.8283 8.25937 64.3124 9.05665 64.6426C9.85393 64.9729 10.7085 65.1429 11.5714 65.1429C12.4344 65.1429 13.2889 64.9729 14.0862 64.6426C14.8835 64.3124 15.6079 63.8283 16.2181 63.2181C16.8283 62.6079 17.3124 61.8835 17.6426 61.0862C17.9729 60.2889 18.1429 59.4344 18.1429 58.5714C18.1429 57.7085 17.9729 56.8539 17.6426 56.0567C17.3124 55.2594 16.8283 54.5349 16.2181 53.9247C15.6079 53.3145 14.8835 52.8305 14.0862 52.5002C13.2889 52.17 12.4344 52 11.5714 52Z" fill="#03A9F4"/>
<path d="M17.3443 70.857C13.5717 70.857 11.8574 68.9707 11.8574 67.5421C11.8574 66.7987 12.3706 66.2856 13.114 66.2856C14.7146 66.2856 14.3151 68.6296 17.3437 68.6296C18.886 68.6296 19.7431 67.7724 19.7431 66.9153C19.7431 66.3998 19.5134 65.8284 18.4866 65.5427L15.114 64.6856C12.4289 63.9998 11.9157 62.513 11.9157 61.0844C11.9157 58.1713 14.6009 57.1427 17.1146 57.1427C19.458 57.1427 22.1431 58.3993 22.1431 60.1136C22.1431 60.857 21.5717 61.3147 20.8283 61.3147C19.458 61.3147 19.6854 59.3707 16.942 59.3707C15.5717 59.3707 14.7723 60.0004 14.7723 60.9153C14.7723 61.8284 15.8569 62.1141 16.8283 62.3438L19.3437 62.9153C22.0849 63.5421 22.7146 65.1427 22.7146 66.685C22.6563 69.0844 20.942 70.857 17.3443 70.857Z" fill="white"/>
<path fill-rule="evenodd" clip-rule="evenodd" d="M85 55.7786C85 54.7352 84.577 53.7904 83.8932 53.1066C83.2094 52.4228 82.2647 51.9999 81.2213 51.9999H64.7788C63.7353 51.9999 62.7906 52.4228 62.1068 53.1067C61.423 53.7905 61 54.7352 61 55.7786V72.2211C61 73.2646 61.4229 74.2093 62.1067 74.8931C62.7906 75.5769 63.7353 75.9999 64.7787 75.9999H81.2212C82.2647 75.9999 83.2094 75.5769 83.8932 74.8931C84.5771 74.2093 85 73.2646 85 72.2211V55.7786L85 55.7786Z" fill="#2DC100"/>
<path fill-rule="evenodd" clip-rule="evenodd" d="M75.7105 59.3156C74.9323 58.2908 73.8244 57.5641 72.5919 57.1999C71.3661 56.8377 70.0162 56.8341 68.7451 57.2529C67.7827 57.5699 66.9498 58.039 66.2903 58.6882C65.6698 59.2989 65.205 60.0664 64.9326 61.0134C64.6281 62.0725 64.6782 63.1172 65.045 64.0704C65.4131 65.0271 66.099 65.8884 67.0641 66.5755C67.17 66.651 67.2286 66.7137 67.2489 66.7768C67.2693 66.8399 67.2578 66.9251 67.2227 67.0427C67.1328 67.3441 67.0694 67.6559 67.0012 67.9918C66.9707 68.1421 66.9392 68.2973 66.9066 68.4461L66.7998 68.9332L67.2187 68.6691C67.4137 68.5462 67.5702 68.4459 67.7217 68.3489C68.1307 68.0869 68.5078 67.8454 68.8734 67.6374C68.9257 67.6076 68.9922 67.5875 69.0642 67.5752C69.1528 67.5601 69.2473 67.5581 69.3344 67.5655C69.7363 67.5996 70.1206 67.6503 70.5234 67.7034C70.7333 67.7311 70.9467 67.7593 71.0337 67.7701L71.2878 67.8019L71.2662 67.5447C71.2 66.7569 71.2873 66.0469 71.523 65.4061C71.7587 64.7654 72.1432 64.191 72.6715 63.6741C73.1959 63.161 73.7815 62.7908 74.422 62.5389C75.0661 62.2856 75.7667 62.1515 76.5174 62.112L76.7334 62.1006L76.7133 61.8841C76.6675 61.3894 76.5578 60.933 76.389 60.5073C76.2201 60.0815 75.9924 59.6868 75.7105 59.3156V59.3156ZM73.111 60.3406C73.3588 60.3386 73.5831 60.4352 73.7465 60.5944C73.9108 60.7543 74.0139 60.9772 74.0184 61.2267V61.2275L74.0185 61.2346V61.2355C74.0209 61.4909 73.925 61.7185 73.7643 61.8836C73.604 62.0484 73.38 62.1496 73.1262 62.1527C72.8738 62.1557 72.6454 62.0593 72.4787 61.8995C72.311 61.7387 72.2059 61.5139 72.2014 61.2613C72.197 61.0158 72.2992 60.7868 72.4644 60.6188C72.6278 60.4527 72.8549 60.3453 73.1021 60.3407H73.1029L73.1102 60.3406H73.111V60.3406ZM69.3495 60.629C69.5106 60.7981 69.6092 61.0264 69.6022 61.2687V61.2695L69.602 61.2753V61.2761C69.5926 61.5252 69.482 61.7474 69.3107 61.9055C69.1407 62.0622 68.911 62.1559 68.6616 62.1495H68.6608L68.6576 62.1494C68.4059 62.1419 68.1839 62.0367 68.0262 61.87C67.8683 61.7032 67.7753 61.4754 67.7817 61.2229L67.7818 61.2198V61.219C67.7892 60.9669 67.897 60.7433 68.0662 60.5848C68.2347 60.4269 68.4639 60.3335 68.715 60.341H68.7158L68.7221 60.3412H68.7229C68.9667 60.3507 69.1898 60.4615 69.3495 60.629V60.629Z" fill="#FFFFFE"/>
<path fill-rule="evenodd" clip-rule="evenodd" d="M80.5282 64.4687C79.7825 63.5074 78.6303 62.9107 77.3979 62.7272C76.1625 62.5432 74.8501 62.7749 73.7877 63.4708C73.4357 63.7015 73.1306 63.9596 72.8731 64.2379C72.2474 64.9143 71.8907 65.7172 71.8151 66.5397C71.7395 67.3606 71.9443 68.2036 72.4412 68.9621C72.6391 69.2641 72.8816 69.5516 73.1693 69.8176C73.7075 70.3153 74.3025 70.6669 74.9448 70.8764C75.5976 71.0893 76.3005 71.1556 77.0431 71.0797C77.2302 71.0606 77.4304 71.0031 77.6292 70.946C77.9421 70.8562 78.2519 70.7673 78.5752 70.8011C78.9491 70.8401 79.2858 71.0174 79.632 71.2C79.5112 70.9268 79.4938 70.6891 79.5639 70.4605C79.6417 70.2067 79.826 69.9839 80.0945 69.7457C80.8787 69.05 81.3103 68.1545 81.3873 67.2256C81.4652 66.285 81.1796 65.3085 80.5282 64.4687L80.5282 64.4687ZM77.4412 65.0124C77.5835 64.8752 77.7765 64.7909 77.9858 64.7924H77.9866L78.0089 64.7928H78.0097C78.2228 64.8006 78.4126 64.8931 78.5486 65.0377C78.6836 65.1812 78.7655 65.3762 78.764 65.5901L78.7636 65.615C78.7558 65.829 78.6665 66.0177 78.5253 66.1529C78.3838 66.2882 78.1914 66.3696 77.9775 66.3689C77.9643 66.3689 77.9542 66.3687 77.9472 66.3684C77.736 66.36 77.5483 66.269 77.4135 66.1268C77.2791 65.985 77.1974 65.7925 77.198 65.5808C77.198 65.5676 77.1981 65.5571 77.1985 65.5498C77.2069 65.3393 77.2992 65.1492 77.4412 65.0124V65.0124ZM74.3898 64.7915C74.6034 64.7997 74.7949 64.892 74.9324 65.0354C75.07 65.1789 75.1543 65.3737 75.1536 65.5867V65.5875C75.1536 65.5996 75.1534 65.6088 75.1532 65.615C75.1448 65.8274 75.0526 66.0172 74.909 66.1537C74.7659 66.2897 74.5714 66.373 74.3581 66.3728C74.1455 66.3726 73.9508 66.2876 73.8077 66.1503C73.6645 66.0128 73.5723 65.822 73.5648 65.6103C73.5645 65.6023 73.5644 65.5921 73.5644 65.58C73.5654 65.3696 73.6524 65.1758 73.7912 65.0335C73.9302 64.8912 74.122 64.7988 74.3323 64.7914C74.3404 64.7911 74.3507 64.791 74.3631 64.7911L74.3898 64.7915V64.7915Z" fill="#FFFFFE"/>
<path d="M177.333 76H192.667C195.06 76 197 74.06 197 71.6667V56.3333C197 53.94 195.06 52 192.667 52H177.333C174.94 52 173 53.94 173 56.3333V71.6667C173 74.06 174.94 76 177.333 76Z" fill="#00C300"/>
<path d="M193.742 62.9441C193.742 59.0341 189.822 55.8528 185.004 55.8528C180.186 55.8528 176.265 59.0341 176.265 62.9441C176.265 66.4494 179.374 69.3854 183.573 69.9408C183.858 70.0021 184.245 70.1288 184.343 70.3714C184.431 70.5921 184.4 70.9381 184.371 71.1614C184.371 71.1614 184.269 71.7781 184.246 71.9094C184.208 72.1301 184.071 72.7734 185.003 72.3808C185.936 71.9881 190.035 69.4174 191.868 67.3068H191.868C193.135 65.9188 193.742 64.5088 193.742 62.9441ZM181.583 65.2708H179.847C179.594 65.2708 179.389 65.0654 179.389 64.8121V61.3394C179.389 61.0868 179.594 60.8814 179.847 60.8814C180.1 60.8814 180.305 61.0868 180.305 61.3394V64.3534H181.583C181.836 64.3534 182.041 64.5588 182.041 64.8114C182.041 65.0648 181.836 65.2708 181.583 65.2708ZM183.378 64.8121C183.378 65.0648 183.173 65.2708 182.92 65.2708C182.668 65.2708 182.462 65.0654 182.462 64.8121V61.3394C182.462 61.0868 182.668 60.8814 182.92 60.8814C183.173 60.8814 183.378 61.0868 183.378 61.3394V64.8121ZM187.558 64.8121C187.558 65.0101 187.433 65.1848 187.245 65.2468C187.198 65.2628 187.148 65.2708 187.1 65.2708C186.956 65.2708 186.82 65.2021 186.734 65.0874L184.954 62.6641V64.8121C184.954 65.0648 184.749 65.2708 184.496 65.2708C184.243 65.2708 184.037 65.0654 184.037 64.8121V61.3394C184.037 61.1421 184.163 60.9674 184.35 60.9048C184.398 60.8888 184.446 60.8814 184.496 60.8814C184.638 60.8814 184.776 60.9501 184.862 61.0648L186.642 63.4881V61.3394C186.642 61.0868 186.848 60.8814 187.1 60.8814C187.353 60.8814 187.558 61.0868 187.558 61.3394V64.8121ZM190.368 62.6174C190.62 62.6174 190.826 62.8228 190.826 63.0761C190.826 63.3288 190.621 63.5341 190.368 63.5341H189.09V64.3541H190.368C190.62 64.3541 190.826 64.5594 190.826 64.8121C190.826 65.0648 190.62 65.2708 190.368 65.2708H188.632C188.38 65.2708 188.174 65.0654 188.174 64.8121V63.0768C188.174 63.0761 188.174 63.0761 188.174 63.0761V63.0754V61.3414C188.174 61.3408 188.174 61.3408 188.174 61.3401C188.174 61.0874 188.379 60.8821 188.632 60.8821H190.368C190.62 60.8821 190.826 61.0874 190.826 61.3401C190.826 61.5928 190.621 61.7981 190.368 61.7981H189.09V62.6181H190.368V62.6174Z" fill="white"/>
<path d="M140.547 53.3002C140.137 52.953 139.494 52.9033 138.83 53.1702H138.828C138.129 53.4508 119.035 61.6407 118.258 61.9754C118.117 62.0245 116.882 62.4852 117.009 63.5114C117.123 64.4366 118.115 64.8198 118.236 64.864L123.09 66.5261C123.413 67.5982 124.6 71.5534 124.862 72.3984C125.026 72.9251 125.293 73.6173 125.761 73.7597C126.171 73.918 126.58 73.7734 126.844 73.5659L129.812 70.8132L134.602 74.5496L134.717 74.6178C135.042 74.7619 135.354 74.834 135.651 74.834C135.881 74.834 136.101 74.7908 136.312 74.7046C137.03 74.4098 137.317 73.7259 137.347 73.6484L140.926 55.0474C141.144 54.054 140.84 53.5485 140.547 53.3002ZM127.372 67.191L125.734 71.5578L124.096 66.0993L136.651 56.8198L127.372 67.191Z" fill="#2C9AFF"/>
<g clip-path="url(#clip0)">
<path fill-rule="evenodd" clip-rule="evenodd" d="M123.299 14.3906C123.299 14.3792 123.287 12.5878 124.798 12.5998C126.319 12.6118 126.298 14.3906 126.298 14.3906V22.1986C126.298 22.1986 126.103 23.4009 124.791 23.3985C123.451 23.3961 123.288 22.1986 123.288 22.1986L123.299 14.3906ZM112.5 10.5565C112.5 10.5565 112.547 8.99546 114 9.00026C115.389 9.00505 115.495 10.5883 115.495 10.5883L115.5 16.1994L118.499 13.1997C118.499 13.1997 119.74 12.1979 120.599 13.1997C121.514 14.2664 120.299 15.5994 120.299 15.5994L118.499 17.3992C118.499 17.3992 121.499 21.5951 121.499 21.8987C121.499 22.7326 120.822 23.3997 119.999 23.3997C119.447 23.3997 118.757 23.2515 118.499 22.7986L116.1 19.199L115.5 19.7989V22.1986C115.5 22.1986 115.298 23.3973 114 23.3991C112.595 23.4015 112.5 22.1986 112.5 22.1986V10.5565ZM128.698 10.5565C128.698 10.5565 128.745 8.99546 130.198 9.00026C131.587 9.00505 131.693 10.5883 131.693 10.5883L131.698 16.1994L134.697 13.1997C134.697 13.1997 135.938 12.1979 136.797 13.1997C137.712 14.2664 136.497 15.5994 136.497 15.5994L134.697 17.3992C134.697 17.3992 137.697 21.5951 137.697 21.8987C137.697 22.7326 137.02 23.3997 136.197 23.3997C135.645 23.3997 134.955 23.2515 134.697 22.7986L132.298 19.199L131.698 19.7989V22.1986C131.698 22.1986 131.496 23.3973 130.198 23.3991C128.793 23.4015 128.698 22.1986 128.698 22.1986V10.5565Z" fill="#5DCD11"/>
</g>
<path d="M240 26C233.4 26 228 20.6 228 14C228 7.4 233.4 2 240 2C246.6 2 252 7.4 252 14C252 20.6 248.133 27.6667 240 30V26Z" fill="#4CAF50"/>
<path d="M238.667 10.6667V15.3333C238.667 17.5333 236.867 19.3333 234.667 19.3333V17.3333C235.8 17.3333 236.667 16.4667 236.667 15.3333H234C233.667 15.3333 233.333 15 233.333 14.6667V10.6667C233.333 10.3333 233.667 10 234 10H238C238.333 10 238.667 10.3333 238.667 10.6667ZM246 10H242C241.667 10 241.333 10.3333 241.333 10.6667V14.6667C241.333 15 241.667 15.3333 242 15.3333H244.667C244.667 16.4667 243.8 17.3333 242.667 17.3333V19.3333C244.867 19.3333 246.667 17.5333 246.667 15.3333V10.6667C246.667 10.3333 246.333 10 246 10Z" fill="white"/>
<path d="M72 3.33325C65.3684 3.33325 60 8.44904 60 14.7017C60 17.9859 61.4526 20.8911 63.7895 22.9754V28.5964L68.7158 25.628C69.7263 25.8806 70.8632 26.0701 72 26.0701C78.6316 26.0701 84 20.9543 84 14.7017C84 8.44904 78.6316 3.33325 72 3.33325Z" fill="#448AFF"/>
<path d="M64.4209 18.4908L70.7367 11.5435L73.8946 14.7013L79.5788 11.5435L73.263 18.4908L70.1051 15.3329L64.4209 18.4908Z" fill="white"/>
<path d="M241.001 52.0668C239.417 52.0668 234.599 52.0668 231.935 54.4992C230.348 56.0796 229.601 58.3632 229.601 61.6668V63.4668C229.601 66.7704 230.348 69.054 231.953 70.6524C232.752 71.3814 233.842 71.964 235.174 72.3666L235.601 72.495V75.6918C235.601 76.0668 235.709 76.0668 235.745 76.0668C235.819 76.0668 235.937 76.0434 236.162 75.8442C236.216 75.7908 236.612 75.3624 238.538 73.2048L238.732 72.987L239.023 73.0056C239.668 73.0458 240.333 73.0668 241.001 73.0668C242.584 73.0668 247.403 73.0668 250.067 70.6338C251.652 69.0534 252.401 66.7698 252.401 63.4668V61.6668C252.401 58.3632 251.653 56.0796 250.048 54.4812C247.403 52.0668 242.584 52.0668 241.001 52.0668Z" fill="white"/>
<path d="M246.671 66.3793C246.005 65.8177 245.697 65.6479 244.777 65.0953C244.393 64.8655 243.809 64.6669 243.502 64.6669C243.293 64.6669 243.042 64.8271 242.888 64.9807C242.495 65.3743 242.366 65.8669 241.676 65.8669C241.001 65.8669 239.822 65.1799 238.976 64.2919C238.088 63.4459 237.401 62.2669 237.401 61.5919C237.401 60.9019 237.884 60.7639 238.278 60.3697C238.431 60.2167 238.601 59.9659 238.601 59.7565C238.601 59.4499 238.402 58.8745 238.172 58.4911C237.62 57.5701 237.45 57.2623 236.888 56.5963C236.698 56.3707 236.481 56.2675 236.255 56.2669C235.871 56.2663 235.368 56.4565 235.027 56.7103C234.515 57.0925 233.979 57.6127 233.835 58.2607C233.816 58.3489 233.805 58.4377 233.801 58.5265C233.774 59.2015 234.039 59.8867 234.325 60.4669C234.999 61.8343 235.89 63.1579 236.861 64.3399C237.171 64.7179 237.509 65.0695 237.858 65.4091C238.198 65.7583 238.55 66.0961 238.928 66.4069C240.11 67.3771 241.433 68.2687 242.801 68.9425C243.376 69.2257 244.052 69.4861 244.721 69.4669C244.816 69.4639 244.912 69.4531 245.007 69.4321C245.655 69.2893 246.175 68.7529 246.557 68.2405C246.811 67.8997 247.001 67.3969 247.001 67.0129C247 66.7861 246.897 66.5695 246.671 66.3793ZM247.001 63.4669C246.67 63.4669 246.401 63.1981 246.401 62.8669V62.2669C246.401 59.2897 243.978 56.8669 241.001 56.8669C240.67 56.8669 240.401 56.5981 240.401 56.2669C240.401 55.9357 240.67 55.6669 241.001 55.6669C244.64 55.6669 247.601 58.6279 247.601 62.2669V62.8669C247.601 63.1981 247.332 63.4669 247.001 63.4669ZM243.316 62.2669C243.049 62.2669 242.806 62.0881 242.735 61.8181C242.571 61.1875 242.079 60.6949 241.451 60.5329C241.13 60.4495 240.937 60.1225 241.02 59.8015C241.103 59.4811 241.429 59.2885 241.751 59.3707C242.8 59.6425 243.622 60.4639 243.896 61.5151C243.98 61.8361 243.788 62.1631 243.467 62.2471C243.416 62.2603 243.365 62.2669 243.316 62.2669Z" fill="#7E57C2"/>
<path d="M245.2 62.868C244.869 62.868 244.6 62.5992 244.6 62.268C244.6 60.3552 243.104 58.7772 241.193 58.6764C240.862 58.659 240.608 58.3764 240.626 58.0458C240.643 57.7146 240.931 57.4602 241.256 57.4782C243.805 57.6126 245.8 59.7168 245.8 62.268C245.8 62.5992 245.531 62.868 245.2 62.868Z" fill="#7E57C2"/>
<path d="M241 51.4668C238.3 51.4668 234.093 51.7152 231.53 54.0564C229.718 55.8606 229 58.3914 229 61.6668C229 61.938 228.999 62.2404 229.001 62.5668C228.999 62.8926 229 63.195 229 63.4662C229 66.7416 229.718 69.2724 231.53 71.0766C232.506 71.9676 233.722 72.5538 235 72.9402V75.6918C235 76.6494 235.63 76.6668 235.745 76.6668H235.75C236.047 76.6656 236.303 76.5204 236.56 76.2924C236.656 76.2066 237.772 74.9634 238.985 73.6038C239.707 73.65 240.394 73.6668 241 73.6668C243.7 73.6668 247.906 73.4178 250.47 71.0766C252.282 69.273 253 66.7416 253 63.4662C253 63.195 253.001 62.8926 252.999 62.5662C253.001 62.2398 253 61.938 253 61.6662C253 58.3908 252.282 55.86 250.47 54.0558C247.907 51.7152 243.7 51.4668 241 51.4668ZM251.2 63.2574V63.4662C251.2 66.4098 250.573 68.4156 249.229 69.7734C246.9 71.8668 242.463 71.8668 241 71.8668C240.555 71.8668 239.832 71.8662 238.979 71.8068C238.743 72.0732 236.2 74.9166 236.2 74.9166V71.3988C234.938 71.0958 233.691 70.599 232.772 69.774C231.427 68.4156 230.8 66.4098 230.8 63.4662V63.2574C230.8 63.0468 230.8 62.8194 230.801 62.5536C230.8 62.3136 230.8 62.0868 230.8 61.8756V61.6668C230.8 58.7232 231.427 56.7174 232.772 55.3596C235.101 53.2662 239.538 53.2662 241 53.2662C242.463 53.2662 246.9 53.2662 249.228 55.3596C250.573 56.7174 251.2 58.7232 251.2 61.6668V61.8756C251.2 62.0862 251.2 62.3136 251.199 62.5794C251.2 62.82 251.2 63.0468 251.2 63.2574Z" fill="#7E57C2"/>
<path d="M4.59863 27.4034L6.20966 21.5469C5.21577 19.8332 4.69312 17.8883 4.69372 15.8965C4.69671 9.66484 9.78932 4.59497 16.048 4.59497C19.0853 4.59616 21.9354 5.77341 24.0793 7.90938C26.2225 10.0459 27.403 12.8852 27.4018 15.9054C27.3994 22.1371 22.3056 27.2075 16.048 27.2075C16.0475 27.2075 16.048 27.2075 16.048 27.2075H16.0433C14.1434 27.2069 12.2758 26.7323 10.6176 25.8314L4.59863 27.4034Z" fill="white"/>
<path d="M4.59855 27.7018C4.51961 27.7018 4.44306 27.6708 4.38625 27.6137C4.3115 27.538 4.2822 27.4279 4.31031 27.326L5.88844 21.588C4.91011 19.8576 4.39403 17.8925 4.39522 15.8977C4.39762 9.50111 9.62478 4.29785 16.048 4.29785C19.1636 4.29904 22.0908 5.50726 24.2909 7.6998C26.4909 9.89293 27.7019 12.8072 27.7007 15.906C27.6983 22.302 22.4705 27.5059 16.048 27.5059C14.1409 27.5053 12.2542 27.0366 10.5798 26.15L4.67449 27.6917C4.64938 27.6988 4.62426 27.7018 4.59855 27.7018Z" fill="white"/>
<path d="M16.0477 4.59547C19.0849 4.59667 21.935 5.77392 24.0789 7.90988C26.2221 10.0464 27.4026 12.8857 27.4014 15.9059C27.399 22.1376 22.3052 27.208 16.0477 27.208H16.0429C14.143 27.2074 12.2754 26.7328 10.6172 25.8319L4.59825 27.4039L6.20928 21.5474C5.21539 19.8337 4.69274 17.8888 4.69333 15.897C4.69632 9.66534 9.78894 4.59547 16.0477 4.59547ZM16.0477 4C9.46004 4 4.09832 9.33664 4.09533 15.897C4.09473 17.9019 4.60304 19.8777 5.56702 21.6266L4.02118 27.2473C3.96496 27.4528 4.02237 27.6719 4.17307 27.8231C4.28669 27.9375 4.44038 28 4.59825 28C4.64908 28 4.69991 27.9934 4.75015 27.9803L10.543 26.4678C12.2342 27.342 14.1299 27.8035 16.0429 27.8041C22.6353 27.8041 27.997 22.4669 28 15.9065C28.0012 12.7273 26.7591 9.73799 24.5029 7.48948C22.2454 5.24037 19.2428 4.00119 16.0477 4Z" fill="#CFD8DC"/>
<path d="M22.723 9.25955C20.941 7.48384 18.5723 6.50548 16.0511 6.50488C10.846 6.50488 6.61274 10.7185 6.61035 15.8979C6.60975 17.673 7.10849 19.4011 8.05334 20.8975L8.27819 21.253L7.32437 24.7193L10.8963 23.7867L11.2413 23.9904C12.6897 24.8467 14.3509 25.2992 16.0445 25.2998H16.0481C21.2495 25.2998 25.4828 21.0857 25.4846 15.9056C25.4852 13.3957 24.5051 11.0353 22.723 9.25955Z" fill="#40C351"/>
<path fill-rule="evenodd" clip-rule="evenodd" d="M13.2094 11.1726C12.9971 10.7022 12.7734 10.6926 12.5707 10.6843C12.405 10.6772 12.2161 10.6777 12.0271 10.6777C11.8381 10.6777 11.5308 10.7486 11.2706 11.0315C11.0105 11.3143 10.2773 11.9973 10.2773 13.3872C10.2773 14.777 11.294 16.1204 11.4357 16.3085C11.5774 16.4967 13.3983 19.4401 16.2819 20.5727C18.6781 21.5136 19.1661 21.3266 19.6864 21.2796C20.2066 21.2325 21.365 20.5966 21.6012 19.9368C21.8374 19.277 21.8374 18.7119 21.7668 18.594C21.6957 18.4761 21.5067 18.4058 21.2232 18.2641C20.9398 18.1224 19.5446 17.4394 19.2845 17.3453C19.0244 17.2512 18.8354 17.2041 18.6458 17.487C18.4569 17.7692 17.9133 18.4058 17.7476 18.594C17.582 18.7827 17.4163 18.8066 17.1329 18.6648C16.8494 18.5231 15.9357 18.2254 14.8515 17.2631C14.0083 16.5146 13.439 15.5898 13.2734 15.307C13.1077 15.0247 13.2554 14.8717 13.3977 14.7305C13.5251 14.6037 13.6812 14.4006 13.8235 14.2357C13.9652 14.0708 14.0125 13.9529 14.107 13.7647C14.2015 13.5759 14.1542 13.411 14.0831 13.2698C14.0131 13.1281 13.4617 11.7311 13.2094 11.1726Z" fill="white"/>
<path d="M192.605 4H175.395C173.52 4 172 5.52018 172 7.39545V24.604C172 26.4798 173.52 28 175.395 28H192.604C194.48 28 196 26.4798 196 24.6045V7.39545C196 5.52018 194.48 4 192.605 4Z" fill="url(#paint0_linear)"/>
<path d="M187.818 20.2454C187.818 20.612 187.521 20.9092 187.154 20.9092H177.363C176.208 20.9092 175.272 19.9672 175.272 18.8054V11.7549C175.272 11.3883 175.57 11.0911 175.936 11.0911H185.727C186.882 11.0911 187.818 12.0331 187.818 13.1949V20.2454Z" fill="white"/>
<path d="M192.504 20.415L189.138 18.2512C188.995 18.1596 188.909 18.0014 188.909 17.8318V14.1685C188.909 13.9988 188.995 13.8407 189.138 13.749L192.504 11.5852C192.836 11.3719 193.273 11.6103 193.273 12.0047V19.995C193.273 20.3899 192.836 20.6283 192.504 20.415Z" fill="white"/>
<defs>
<linearGradient id="paint0_linear" x1="184" y1="31.0115" x2="184" y2="7.01146" gradientUnits="userSpaceOnUse">
<stop stop-color="#155CDE"/>
<stop offset="0.278" stop-color="#1F7FE5"/>
<stop offset="0.569" stop-color="#279CEB"/>
<stop offset="0.82" stop-color="#2CAFEF"/>
<stop offset="1" stop-color="#2EB5F0"/>
</linearGradient>
<clipPath id="clip0">
<rect width="32" height="32" fill="white" transform="translate(112)"/>
</clipPath>
</defs>
</svg>
