<svg width="100" height="100" viewBox="0 0 100 100" fill="none" xmlns="http://www.w3.org/2000/svg">
<path fill-rule="evenodd" clip-rule="evenodd" d="M27.0039 12C27.0039 10.8954 27.8993 10 29.0039 10H70.0039C71.1085 10 72.0039 10.8954 72.0039 12V39.6614H70.0039V12L29.0039 12V50.5H27.0039V12Z" fill="#0048B5"/>
<line x1="47.0039" y1="18.2773" x2="55.0039" y2="18.2773" stroke="#0048B5" stroke-width="2"/>
<line x1="43.0039" y1="18.2773" x2="45.0039" y2="18.2773" stroke="#0048B5" stroke-width="2"/>
<path d="M28 76C20.8118 76 15 70.1882 15 63C15 55.8118 20.8118 50 28 50C35.1882 50 41 55.8118 41 63C41 70.1882 35.1882 76 28 76ZM28 51.5294C21.6529 51.5294 16.5294 56.6529 16.5294 63C16.5294 69.3471 21.6529 74.4706 28 74.4706C34.3471 74.4706 39.4706 69.3471 39.4706 63C39.4706 56.6529 34.3471 51.5294 28 51.5294Z" fill="#0048B5"/>
<path d="M32.052 69.6526L27.2344 64.835V56.1173H28.7638V64.2232L33.1226 68.582L32.052 69.6526Z" fill="#0048B5"/>
</svg>
