<svg width="1106" height="32" viewBox="0 0 1106 32" fill="none" xmlns="http://www.w3.org/2000/svg">
<path d="M516.209 24.3494V21.7915H518.767V14.1178H516.209V11.5116H521.325V21.7432H523.931V24.3011H516.209V24.3494ZM532.859 30.72V14.0695H530.301V28.1621H509.838V7.69891H523.931V5.14101H507.28V30.72H532.859ZM532.859 11.5116V7.65065H536.72V5.14101H532.859V1.28003H530.301V5.14101H526.44V7.69891H530.301V11.5599H532.859V11.5116Z" fill="#B2BECB"/>
<path d="M588.975 16.123L589.03 11.7661L589.446 11.3507L589.861 10.9352L595.735 10.9065C601.472 10.8783 601.618 10.8829 601.974 11.1019C602.184 11.2306 602.429 11.5246 602.551 11.7927C602.748 12.2257 602.763 12.5551 602.765 16.3695L602.768 20.4797H600.781V16.6257C600.781 13.2691 600.759 12.7493 600.608 12.5982C600.465 12.4547 600.123 12.4248 598.622 12.4248H596.809V20.4798H594.933V12.4247H593.075C591.414 12.4247 591.197 12.4462 591.034 12.6264C590.871 12.8061 590.851 13.2489 590.851 16.654V20.4796H589.885L588.92 20.48L588.975 16.1231V16.123ZM605.553 20.2596C605.355 20.139 605.094 19.8785 604.974 19.6807C604.767 19.341 604.755 19.1191 604.755 15.6798C604.755 12.2407 604.767 12.0186 604.974 11.679C605.094 11.4812 605.355 11.2207 605.553 11.1002C605.895 10.8912 606.116 10.8809 610.243 10.8804L614.574 10.8801V12.425H606.973L606.801 12.6702C606.678 12.8468 606.63 13.1857 606.63 13.8824V14.8495L610.394 14.8784L614.157 14.9076V16.4523L610.394 16.4813L606.63 16.5104V17.4775C606.63 18.1742 606.678 18.5131 606.801 18.6897L606.973 18.9349H614.574V20.4798L610.243 20.4793C606.116 20.4789 605.895 20.4685 605.553 20.2596ZM616.671 15.6798V10.8801H618.657V20.4796H616.671V15.6798ZM620.903 20.3186C620.529 20.0567 620.378 19.5679 620.529 19.1097C620.66 18.7141 621.07 18.3244 624.995 14.8646C625.848 14.1129 626.811 13.2563 627.134 12.9612L627.722 12.4248H620.753V10.88H629.597L629.92 11.2027C630.314 11.5967 630.352 12.1456 630.014 12.5747C629.889 12.7341 628.536 13.9699 627.008 15.3206C625.48 16.6713 623.956 18.036 623.622 18.3535L623.015 18.9305L626.574 18.9327L630.132 18.9349V20.4796H625.633C621.866 20.4796 621.096 20.4533 620.903 20.3185V20.3186ZM632.659 20.2292C631.903 19.7242 631.898 19.691 631.898 15.0454V10.88H633.774V14.6868C633.774 18.3464 633.782 18.502 633.994 18.7142C634.204 18.9239 634.362 18.9349 637.177 18.9349C639.906 18.9349 640.153 18.919 640.322 18.7331C640.484 18.5536 640.504 18.1106 640.504 14.7057V10.8801H642.38V15.1428C642.38 19.224 642.371 19.4208 642.158 19.7654C641.724 20.4672 641.635 20.4798 637.111 20.4798C633.056 20.4798 633.032 20.4784 632.659 20.2293L632.659 20.2292Z" fill="#B2BECB"/>
<path d="M709 3.20001C701.923 3.20001 696.2 8.92288 696.2 15.9998C696.2 23.0767 701.923 28.8 709 28.8C716.077 28.8 721.8 23.0771 721.8 15.9998C721.8 8.96089 716.153 3.20001 709 3.20001Z" fill="#B2BECB"/>
<path d="M712.816 6.34735L709.02 18.9377L709 18.9567L708.962 18.9377L705.166 6.34735L700.264 22.4668H701.179C701.179 22.4668 701.79 19.6624 702.801 17.984C703.354 17.0683 704.194 16.3241 705.319 16.3431C706.12 16.3626 706.807 16.801 707.665 18.003C707.856 18.2699 708.085 18.7087 708.314 19.1286C708.676 19.8339 708.981 20.5591 708.981 20.5591C708.981 20.5591 709.783 18.7277 710.298 18.003C711.156 16.801 711.843 16.3626 712.644 16.3431C713.77 16.3241 714.628 17.0683 715.162 17.984C716.173 19.6624 716.784 22.4668 716.784 22.4668H717.699L712.816 6.34735Z" fill="white"/>
<path d="M446.823 22.2137C444.466 22.2335 442.236 22.2562 441.614 22.1883C440.355 22.0554 439.514 21.0527 439.417 19.5769C439.35 18.6091 439.35 17.8069 439.413 17.0434C439.527 15.6071 440.515 14.238 441.614 14.1735C442.008 14.1474 443.063 14.1504 444.971 14.1595L450.526 14.1735V11.3672C450.526 11.3672 446.101 11.361 444.771 11.3537C442.985 11.3438 442.086 11.3424 441.517 11.3672C440.266 11.425 439.216 11.968 438.4 12.9772C437.628 13.9294 437.167 15.4451 437.099 16.9796C437.06 17.8069 437.047 18.8887 437.099 19.5318C437.227 21.1812 437.665 22.4762 438.4 23.3832C439.186 24.3573 440.382 24.9739 441.519 24.9937C442.451 25.0079 450.526 24.9937 450.526 24.9937V22.188C450.526 22.188 448.073 22.2002 446.823 22.2137ZM421.745 11.5163V14.3199H427.226V24.9439H429.54V14.3199H435.022V11.5163H421.745ZM419.342 16.8186C419.325 15.3091 418.889 14.0132 418.04 12.9662C417.156 11.8707 415.806 11.4151 414.923 11.3578C414.155 11.3053 411.129 11.3218 410.418 11.3578C409.417 11.4096 408.688 11.773 408.322 12.1052C408.319 12.1082 408.315 12.1068 408.315 12.0999V7H406V24.9941H408.311C408.311 24.9941 408.266 17.6286 408.317 16.8268C408.409 15.4006 409.298 14.2809 410.429 14.16C411.338 14.0652 414.063 14.0912 414.918 14.1623C416.092 14.2607 416.959 15.3784 417.027 16.883C417.049 17.437 417.026 24.9939 417.026 24.9939H419.342C419.342 24.9937 419.348 17.4664 419.342 16.8186Z" fill="#B2BECB"/>
<path d="M1003.95 25.999C1003.85 25.9983 1003.74 25.9559 1003.67 25.8809C1003.59 25.806 1003.55 25.7046 1003.55 25.5987V6.40033C1003.55 6.29439 1003.59 6.193 1003.67 6.11809C1003.74 6.04318 1003.85 6.00077 1003.95 6.00003H1008.59C1008.64 5.99891 1008.7 6.00842 1008.75 6.02801C1008.8 6.0476 1008.84 6.07688 1008.88 6.11414C1008.92 6.1514 1008.95 6.19589 1008.97 6.24503C1008.99 6.29416 1009 6.34695 1009 6.40033V25.5987C1009 25.8237 1008.82 26.0037 1008.59 25.999H1003.95ZM996.173 25.999C996.173 25.999 995.802 25.8865 995.802 25.5987V13.8119C995.814 13.4444 995.751 13.0784 995.617 12.7359C995.483 12.3933 995.282 12.0814 995.025 11.8187C994.767 11.556 994.46 11.348 994.12 11.2072C993.78 11.0665 993.416 10.9958 993.048 10.9995H984.376C983.874 10.9995 984 11.3755 984 11.3755V25.5987C984 25.9353 983.625 25.999 983.625 25.999H979.411C979.357 26.0001 979.304 25.9906 979.255 25.971C979.205 25.9514 979.16 25.9221 979.121 25.8849C979.083 25.8476 979.053 25.8031 979.032 25.754C979.011 25.7049 979 25.6521 979 25.5987V6.40033C979 6.17533 979.186 5.99534 979.411 6.00003H995.489C996.899 6.01064 998.248 6.57711 999.243 7.57639C1000.24 8.57567 1000.8 9.92706 1000.8 11.337L1000.81 25.5996C1000.81 25.6522 1000.8 25.7044 1000.78 25.753C1000.76 25.8016 1000.73 25.8458 1000.69 25.883C1000.66 25.9202 1000.61 25.9496 1000.56 25.9697C1000.52 25.9898 1000.46 26.0001 1000.41 25.9999L996.173 25.999ZM987.551 25.999C987.451 25.999 987.355 25.9594 987.285 25.8889C987.214 25.8184 987.175 25.7228 987.175 25.6231V14.3735C987.175 14.1682 987.345 13.9976 987.551 13.9976H992.262C992.468 14.0069 992.623 14.1738 992.623 14.3735V25.6231C992.624 25.6722 992.615 25.7209 992.596 25.7664C992.578 25.812 992.55 25.8534 992.516 25.8883C992.481 25.9233 992.44 25.9511 992.395 25.97C992.35 25.989 992.301 25.9989 992.252 25.999H987.551Z" fill="#B2BECB"/>
<path d="M325.062 9.51901C325.062 9.51901 323.014 11.4763 322.902 13.5464V13.9314C322.992 15.604 324.254 16.5889 324.254 16.5889C326.277 18.5677 331.177 21.0568 332.326 21.6194C332.326 21.6194 332.395 21.6542 332.438 21.6111L332.46 21.5679V21.5206C329.319 14.6756 325.061 9.51984 325.061 9.51984L325.062 9.51901ZM331.674 23.3037C331.653 23.2132 331.566 23.2132 331.566 23.2132L323.403 23.5028C324.285 25.0842 325.78 26.2989 327.34 25.9355C328.403 25.6592 330.836 23.965 331.631 23.39C331.7 23.3335 331.674 23.2904 331.674 23.2904V23.3037ZM331.765 22.4391C328.178 20.0147 321.233 16.3118 321.233 16.3118C321.085 16.7758 321.006 17.2592 321 17.7463V17.8243C321 19.0083 321.441 19.838 321.441 19.838C322.327 21.709 324.029 22.2757 324.029 22.2757C324.808 22.6042 325.581 22.6167 325.581 22.6167C325.714 22.6383 330.447 22.6167 331.708 22.6167C331.765 22.6167 331.799 22.5603 331.799 22.5603V22.4955C331.799 22.4607 331.764 22.4391 331.764 22.4391H331.765ZM331.021 6.25579C330.237 6.45652 329.538 6.90298 329.027 7.52977C328.515 8.15656 328.218 8.93074 328.178 9.73888V10.1927C328.197 10.5852 328.257 10.9748 328.355 11.3551C329.085 14.5619 332.629 19.8164 333.39 20.9224C333.446 20.9789 333.502 20.9573 333.502 20.9573C333.523 20.9478 333.541 20.9319 333.552 20.9118C333.564 20.8916 333.569 20.8684 333.567 20.8453C334.742 9.12158 332.34 6.00107 332.34 6.00107C331.985 6.02265 331.021 6.25579 331.021 6.25579ZM340.204 8.76647C340.204 8.76647 339.664 6.77436 337.508 6.24252C337.508 6.24252 336.877 6.08653 336.211 6.00024C336.211 6.00024 333.8 9.10748 334.971 20.8569C334.984 20.9349 335.039 20.9432 335.039 20.9432C335.117 20.978 335.147 20.9133 335.147 20.9133C335.947 19.7725 339.464 14.5395 340.182 11.3543C340.182 11.3543 340.579 9.80277 340.203 8.76564L340.204 8.76647ZM336.976 23.2257C336.976 23.2257 336.898 23.2257 336.876 23.278C336.876 23.278 336.863 23.356 336.906 23.39C337.68 23.9558 340.061 25.6028 341.202 25.9355C341.202 25.9355 341.379 25.9919 341.677 26.0002H341.828C342.593 25.9786 343.932 25.5937 345.147 23.5028L336.962 23.2265L336.976 23.2257ZM345.636 13.9222C345.792 11.6406 343.488 9.52731 343.488 9.51901C343.488 9.51901 339.232 14.6748 336.111 21.4675C336.111 21.4675 336.077 21.5538 336.133 21.6103L336.176 21.6186H336.245C337.416 21.0353 342.282 18.5545 344.296 16.5972C344.296 16.5972 345.57 15.5684 345.636 13.9222H345.636ZM347.317 16.2902C347.317 16.2902 340.373 20.0156 336.786 22.4267C336.786 22.4267 336.729 22.474 336.751 22.552C336.751 22.552 336.786 22.6167 336.829 22.6167C338.113 22.6167 342.983 22.6167 343.104 22.5951C343.104 22.5951 343.735 22.5735 344.509 22.2757C344.509 22.2757 346.233 21.7223 347.131 19.7609C347.131 19.7609 347.94 18.1579 347.317 16.291V16.2902Z" fill="#B2BECB"/>
<path d="M136.608 8.99988C134.855 8.99988 133.175 9.69605 131.935 10.9353C130.696 12.1744 130 13.8552 130 15.6077C130 17.3601 130.696 19.0409 131.935 20.2801C133.175 21.5193 134.855 22.2154 136.608 22.2154C138.338 22.1818 139.986 21.4708 141.198 20.2353C142.409 18.9997 143.088 17.3382 143.088 15.6077C143.088 13.8771 142.409 12.2156 141.198 10.98C139.986 9.7445 138.338 9.03354 136.608 8.99988ZM136.608 10.0749C136.67 10.0749 136.803 10.0749 136.87 10.0774V10.5937C136.783 10.5918 136.695 10.5906 136.608 10.5899C135.949 10.5883 135.297 10.7173 134.688 10.9694C134.08 11.2215 133.527 11.5918 133.063 12.0588C132.595 12.5231 132.225 13.0755 131.973 13.6841C131.721 14.2927 131.592 14.9452 131.594 15.6039C131.594 16.944 132.115 18.204 133.063 19.1491C133.527 19.616 134.08 19.9863 134.688 20.2384C135.297 20.4905 135.949 20.6195 136.608 20.6179C137.879 20.6158 139.102 20.1322 140.03 19.2645C140.959 18.3967 141.524 17.2093 141.612 15.9414V15.8664H138.189V15.3539H141.915L142.137 15.3526V15.6039C142.139 16.3302 141.997 17.0498 141.72 17.721C141.442 18.3922 141.034 19.0016 140.519 19.5141C140.006 20.0292 139.397 20.4377 138.725 20.7158C138.053 20.9938 137.333 21.136 136.607 21.1341C135.131 21.1341 133.743 20.5591 132.694 19.5141C132.179 19.0015 131.772 18.392 131.494 17.7209C131.217 17.0497 131.075 16.3302 131.078 15.6039C131.079 14.1376 131.662 12.7318 132.699 11.6948C133.736 10.6579 135.141 10.0744 136.608 10.0724V10.0749ZM156.686 11.1725C153.923 11.1725 152.471 12.6813 152.471 15.5577C152.471 18.4203 153.783 19.9703 156.672 19.9703C157.997 19.9703 159.295 19.6328 160 19.1391V14.9939H156.575V16.5864H158.181V18.0803C157.885 18.1928 157.307 18.3065 156.757 18.3065C154.982 18.3065 154.389 17.404 154.389 15.5714C154.389 13.8238 154.952 12.7938 156.729 12.7938C157.716 12.7938 158.28 13.1038 158.745 13.6963L159.972 12.5688C159.225 11.4975 157.914 11.1725 156.686 11.1725ZM146.169 11.3V19.8428H152.232V18.1803H148.145V11.2987L146.169 11.3ZM134.498 12.7038C134.708 12.7038 134.91 12.7874 135.059 12.9363C135.208 13.0851 135.291 13.287 135.291 13.4976C135.291 13.7081 135.208 13.91 135.059 14.0589C134.91 14.2077 134.708 14.2913 134.498 14.2913C134.287 14.2913 134.085 14.2077 133.936 14.0589C133.788 13.91 133.704 13.7081 133.704 13.4976C133.704 13.287 133.788 13.0851 133.936 12.9363C134.085 12.7874 134.287 12.7038 134.498 12.7038ZM136.345 12.7063H136.87V17.9815H138.185V18.499H136.345V12.7063Z" fill="#B2BECB"/>
<path d="M64.7503 10.3842L64.8999 19.4556H64.8263L62.3516 10.3842H58.2952V21.8113H60.9789L60.8293 12.424H60.9029L63.551 21.8113H67.434V10.3842H64.7503ZM13.6158 10.3842L11.5876 21.9301H14.5182L16.0144 11.4256H16.0762L17.5368 21.9301H20.4437L18.4392 10.3842H13.6158ZM30.017 10.3842L28.6799 19.1902H28.6063L27.2573 10.3842H22.8281L22.6167 21.9301H25.3384L25.412 11.5444H25.4358L27.255 21.9301H30.0123L31.8314 11.5444H31.9051L31.9787 21.9301H34.7004L34.4415 10.3842H30.017ZM7.00872 18.6519C7.12034 18.9147 7.08234 19.309 7.04672 19.4935C6.97309 19.8878 6.71185 20.2695 5.99463 20.2695C5.30115 20.2695 4.90691 19.8474 4.90691 19.2307V18.111H2V18.9931C2 21.5864 3.91657 22.3497 5.959 22.3497C7.91357 22.3497 9.54514 21.6268 9.80638 19.7311C9.956 18.7302 9.84438 18.0731 9.80638 17.8355C9.29815 15.3989 5.15628 14.7165 4.87129 13.3592C4.83296 13.1548 4.83296 12.9443 4.87129 12.7399C4.94491 12.3583 5.1919 11.964 5.84738 11.964C6.50286 11.964 6.86147 12.3861 6.86147 13.0028V13.7004H9.58314V12.8966C9.58314 10.3817 7.44333 10.0001 5.921 10.0001C3.99019 10.0001 2.39661 10.685 2.11162 12.5403C2.0134 13.0548 2.02639 13.5863 2.14962 14.0947C2.58186 16.4782 6.46724 17.1758 7.01109 18.6493L7.00872 18.6519ZM42.3239 18.6519C42.4355 18.9147 42.3975 19.2711 42.3619 19.4935C42.2882 19.8878 42.027 20.2695 41.3098 20.2695C40.6163 20.2695 40.2221 19.8474 40.2221 19.2307V18.111H37.3151V18.9931C37.3151 21.5459 39.1961 22.3244 41.2361 22.3244C43.1907 22.3244 44.7867 21.6268 45.0455 19.6907C45.1952 18.6898 45.0835 18.0705 45.0455 17.795C44.6133 15.3989 40.507 14.676 40.2221 13.3592C40.1837 13.1548 40.1837 12.9443 40.2221 12.7399C40.2838 12.3583 40.5427 11.964 41.1982 11.964C41.8156 11.964 42.2122 12.3861 42.2122 13.0028V13.7004H44.8959V12.8966C44.8959 10.3817 42.7941 10.0001 41.2718 10.0001C39.341 10.0001 37.783 10.6446 37.498 12.5403C37.4244 13.0407 37.4244 13.5134 37.5218 14.0947C37.9683 16.4782 41.7776 17.1353 42.3215 18.6493L42.3239 18.6519ZM51.465 20.1937C52.2321 20.1937 52.4411 19.6528 52.517 19.352C52.555 19.2332 52.555 19.0361 52.555 18.9173V10.3868H55.3123V18.6923C55.3123 18.9173 55.3123 19.3495 55.2743 19.4556C55.101 21.6268 53.4931 22.3244 51.5006 22.3244C49.508 22.3244 47.9144 21.6268 47.7268 19.4556C47.7268 19.3495 47.6888 18.9147 47.6888 18.6923V10.3868H50.4461V18.9173C50.4461 19.0765 50.4461 19.2332 50.4841 19.352C50.4841 19.6553 50.7074 20.1937 51.4602 20.1937H51.465ZM74.1146 20.0749C74.9197 20.0749 75.1667 19.534 75.2403 19.2332C75.2783 19.1144 75.2783 18.9173 75.2783 18.8111V17.1404H74.1526V15.4419H78V18.5356C78 18.7732 78 18.9173 77.962 19.3116C77.7768 21.4322 76.0692 22.1677 74.1526 22.1677C72.2218 22.1677 70.5285 21.4296 70.3432 19.3116C70.3052 18.9173 70.3052 18.7707 70.3052 18.5356V13.665C70.3052 13.4805 70.3432 13.0862 70.3432 12.9017C70.5902 10.7305 72.2242 10.0329 74.1526 10.0329C76.0692 10.0329 77.7388 10.7305 77.962 12.9017C78 13.2429 78 13.665 78 13.665V14.0593H75.2783V13.4021C75.2783 13.4021 75.2783 13.1266 75.2403 12.9674C75.2023 12.7045 74.9815 12.1257 74.1526 12.1257C73.3475 12.1257 73.1385 12.6666 73.0649 12.9674C73.0269 13.1266 73.0269 13.3238 73.0269 13.5209V18.8136C73.0269 18.9577 73.0269 19.1169 73.0649 19.2357C73.0649 19.539 73.3499 20.0774 74.117 20.0774L74.1146 20.0749Z" fill="#B2BECB"/>
<path d="M897.492 21.7407H896V10.1297H899.957C900.941 10.1297 901.792 10.4567 902.511 11.1108C903.23 11.7649 903.59 12.5892 903.59 13.5837C903.59 14.5783 903.23 15.4026 902.511 16.0567C901.792 16.7108 900.941 17.0378 899.957 17.0378H897.492L897.492 21.7407ZM897.492 15.611H899.989C900.616 15.611 901.119 15.4002 901.498 14.9785C901.876 14.5569 902.065 14.092 902.065 13.584C902.065 13.0759 901.876 12.611 901.498 12.1894C901.119 11.7677 900.616 11.5569 899.989 11.5569H897.492L897.492 15.611ZM906.515 11.8004C906.31 12.0056 906.062 12.1082 905.77 12.1082C905.478 12.1082 905.229 12.0055 905.024 11.8001C904.819 11.5948 904.716 11.3461 904.716 11.0541C904.716 10.7621 904.819 10.5135 905.024 10.3081C905.229 10.1027 905.478 10 905.77 10C906.062 10 906.31 10.1027 906.516 10.3081C906.721 10.5135 906.824 10.7621 906.824 11.0541C906.824 11.3461 906.721 11.5949 906.515 11.8004V11.8004ZM906.516 21.7407H905.024V13.7948H906.516V21.7407ZM915.089 21.7407H913.338L911.376 18.8055L909.446 21.7407H907.695L910.5 17.7029L907.759 13.7948H909.446L911.408 16.6003L913.273 13.7948H915.024L912.252 17.7029L915.089 21.7407ZM919.738 22C918.538 22 917.562 21.6 916.811 20.8001C916.06 20.0003 915.684 18.9894 915.684 17.7677C915.684 16.611 916.049 15.6164 916.779 14.7838C917.508 13.9512 918.441 13.535 919.576 13.535C920.754 13.535 921.698 13.9188 922.406 14.6863C923.114 15.4539 923.468 16.481 923.468 17.7677L923.451 18.0434H917.176C917.219 18.8434 917.486 19.4759 917.978 19.9408C918.47 20.4056 919.046 20.6381 919.706 20.6381C920.776 20.6381 921.5 20.1839 921.879 19.2756L923.208 19.827C922.949 20.4433 922.522 20.9595 921.927 21.3757C921.333 21.7919 920.603 22 919.738 22ZM921.879 16.8111C921.846 16.3568 921.638 15.9243 921.254 15.5135C920.87 15.1027 920.3 14.8974 919.543 14.8974C918.992 14.8974 918.514 15.0704 918.108 15.4163C917.703 15.7622 917.425 16.2272 917.273 16.8111H921.879ZM926.308 21.7407H924.816V10.1297H926.308V21.7407Z" fill="#B2BECB"/>
<path d="M780.582 11.0295C782.291 10.0914 784.498 9.87163 786.248 10.8097C787.447 11.4613 787.946 12.876 787.946 14.1714C787.987 16.6358 787.949 19.1038 787.957 21.5682L786.862 21.5533C786.836 18.9811 786.929 16.4086 786.825 13.84C786.833 12.3548 785.507 11.1933 784.07 11.1486C781.967 10.903 780.18 12.2431 778.635 13.4826C778.356 12.1499 779.633 11.5617 780.582 11.0295ZM792.026 11.6996C794.326 9.42134 798.596 9.57024 800.58 12.1835C801.447 13.2369 801.626 14.6292 801.682 15.947C798.436 15.9509 795.186 15.9544 791.939 15.947L792.029 15.0908C794.895 15.0798 797.766 15.1021 800.636 15.0798C800.364 13.7322 799.757 12.3399 798.499 11.6514C796.369 10.3597 793.324 11.0894 792.029 13.2184C790.596 15.5449 791.333 19.1559 793.909 20.3546C796.224 21.4342 799.02 20.6786 800.893 19.0666C801.016 19.2452 801.257 19.6026 801.377 19.7813C799.225 21.8847 795.632 22.4059 792.993 20.9541C789.777 19.1633 789.308 14.1303 792.026 11.6996ZM831.035 10.9029C833.22 9.6855 836.113 9.69681 838.283 10.9512C839.333 11.517 839.738 12.6824 840.014 13.7655C839.743 13.7768 839.207 13.8027 838.938 13.8176C838.648 13.021 838.387 12.0868 837.572 11.6624C835.751 10.631 833.313 10.6534 831.534 11.7666C830.488 12.392 830.439 14.1232 831.601 14.6554C833.887 15.8204 836.753 15.1876 838.912 16.6879C840.171 17.5328 840.293 19.5246 839.251 20.5854C838.316 21.5646 836.909 21.8028 835.632 22H833.898C831.619 21.8699 829.289 20.485 829.01 18.0466L830.037 18.0019C830.387 19.141 831.035 20.2766 832.248 20.645C834.124 21.3118 836.418 21.3302 838.13 20.2134C839.154 19.5174 839.079 17.805 837.959 17.2428C835.64 15.966 832.639 16.729 830.469 15.0949C829.099 14.0002 829.531 11.6698 831.035 10.9029H831.035ZM777.001 10.4378H778.073V21.5572C777.805 21.5572 777.273 21.5646 777.005 21.5646C776.997 17.8568 777.001 14.1452 777.001 10.4375V10.4378ZM816.182 10.4378H817.273C817.303 13.0472 817.22 15.6605 817.306 18.2663C817.325 19.6214 818.464 20.7382 819.785 20.8758C821.941 21.2519 823.895 19.96 825.444 18.6124C825.444 18.9135 825.447 19.5091 825.447 19.8069C823.59 21.3299 821.077 22.383 818.676 21.5908C817.209 21.1998 816.26 19.7405 816.215 18.2663C816.13 15.6605 816.208 13.0472 816.182 10.4375V10.4378ZM826.073 10.4378H827.164V21.561C826.888 21.561 826.345 21.561 826.073 21.5572C826.069 17.853 826.069 14.1452 826.073 10.4375V10.4378Z" fill="#B2BECB"/>
<path opacity="0.91" d="M802.322 10.4378H803.793C805.066 11.7815 806.373 13.0955 807.65 14.4356C808.018 14.7707 808.159 15.2546 808.338 15.7013C807.798 15.7275 807.229 15.6715 806.894 15.1876C805.367 13.6056 803.856 12.0123 802.322 10.4375V10.4378Z" fill="#B2BECB"/>
<path opacity="0.89" d="M813.163 10.4379C813.658 10.434 814.153 10.434 814.648 10.4379C812.951 12.1575 811.343 13.967 809.593 15.6308L808.584 15.6457C809.645 13.5721 811.685 12.2096 813.163 10.4376V10.4379Z" fill="#B2BECB"/>
<path opacity="0.9" d="M806.641 17.0377C807.05 16.5613 807.579 16.2262 808.219 16.1479C808.361 16.8329 807.862 17.3132 807.456 17.7561C806.213 19.0367 804.977 20.3247 803.73 21.6017C803.257 21.5936 802.784 21.5837 802.312 21.5719C803.718 20.0269 805.211 18.564 806.641 17.0377Z" fill="#B2BECB"/>
<path opacity="0.91" d="M808.729 16.1331C809.347 16.2487 809.887 16.5575 810.292 17.034C811.726 18.5603 813.219 20.0309 814.637 21.5756C814.16 21.5831 813.684 21.5908 813.207 21.5944C812.023 20.3957 810.865 19.1711 809.686 17.9647C809.224 17.4509 808.584 16.9336 808.729 16.1331H808.729Z" fill="#B2BECB"/>
<path d="M226.834 16.2101V10.4203H228.64V10.8029C228.64 11.0135 228.643 11.1857 228.647 11.1857C228.651 11.1857 228.765 11.1163 228.9 11.0315C230.497 10.0313 232.818 9.73008 234.901 10.253C236.776 10.7241 238.136 11.8424 238.62 13.3115C238.902 14.17 238.887 15.1247 238.577 15.955C238.191 16.9878 237.398 17.8181 236.254 18.387C235.254 18.8848 234.111 19.1341 232.83 19.1341C231.768 19.1341 230.778 18.9569 229.906 18.6112C229.56 18.474 229.116 18.2489 228.847 18.0737L228.64 17.9387V22H226.834V16.2101ZM233.703 17.5948C234.719 17.4508 235.507 17.1285 236.098 16.6157C236.545 16.2275 236.857 15.6883 236.975 15.0981C237.023 14.8566 237.023 14.2866 236.975 14.0459C236.836 13.3513 236.438 12.7445 235.842 12.319C235.602 12.1475 235.114 11.9031 234.803 11.7984C233.923 11.5026 232.857 11.415 231.88 11.5583C230.185 11.8071 229.039 12.6481 228.731 13.869C228.596 14.4076 228.62 14.9892 228.799 15.4974C229.206 16.6519 230.407 17.4202 232.104 17.6119C232.445 17.6505 233.382 17.6405 233.703 17.5948H233.703ZM239.69 16.2101V10.4203H241.495V10.8029C241.495 11.0135 241.499 11.1857 241.504 11.1857C241.509 11.1857 241.608 11.1235 241.725 11.0475C241.995 10.8715 242.527 10.6083 242.869 10.4822C244.344 9.93789 246.144 9.85006 247.72 10.2457C250.289 10.8906 251.802 12.6574 251.659 14.846C251.55 16.5167 250.438 17.8889 248.61 18.6101C248.013 18.8453 247.402 18.9937 246.637 19.0888C246.233 19.139 245.145 19.139 244.724 19.0887C243.531 18.9464 242.483 18.5922 241.667 18.0548L241.495 17.9418V22H239.69V16.2101ZM246.602 17.5863C248.009 17.3762 249 16.8096 249.521 15.9178C249.824 15.3997 249.937 14.7106 249.825 14.0708C249.592 12.7409 248.423 11.8207 246.633 11.558C245.452 11.3847 244.119 11.5573 243.212 12.001C242.287 12.4539 241.73 13.13 241.54 14.0315C241.49 14.2682 241.49 14.8766 241.54 15.1086C241.675 15.733 241.979 16.2496 242.441 16.6379C243.077 17.1725 243.905 17.4909 244.979 17.6139C245.334 17.6546 246.249 17.639 246.602 17.5863ZM219.376 19.1221C218.418 19.0375 217.601 18.8488 216.905 18.5519C215.324 17.8765 214.326 16.7366 214.055 15.2979C214.003 15.0232 213.983 14.4041 214.017 14.1083C214.212 12.3834 215.483 11.0172 217.492 10.3716C218.561 10.0281 219.877 9.91583 221.058 10.0675C223.222 10.3453 224.859 11.3487 225.578 12.8385C226.164 14.0515 226.09 15.5249 225.385 16.6577C225.068 17.1679 224.546 17.6946 224.008 18.0468C223.171 18.5947 222.171 18.9356 220.956 19.087C220.713 19.1174 219.602 19.142 219.376 19.1221ZM220.657 17.6138C221.599 17.5138 222.391 17.2449 222.987 16.8229C223.475 16.478 223.86 15.9695 224.033 15.4438C224.135 15.1362 224.155 14.9917 224.155 14.5713C224.155 14.1521 224.135 14.0088 224.034 13.7009C223.704 12.6889 222.738 11.9361 221.388 11.639C220.204 11.3784 218.823 11.4689 217.801 11.8742C217.063 12.1666 216.48 12.64 216.139 13.2248C215.776 13.8467 215.693 14.6937 215.925 15.4237C216.174 16.2103 216.832 16.8685 217.737 17.2377C218.23 17.4387 218.84 17.5789 219.445 17.6297C219.676 17.6491 220.415 17.6394 220.657 17.6138ZM257.903 19.1228C257.865 19.1185 257.733 19.1053 257.609 19.0936C256.612 18.9991 255.564 18.6843 254.796 18.2486C253.757 17.6596 253.034 16.8224 252.704 15.8274C252.48 15.154 252.442 14.3972 252.596 13.7009C252.83 12.648 253.471 11.754 254.466 11.0928C255.779 10.2209 257.708 9.83359 259.571 10.0684C261.119 10.2634 262.394 10.8294 263.281 11.7153C263.957 12.39 264.345 13.1806 264.458 14.1095C264.487 14.351 264.482 14.8392 264.449 15.0953C264.205 16.9399 262.743 18.3497 260.503 18.899C259.825 19.0655 259.398 19.1159 258.6 19.1241C258.254 19.1277 257.941 19.1271 257.903 19.1228ZM259.09 17.6229C260.283 17.5133 261.254 17.1203 261.878 16.4957C262.301 16.0728 262.546 15.6073 262.642 15.0447C262.682 14.8128 262.682 14.3295 262.641 14.089C262.424 12.7943 261.282 11.8558 259.591 11.5813C259.185 11.5154 258.915 11.4939 258.492 11.4939C256.595 11.4939 255.124 12.209 254.558 13.4055C254.389 13.7622 254.311 14.1302 254.311 14.5713C254.311 15.1532 254.447 15.6148 254.753 16.0747C255.315 16.919 256.381 17.4584 257.792 17.6125C258.083 17.6442 258.796 17.65 259.09 17.623L259.09 17.6229Z" fill="#B2BECB"/>
<path fill-rule="evenodd" clip-rule="evenodd" d="M1082.31 13.5571C1082.36 13.3959 1082.69 12.1425 1082.72 12.041C1081.64 11.5037 1080.05 10.7457 1076.62 11.3724C1072.27 12.1722 1071.88 20.1232 1077.11 20.9171C1077.75 21.0124 1078.7 21.0245 1079.34 20.9587C1082.55 20.6303 1083.33 19.5918 1083.32 15.4791L1078.13 15.4254V16.9294C1079.18 16.9294 1080.56 16.9653 1081.27 16.9832C1081.24 17.8605 1081.15 19.2157 1079.34 19.3469C1078.8 19.4007 1078.03 19.3707 1077.5 19.2932C1075.32 18.8755 1074.47 15.4611 1076.26 13.5507C1077.92 12.3337 1079.91 12.7098 1082.31 13.5571ZM1101.98 11.6351C1102.63 13.4019 1104.75 18.9354 1105.4 20.7143L1103.44 20.7024C1103.3 20.404 1102.95 19.3712 1102.76 18.9416C1101.23 18.9543 1099.71 18.9297 1098.19 18.9297C1098.11 19.1147 1097.57 20.4637 1097.48 20.6846L1095.61 20.6487C1096.13 19.419 1098.63 13.2828 1099.28 11.6351H1101.98ZM1102.14 17.3955C1102.14 17.3895 1102.14 17.3477 1102.14 17.3358C1101.99 16.8165 1100.94 13.9692 1100.61 13.2231C1100.59 13.2231 1100.54 13.2231 1100.51 13.2288C1100.5 13.2407 1100.5 13.2647 1100.49 13.2825C1100.22 13.963 1099.12 16.6073 1098.84 17.2937C1098.84 17.2996 1098.83 17.3596 1098.83 17.3774C1099.93 17.4027 1101.03 17.419 1102.14 17.3955ZM1060 14.2198V14.0945C1060.01 13.2766 1060.3 12.4411 1060.79 12.0531C1062.81 10.4535 1066.48 10.9369 1068.48 11.7904C1068.49 11.8023 1068.03 13.3722 1068.03 13.39C1067.41 13.0139 1064.15 12.1066 1062.38 13.1157C1061.59 13.7483 1061.91 14.972 1063.7 14.9064C1063.82 14.9005 1066.09 15.0079 1067.57 15.5928C1069.06 16.1779 1069.29 19.0547 1067.57 20.1472C1065.65 21.365 1062.41 21.0904 1060.14 20.1472C1060.23 19.6698 1060.38 19.1147 1060.47 18.4461C1061.66 19.1446 1064.35 19.6042 1066.06 18.9594C1067.15 18.3027 1066.77 17.0793 1065.51 16.9537C1063.95 16.7925 1062.26 16.8581 1060.81 16.0284C1060.26 15.6884 1060.01 14.9661 1060 14.2198ZM1086.01 20.6427H1084.14C1084.51 18.6848 1085.46 12.7098 1085.73 11.6233C1086.35 11.5933 1087.59 11.6233 1088.19 11.6233C1088.41 12.3396 1089.44 16.1002 1089.61 16.7806C1089.66 16.7747 1089.72 16.7747 1089.74 16.7628C1090.12 15.5391 1090.9 12.6261 1091.24 11.6114H1093.75C1094.1 13.9214 1094.68 17.8135 1095.11 20.6427H1093.23C1093.15 20.0398 1092.47 14.7155 1092.37 14.0885C1092.33 14.0767 1092.28 14.0885 1092.23 14.0826C1091.78 15.7359 1090.92 18.9475 1090.44 20.6427H1088.83C1088.74 20.2188 1087.3 14.608 1087.12 14.011C1087.09 14.017 1087.02 14.017 1087.01 14.011C1086.75 15.2885 1086.01 19.8967 1086.01 20.6427ZM1071.96 20.4756H1070.14V11.4561H1072.01L1071.96 20.4756Z" fill="#B2BECB"/>
</svg>
