<svg width="24" height="24" viewBox="0 0 24 24" fill="none" xmlns="http://www.w3.org/2000/svg">
<path d="M6.32812 16.8845C6.32812 17.433 6.77578 17.8806 7.32656 17.8806H8.46796V20.7025C8.46796 21.4173 9.04218 22.0009 9.74764 22.0009C10.4555 22.0009 11.0273 21.4197 11.0273 20.7025V17.8783H13.0195V20.7002C13.0195 21.415 13.5937 21.9986 14.2992 21.9986C15.007 21.9986 15.5789 21.4173 15.5789 20.7002V17.8783H16.7203C17.2711 17.8783 17.7187 17.4306 17.7187 16.8822V7.61968H6.32812V16.8845ZM14.6976 2.81968L15.75 1.29625C15.8109 1.20718 15.7969 1.08765 15.7148 1.02906C15.6328 0.97281 15.5156 1.00093 15.4547 1.09L14.3625 2.67437C13.643 2.39078 12.8414 2.23375 12 2.23375C11.1586 2.23375 10.357 2.39078 9.63749 2.67437L8.5453 1.09234C8.48437 1.00328 8.36718 0.97281 8.28515 1.0314C8.20312 1.08765 8.18905 1.20484 8.24999 1.29859L9.30233 2.82203C7.6289 3.60015 6.45703 5.07437 6.30703 6.79703H17.6976C17.5429 5.07203 16.3687 3.59781 14.6976 2.81968ZM9.5953 5.22203C9.47061 5.22203 9.34871 5.18505 9.24503 5.11578C9.14135 5.0465 9.06054 4.94803 9.01283 4.83283C8.96511 4.71763 8.95262 4.59086 8.97695 4.46856C9.00127 4.34626 9.06132 4.23392 9.14949 4.14575C9.23767 4.05758 9.35 3.99753 9.4723 3.97321C9.5946 3.94888 9.72137 3.96136 9.83657 4.00908C9.95177 4.0568 10.0502 4.13761 10.1195 4.24129C10.1888 4.34497 10.2258 4.46686 10.2258 4.59156C10.2253 4.75864 10.1588 4.91875 10.0406 5.03689C9.92249 5.15503 9.76238 5.2216 9.5953 5.22203ZM14.4797 5.22203C14.355 5.22203 14.2331 5.18505 14.1294 5.11578C14.0257 5.0465 13.9449 4.94803 13.8972 4.83283C13.8495 4.71763 13.837 4.59086 13.8613 4.46856C13.8856 4.34626 13.9457 4.23392 14.0339 4.14575C14.122 4.05758 14.2344 3.99753 14.3567 3.97321C14.479 3.94888 14.6057 3.96136 14.7209 4.00908C14.8361 4.0568 14.9346 4.13761 15.0039 4.24129C15.0732 4.34497 15.1101 4.46686 15.1101 4.59156C15.1097 4.75864 15.0431 4.91875 14.925 5.03689C14.8069 5.15503 14.6467 5.2216 14.4797 5.22203ZM19.7156 7.58218C19.0078 7.58218 18.4359 8.16343 18.4359 8.88062V13.9525C18.4359 14.6673 19.0101 15.2509 19.7156 15.2509C20.4234 15.2509 20.9953 14.6697 20.9953 13.9525V8.87828C20.9976 8.16109 20.4258 7.58218 19.7156 7.58218ZM4.27969 7.58218C3.57187 7.58218 3 8.16343 3 8.88062V13.9525C3 14.6673 3.57422 15.2509 4.27969 15.2509C4.9875 15.2509 5.55937 14.6697 5.55937 13.9525V8.87828C5.55937 8.16109 4.98515 7.58218 4.27969 7.58218Z" fill="#2E3C49"/>
</svg>
