<svg width="100" height="100" viewBox="0 0 100 100" fill="none" xmlns="http://www.w3.org/2000/svg">
<path d="M21.3462 72.9999C19.6795 68.0022 18.0002 57.8824 18.0002 53.1971C18.0002 47.9646 19.1322 43.3967 21.3462 39.5585C22.9874 36.5585 25.4003 34.0515 28.3354 32.2969C31.1798 30.5302 34.4481 29.5633 37.796 29.4982C38.9679 29.4982 40.2298 29.6682 41.5692 29.993C42.5312 30.2654 43.7032 30.6952 45.135 31.2299C46.9567 31.9321 47.9587 32.3619 48.2985 32.4668C49.3655 32.8567 50.2626 33.0266 50.9673 33.0266C51.502 33.0266 52.2567 32.8567 53.1138 32.5968C53.5961 32.4269 54.5056 32.127 55.8075 31.5698C57.0969 31.1 58.1114 30.6977 58.9186 30.3978C60.1555 30.033 61.3524 29.6956 62.4194 29.5257C63.6844 29.3263 64.9681 29.2735 66.2451 29.3683C68.4581 29.5129 70.6379 29.9819 72.7146 30.7601C76.1105 32.127 78.8567 34.261 80.9008 37.2946C80.0368 37.8271 79.226 38.4413 78.4794 39.1287C76.8542 40.5695 75.4699 42.2609 74.3788 44.1389M56.9395 26.9594C54.6756 28.0914 52.5141 28.5737 50.3676 28.4162C50.0302 26.2548 50.3676 24.0433 51.2647 21.6219C52.0284 19.5706 53.1569 17.6742 54.5956 16.0246C56.1149 14.2879 57.9585 12.8645 60.0231 11.834C62.222 10.702 64.3185 10.0898 66.3226 9.99988C66.5825 12.2638 66.3226 14.4903 65.4905 16.8966C64.7204 19.0239 63.594 21.0045 62.1595 22.7539C60.6954 24.4929 58.8985 25.9219 56.8745 26.9569L56.9395 26.9594Z" stroke="#0048B5" stroke-width="2"/>
</svg>
