<svg width="24" height="24" viewBox="0 0 24 24" fill="none" xmlns="http://www.w3.org/2000/svg">
<path d="M17.7499 12.0978C17.7398 10.3764 18.5197 9.07913 20.0946 8.12256C19.2138 6.86059 17.8812 6.16651 16.1245 6.03274C14.4612 5.90149 12.6414 7.00193 11.9751 7.00193C11.271 7.00193 9.66068 6.07817 8.39366 6.07817C5.77886 6.11855 3 8.16294 3 12.3224C3 13.5516 3.22463 14.8211 3.67389 16.1285C4.27459 17.8498 6.44013 22.0673 8.69906 21.9992C9.88026 21.9714 10.7157 21.1612 12.2528 21.1612C13.7444 21.1612 14.5167 21.9992 15.8342 21.9992C18.1134 21.9664 20.0719 18.1325 20.6423 16.4061C17.5858 14.965 17.7499 12.1861 17.7499 12.0978ZM15.0972 4.39975C16.3769 2.88034 16.2608 1.49722 16.2229 1C15.0922 1.06562 13.7848 1.7698 13.0402 2.63551C12.22 3.56432 11.7379 4.71272 11.8414 6.0075C13.0629 6.10088 14.1785 5.47242 15.0972 4.39975Z" fill="#2E3C49"/>
</svg>
