<svg width="264" height="105" viewBox="0 0 264 105" fill="none" xmlns="http://www.w3.org/2000/svg">
<path d="M60.0001 84.4287C57.7269 84.4287 55.5467 85.3318 53.9392 86.9392C52.3318 88.5467 51.4287 90.7269 51.4287 93.0001C51.4287 95.2734 52.3318 97.4536 53.9392 99.0611C55.5467 100.669 57.7269 101.572 60.0001 101.572C62.2734 101.572 64.4536 100.669 66.0611 99.0611C67.6685 97.4536 68.5716 95.2734 68.5716 93.0001C68.5716 90.7269 67.6685 88.5467 66.0611 86.9392C64.4536 85.3318 62.2734 84.4287 60.0001 84.4287Z" fill="#03A9F4"/>
<path d="M64.0714 92.1429C62.7643 92.1429 61.5107 92.6621 60.5864 93.5864C59.6621 94.5107 59.1429 95.7643 59.1429 97.0714C59.1429 98.3786 59.6621 99.6322 60.5864 100.556C61.5107 101.481 62.7643 102 64.0714 102C65.3786 102 66.6322 101.481 67.5565 100.556C68.4807 99.6322 69 98.3786 69 97.0714C69 95.7643 68.4807 94.5107 67.5565 93.5864C66.6322 92.6621 65.3786 92.1429 64.0714 92.1429ZM55.9286 84C55.2813 84 54.6405 84.1275 54.0425 84.3752C53.4445 84.6228 52.9012 84.9859 52.4435 85.4435C51.9859 85.9012 51.6228 86.4445 51.3752 87.0425C51.1275 87.6405 51 88.2813 51 88.9286C51 89.5758 51.1275 90.2167 51.3752 90.8147C51.6228 91.4126 51.9859 91.9559 52.4435 92.4136C52.9012 92.8713 53.4445 93.2343 54.0425 93.482C54.6405 93.7297 55.2813 93.8571 55.9286 93.8571C56.5758 93.8571 57.2167 93.7297 57.8147 93.482C58.4126 93.2343 58.9559 92.8713 59.4136 92.4136C59.8713 91.9559 60.2343 91.4126 60.482 90.8147C60.7297 90.2167 60.8571 89.5758 60.8571 88.9286C60.8571 88.2813 60.7297 87.6405 60.482 87.0425C60.2343 86.4445 59.8713 85.9012 59.4136 85.4435C58.9559 84.9859 58.4126 84.6228 57.8147 84.3752C57.2167 84.1275 56.5758 84 55.9286 84Z" fill="#03A9F4"/>
<path d="M60.2577 98.1431C57.4283 98.1431 56.1426 96.7284 56.1426 95.657C56.1426 95.0994 56.5274 94.7146 57.085 94.7146C58.2854 94.7146 57.9859 96.4726 60.2573 96.4726C61.414 96.4726 62.0569 95.8297 62.0569 95.1868C62.0569 94.8003 61.8846 94.3717 61.1144 94.1574L58.585 93.5146C56.5711 93.0003 56.1863 91.8851 56.1863 90.8137C56.1863 88.6289 58.2001 87.8574 60.0854 87.8574C61.843 87.8574 63.8569 88.7998 63.8569 90.0856C63.8569 90.6431 63.4283 90.9864 62.8707 90.9864C61.843 90.9864 62.0136 89.5284 59.956 89.5284C58.9283 89.5284 58.3287 90.0007 58.3287 90.6868C58.3287 91.3717 59.1421 91.586 59.8707 91.7583L61.7573 92.1868C63.8131 92.657 64.2854 93.8574 64.2854 95.0141C64.2417 96.8137 62.956 98.1431 60.2577 98.1431Z" fill="white"/>
<path fill-rule="evenodd" clip-rule="evenodd" d="M117 86.8341C117 86.0515 116.683 85.3429 116.17 84.8301C115.657 84.3172 114.949 84 114.166 84H101.834C101.051 84 100.343 84.3172 99.8301 84.8301C99.3172 85.3429 99 86.0515 99 86.8341V99.1659C99 99.9485 99.3172 100.657 99.8301 101.17C100.343 101.683 101.051 102 101.834 102H114.166C114.949 102 115.657 101.683 116.17 101.17C116.683 100.657 117 99.9485 117 99.1659V86.8341L117 86.8341Z" fill="#2DC100"/>
<path fill-rule="evenodd" clip-rule="evenodd" d="M110.033 89.487C109.449 88.7184 108.618 88.1733 107.694 87.9002C106.774 87.6285 105.762 87.6259 104.809 87.9399C104.087 88.1777 103.462 88.5296 102.967 89.0164C102.502 89.4745 102.153 90.0501 101.949 90.7604C101.721 91.5546 101.758 92.3382 102.033 93.0531C102.31 93.7706 102.824 94.4166 103.548 94.9319C103.627 94.9886 103.671 95.0356 103.686 95.0829C103.702 95.1302 103.693 95.1941 103.667 95.2823C103.599 95.5083 103.552 95.7422 103.501 95.9941C103.478 96.1068 103.454 96.2232 103.43 96.3348L103.35 96.7002L103.664 96.5021C103.81 96.4099 103.927 96.3347 104.041 96.2619C104.348 96.0655 104.631 95.8843 104.905 95.7283C104.944 95.706 104.994 95.6909 105.048 95.6817C105.114 95.6703 105.185 95.6689 105.251 95.6744C105.552 95.7 105.84 95.738 106.142 95.7779C106.3 95.7986 106.46 95.8197 106.525 95.8279L106.716 95.8517L106.699 95.6588C106.65 95.0679 106.715 94.5355 106.892 94.0548C107.069 93.5743 107.357 93.1435 107.753 92.7559C108.147 92.3711 108.586 92.0934 109.066 91.9044C109.549 91.7145 110.075 91.6139 110.638 91.5843L110.8 91.5757L110.785 91.4133C110.75 91.0423 110.668 90.7 110.542 90.3808C110.415 90.0614 110.244 89.7654 110.033 89.487V89.487ZM108.083 90.2557C108.269 90.2542 108.437 90.3267 108.56 90.446C108.683 90.566 108.76 90.7332 108.764 90.9203V90.9209L108.764 90.9263V90.9269C108.765 91.1185 108.693 91.2892 108.573 91.413C108.453 91.5366 108.285 91.6125 108.094 91.6148C107.905 91.6171 107.734 91.5448 107.609 91.4249C107.483 91.3043 107.404 91.1357 107.401 90.9463C107.397 90.7621 107.474 90.5903 107.598 90.4644C107.721 90.3398 107.891 90.2593 108.076 90.2558H108.077L108.082 90.2557H108.083V90.2557ZM105.262 90.472C105.383 90.5988 105.457 90.7701 105.451 90.9518V90.9524L105.451 90.9568V90.9574C105.444 91.1442 105.361 91.3108 105.233 91.4294C105.105 91.5469 104.933 91.6172 104.746 91.6124H104.745L104.743 91.6123C104.554 91.6067 104.388 91.5278 104.269 91.4028C104.151 91.2776 104.081 91.1068 104.086 90.9175L104.086 90.9152V90.9145C104.092 90.7254 104.173 90.5578 104.299 90.4389C104.426 90.3205 104.598 90.2504 104.786 90.256H104.787L104.791 90.2562H104.792C104.975 90.2633 105.142 90.3464 105.262 90.472V90.472Z" fill="#FFFFFE"/>
<path fill-rule="evenodd" clip-rule="evenodd" d="M113.646 93.3516C113.087 92.6306 112.222 92.183 111.298 92.0454C110.372 91.9075 109.387 92.0812 108.591 92.6032C108.327 92.7761 108.098 92.9697 107.905 93.1785C107.435 93.6858 107.168 94.2879 107.111 94.9048C107.054 95.5205 107.208 96.1527 107.581 96.7216C107.729 96.9481 107.911 97.1637 108.127 97.3632C108.53 97.7365 108.977 98.0002 109.458 98.1573C109.948 98.317 110.475 98.3668 111.032 98.3098C111.172 98.2955 111.323 98.2523 111.472 98.2096C111.706 98.1422 111.939 98.0755 112.181 98.1008C112.462 98.1301 112.714 98.263 112.974 98.4C112.883 98.1951 112.87 98.0169 112.923 97.8454C112.981 97.6551 113.119 97.488 113.321 97.3093C113.909 96.7876 114.233 96.1159 114.29 95.4193C114.349 94.7138 114.134 93.9814 113.646 93.3515L113.646 93.3516ZM111.331 93.7593C111.437 93.6565 111.582 93.5932 111.739 93.5943H111.74L111.756 93.5946H111.757C111.917 93.6005 112.059 93.6699 112.161 93.7783C112.262 93.8859 112.324 94.0322 112.323 94.1926L112.322 94.2113C112.317 94.3718 112.25 94.5133 112.144 94.6147C112.038 94.7162 111.893 94.7773 111.733 94.7767C111.723 94.7767 111.715 94.7766 111.71 94.7764C111.552 94.77 111.411 94.7018 111.31 94.5951C111.209 94.4888 111.148 94.3444 111.148 94.1856C111.148 94.1757 111.148 94.1679 111.149 94.1624C111.155 94.0045 111.224 93.8619 111.331 93.7593V93.7593ZM109.042 93.5937C109.202 93.5998 109.346 93.6691 109.449 93.7766C109.552 93.8842 109.615 94.0303 109.615 94.1901V94.1907C109.615 94.1997 109.615 94.2066 109.615 94.2113C109.608 94.3705 109.539 94.5129 109.432 94.6153C109.324 94.7173 109.178 94.7798 109.018 94.7797C108.859 94.7795 108.713 94.7157 108.606 94.6127C108.498 94.5097 108.429 94.3666 108.423 94.2078C108.423 94.2018 108.423 94.1941 108.423 94.185C108.424 94.0272 108.489 93.8819 108.593 93.7752C108.697 93.6684 108.841 93.5992 108.999 93.5936C109.005 93.5934 109.013 93.5933 109.022 93.5933L109.042 93.5937V93.5937Z" fill="#FFFFFE"/>
<path fill-rule="evenodd" clip-rule="evenodd" d="M245.452 43H258.548C259.902 43 261 44.098 261 45.452V58.5475C261 59.902 259.902 61 258.548 61H245.452C244.098 61 243 59.902 243 58.548V45.452C243 44.098 244.098 43 245.452 43Z" fill="#212121"/>
<path fill-rule="evenodd" clip-rule="evenodd" d="M254.604 50.3032C255.392 50.8662 256.358 51.1972 257.4 51.1972V49.1917C257.203 49.1917 257.006 49.1712 256.813 49.1302V50.7087C255.771 50.7087 254.806 50.3772 254.017 49.8147V53.9067C254.017 55.9537 252.357 57.6132 250.309 57.6132C249.545 57.6132 248.834 57.3822 248.244 56.9862C248.918 57.6742 249.857 58.1012 250.896 58.1012C252.944 58.1012 254.604 56.4417 254.604 54.3947V50.3032ZM255.329 48.2802C254.926 47.8407 254.662 47.2722 254.604 46.6437V46.3857H254.048C254.188 47.1842 254.666 47.8667 255.329 48.2802ZM249.54 55.4157C249.315 55.1207 249.193 54.7602 249.194 54.3892C249.194 53.4527 249.953 52.6937 250.89 52.6937C251.065 52.6937 251.238 52.7202 251.405 52.7732V50.7232C251.21 50.6967 251.014 50.6852 250.818 50.6892V52.2847C250.651 52.2317 250.478 52.2052 250.303 52.2052C249.366 52.2052 248.606 52.9642 248.606 53.9007C248.607 54.5632 248.986 55.1367 249.54 55.4157Z" fill="#EC407A"/>
<path fill-rule="evenodd" clip-rule="evenodd" d="M254.016 49.8147C254.805 50.3777 255.77 50.7087 256.812 50.7087V49.1302C256.231 49.0062 255.715 48.7022 255.328 48.2797C254.665 47.8662 254.188 47.1842 254.048 46.3857H252.586V54.3947C252.582 55.3282 251.825 56.0842 250.89 56.0842C250.339 56.0842 249.849 55.8217 249.539 55.4152C248.986 55.1362 248.606 54.5627 248.606 53.9007C248.606 52.9642 249.366 52.2052 250.303 52.2052C250.482 52.2052 250.655 52.2332 250.817 52.2847V50.6897C248.805 50.7312 247.188 52.3742 247.188 54.3952C247.188 55.4042 247.59 56.3187 248.244 56.9867C248.834 57.3827 249.545 57.6137 250.309 57.6137C252.357 57.6137 254.017 55.9542 254.017 53.9072L254.016 49.8147Z" fill="white"/>
<path fill-rule="evenodd" clip-rule="evenodd" d="M256.813 49.131V48.704C256.288 48.705 255.774 48.558 255.328 48.28C255.722 48.7115 256.241 49.009 256.813 49.131ZM254.047 46.386C254.034 46.3095 254.024 46.233 254.017 46.1555V45.8975H251.999V53.907C251.996 54.8405 251.237 55.5965 250.302 55.5965C250.028 55.5965 249.769 55.5315 249.539 55.4155C249.849 55.822 250.339 56.0845 250.89 56.0845C251.825 56.0845 252.583 55.3285 252.586 54.395V46.386H254.047ZM250.817 50.69V50.2355C250.649 50.2125 250.479 50.201 250.308 50.201C248.26 50.201 246.6 51.8605 246.6 53.9075C246.6 55.191 247.252 56.322 248.244 56.987C247.59 56.319 247.187 55.4045 247.187 54.3955C247.187 52.3745 248.805 50.7315 250.817 50.69Z" fill="#81D4FA"/>
<path d="M200.921 91.2727C204.386 90.1723 204.936 86.9821 204.496 84.1212C204.496 84.1212 204.496 83.9563 204.607 84.0112C207.962 85.662 211.703 89.1277 211.703 94.4634C211.703 98.4242 208.567 102 204.001 102C199.05 102 196.3 98.5343 196.3 94.4086C196.3 91.9333 197.95 89.4575 199.876 88.3575C199.876 88.3575 200.04 88.3575 200.04 88.4676C200.04 89.0176 200.261 90.393 200.865 91.2179L200.921 91.2727Z" fill="url(#paint0_radial)"/>
<path d="M246.25 102H257.75C259.545 102 261 100.545 261 98.75V87.25C261 85.455 259.545 84 257.75 84H246.25C244.455 84 243 85.455 243 87.25V98.75C243 100.545 244.455 102 246.25 102Z" fill="#00C300"/>
<path d="M258.557 92.2081C258.557 89.2756 255.617 86.8896 252.003 86.8896C248.39 86.8896 245.449 89.2756 245.449 92.2081C245.449 94.8371 247.781 97.0391 250.93 97.4556C251.144 97.5016 251.434 97.5966 251.508 97.7786C251.574 97.9441 251.551 98.2036 251.529 98.3711C251.529 98.3711 251.452 98.8336 251.435 98.9321C251.407 99.0976 251.304 99.5801 252.003 99.2856C252.702 98.9911 255.777 97.0631 257.152 95.4801H257.151C258.102 94.4391 258.557 93.3816 258.557 92.2081ZM249.438 93.9531H248.136C247.946 93.9531 247.792 93.7991 247.792 93.6091V91.0046C247.792 90.8151 247.946 90.6611 248.136 90.6611C248.325 90.6611 248.479 90.8151 248.479 91.0046V93.2651H249.438C249.627 93.2651 249.781 93.4191 249.781 93.6086C249.781 93.7986 249.627 93.9531 249.438 93.9531ZM250.784 93.6091C250.784 93.7986 250.63 93.9531 250.441 93.9531C250.251 93.9531 250.097 93.7991 250.097 93.6091V91.0046C250.097 90.8151 250.251 90.6611 250.441 90.6611C250.63 90.6611 250.784 90.8151 250.784 91.0046V93.6091ZM253.919 93.6091C253.919 93.7576 253.825 93.8886 253.684 93.9351C253.649 93.9471 253.612 93.9531 253.575 93.9531C253.468 93.9531 253.365 93.9016 253.301 93.8156L251.966 91.9981V93.6091C251.966 93.7986 251.812 93.9531 251.622 93.9531C251.433 93.9531 251.278 93.7991 251.278 93.6091V91.0046C251.278 90.8566 251.373 90.7256 251.513 90.6786C251.549 90.6666 251.585 90.6611 251.622 90.6611C251.729 90.6611 251.832 90.7126 251.897 90.7986L253.232 92.6161V91.0046C253.232 90.8151 253.386 90.6611 253.576 90.6611C253.765 90.6611 253.919 90.8151 253.919 91.0046V93.6091ZM256.026 91.9631C256.216 91.9631 256.37 92.1171 256.37 92.3071C256.37 92.4966 256.216 92.6506 256.026 92.6506H255.068V93.2656H256.026C256.216 93.2656 256.37 93.4196 256.37 93.6091C256.37 93.7986 256.216 93.9531 256.026 93.9531H254.724C254.535 93.9531 254.381 93.7991 254.381 93.6091V92.3076C254.381 92.3071 254.381 92.3071 254.381 92.3071V92.3066V91.0061C254.381 91.0056 254.381 91.0056 254.381 91.0051C254.381 90.8156 254.535 90.6616 254.724 90.6616H256.026C256.216 90.6616 256.37 90.8156 256.37 91.0051C256.37 91.1946 256.216 91.3486 256.026 91.3486H255.068V91.9636H256.026V91.9631Z" fill="white"/>
<path d="M20.6601 3.97511C20.3531 3.71474 19.8708 3.67749 19.3722 3.87768H19.3713C18.8469 4.08811 4.52653 10.2306 3.94356 10.4815C3.83753 10.5184 2.91149 10.8639 3.00688 11.6335C3.09203 12.3274 3.8363 12.6148 3.92719 12.648L7.56787 13.8946C7.80941 14.6986 8.69983 17.665 8.89674 18.2988C9.01956 18.6938 9.21975 19.2129 9.5706 19.3198C9.87846 19.4385 10.1847 19.33 10.3828 19.1745L12.6087 17.1099L16.2019 19.9122L16.2874 19.9634C16.5314 20.0714 16.7652 20.1255 16.9883 20.1255C17.1606 20.1255 17.326 20.0931 17.4841 20.0284C18.0224 19.8074 18.2377 19.2944 18.2603 19.2363L20.9442 5.28557C21.108 4.54048 20.8803 4.16139 20.6601 3.97511ZM10.7787 14.3932L9.55054 17.6683L8.32237 13.5744L17.7383 6.61485L10.7787 14.3932Z" fill="#2C9AFF"/>
<path d="M17.0061 60.9905L7.01138 61C4.81254 61.002 3.012 59.2049 3.0095 57.0061L3 47.0114C2.998 44.8125 4.79505 43.012 6.99389 43.0095L16.9886 43C19.1875 42.998 20.988 44.7951 20.9905 46.9939L21 56.9886C21.0025 59.188 19.2049 60.9885 17.0061 60.9905Z" fill="url(#paint1_radial)"/>
<path d="M17.0086 60.9941L7.00862 61.0036C4.80862 61.0056 3.00712 59.2076 3.00462 57.0076L2.99512 47.0076C2.99312 44.8076 4.79112 43.0061 6.99112 43.0036L16.9911 42.9941C19.1911 42.9921 20.9926 44.7901 20.9951 46.9901L21.0046 56.9901C21.0071 59.1906 19.2086 60.9921 17.0086 60.9941Z" fill="url(#paint2_radial)"/>
<path d="M12 55.5C10.0705 55.5 8.5 53.93 8.5 52C8.5 50.07 10.0705 48.5 12 48.5C13.9295 48.5 15.5 50.07 15.5 52C15.5 53.93 13.9295 55.5 12 55.5ZM12 49.5C10.6215 49.5 9.5 50.6215 9.5 52C9.5 53.3785 10.6215 54.5 12 54.5C13.3785 54.5 14.5 53.3785 14.5 52C14.5 50.6215 13.3785 49.5 12 49.5Z" fill="white"/>
<path d="M15.75 49C16.1642 49 16.5 48.6642 16.5 48.25C16.5 47.8358 16.1642 47.5 15.75 47.5C15.3358 47.5 15 47.8358 15 48.25C15 48.6642 15.3358 49 15.75 49Z" fill="white"/>
<path d="M15 58.5H9C7.0705 58.5 5.5 56.93 5.5 55V49C5.5 47.07 7.0705 45.5 9 45.5H15C16.9295 45.5 18.5 47.07 18.5 49V55C18.5 56.93 16.9295 58.5 15 58.5ZM9 46.5C7.6215 46.5 6.5 47.6215 6.5 49V55C6.5 56.3785 7.6215 57.5 9 57.5H15C16.3785 57.5 17.5 56.3785 17.5 55V49C17.5 47.6215 16.3785 46.5 15 46.5H9Z" fill="white"/>
<path d="M117 18.5C117 19.881 115.881 21 114.5 21H101.5C100.12 21 99 19.881 99 18.5V5.5C99 4.119 100.12 3 101.5 3H114.5C115.881 3 117 4.119 117 5.5V18.5Z" fill="#3F51B5"/>
<path d="M113.184 12.5H111.5V19H109V12.5H107.5V10.5H109V9.295C109.001 7.541 109.73 6.5 111.796 6.5H113.5V8.5H112.357C111.552 8.5 111.5 8.8 111.5 9.3615V10.5H113.5L113.184 12.5Z" fill="white"/>
<g clip-path="url(#clip0)">
<path fill-rule="evenodd" clip-rule="evenodd" d="M56.474 10.7928C56.474 10.7842 56.4655 9.44068 57.5989 9.44968C58.739 9.45868 58.7237 10.7928 58.7237 10.7928V16.6488C58.7237 16.6488 58.5775 17.5505 57.5935 17.5487C56.5883 17.5469 56.4659 16.6488 56.4659 16.6488L56.474 10.7928ZM48.375 7.91716C48.375 7.91716 48.4101 6.74641 49.4999 6.75001C50.5415 6.75361 50.6211 7.94101 50.6211 7.94101L50.6247 12.1493L52.8744 9.89962C52.8744 9.89962 53.8049 9.14821 54.4493 9.89962C55.1354 10.6996 54.2243 11.6994 54.2243 11.6994L52.8744 13.0492C52.8744 13.0492 55.1242 16.1961 55.1242 16.4238C55.1242 17.0492 54.6162 17.5496 53.9993 17.5496C53.5849 17.5496 53.0675 17.4384 52.8744 17.0987L51.0747 14.3991L50.6247 14.849V16.6488C50.6247 16.6488 50.4735 17.5478 49.4999 17.5491C48.4465 17.5509 48.375 16.6488 48.375 16.6488V7.91716ZM60.5235 7.91716C60.5235 7.91716 60.5586 6.74641 61.6484 6.75001C62.69 6.75361 62.7696 7.94101 62.7696 7.94101L62.7732 12.1493L65.023 9.89962C65.023 9.89962 65.9534 9.14821 66.5978 9.89962C67.2839 10.6996 66.3728 11.6994 66.3728 11.6994L65.023 13.0492C65.023 13.0492 67.2727 16.1961 67.2727 16.4238C67.2727 17.0492 66.7647 17.5496 66.1478 17.5496C65.7334 17.5496 65.216 17.4384 65.023 17.0987L63.2232 14.3991L62.7732 14.849V16.6488C62.7732 16.6488 62.6221 17.5478 61.6484 17.5491C60.595 17.5509 60.5235 16.6488 60.5235 16.6488V7.91716Z" fill="#5DCD11"/>
</g>
<path d="M12 100.5C7.05 100.5 3 96.45 3 91.5C3 86.55 7.05 82.5 12 82.5C16.95 82.5 21 86.55 21 91.5C21 96.45 18.1 101.75 12 103.5V100.5Z" fill="#4CAF50"/>
<path d="M11 89V92.5C11 94.15 9.65 95.5 8 95.5V94C8.85 94 9.5 93.35 9.5 92.5H7.5C7.25 92.5 7 92.25 7 92V89C7 88.75 7.25 88.5 7.5 88.5H10.5C10.75 88.5 11 88.75 11 89ZM16.5 88.5H13.5C13.25 88.5 13 88.75 13 89V92C13 92.25 13.25 92.5 13.5 92.5H15.5C15.5 93.35 14.85 94 14 94V95.5C15.65 95.5 17 94.15 17 92.5V89C17 88.75 16.75 88.5 16.5 88.5Z" fill="white"/>
<path d="M160.5 12C160.5 14.4844 158.484 16.5 156 16.5C153.516 16.5 151.5 14.4844 151.5 12C151.5 9.51555 153.516 7.5 156 7.5C158.484 7.5 160.5 9.51555 160.5 12Z" fill="white"/>
<path d="M159.298 14.3445L155.626 20.991C150.829 20.7975 147 16.842 147 12C147 7.032 151.032 3 156 3V7.95C153.763 7.95 151.95 9.7635 151.95 12C151.95 14.2365 153.763 16.05 156 16.05C157.363 16.05 158.565 15.3795 159.298 14.3445Z" fill="url(#paint3_linear)"/>
<path d="M165 12C165 16.9725 160.973 21 156 21H155.622L159.299 14.3445C159.771 13.683 160.05 12.873 160.05 12C160.05 9.7635 158.237 7.95 156 7.95V3C159.515 3 162.548 5.016 164.033 7.95C164.645 9.1695 165 10.542 165 12Z" fill="url(#paint4_linear)"/>
<path d="M164.028 7.95H156C153.764 7.95 151.95 9.7635 151.95 12C151.95 12.6705 152.112 13.3005 152.405 13.8585H152.4L148.422 7.167H148.413C150.006 4.6605 152.81 3 156 3C159.51 3 162.548 5.016 164.028 7.95Z" fill="url(#paint5_linear)"/>
<path d="M159.15 11.9996C159.15 13.7398 157.74 15.1496 156 15.1496C154.259 15.1496 152.85 13.7398 152.85 11.9996C152.85 10.2595 154.259 8.84961 156 8.84961C157.74 8.84961 159.15 10.2595 159.15 11.9996Z" fill="url(#paint6_linear)"/>
<path d="M156.202 92.5401C156.132 92.4591 156.06 92.3794 156 92.2926C155.941 92.3794 155.869 92.4595 155.798 92.5401C155.865 92.5446 155.932 92.55 156 92.55C156.069 92.55 156.135 92.5446 156.202 92.5401ZM155.682 88.8636C155.803 88.9851 155.907 89.1169 156 89.2533C156.094 89.1169 156.197 88.9851 156.318 88.8636L158.545 86.6361C158.591 86.5906 158.643 86.5587 158.69 86.5173C158.597 85.1119 157.43 84 156 84C154.57 84 153.404 85.1119 153.31 86.5173C153.357 86.5587 153.409 86.5906 153.455 86.6361L155.682 88.8636Z" fill="#FFB74D"/>
<path d="M155.798 93.4596C155.868 93.5411 155.94 93.6203 156 93.7076C156.059 93.6212 156.131 93.5411 156.202 93.4596C156.135 93.4556 156.068 93.4502 156 93.4502C155.931 93.4502 155.865 93.4556 155.798 93.4596ZM156.318 97.1361C156.196 97.0146 156.093 96.8832 156 96.7469C155.906 96.8841 155.802 97.0155 155.681 97.1361L153.454 99.3641C153.408 99.4091 153.356 99.4415 153.309 99.4829C153.403 100.888 154.57 102 156 102C157.429 102 158.596 100.888 158.69 99.4829C158.643 99.4415 158.59 99.4091 158.545 99.3641L156.318 97.1361Z" fill="#64B5F6"/>
<path d="M151.864 93.3177C151.985 93.1962 152.116 93.0927 152.253 92.9996C152.117 92.906 151.985 92.8025 151.864 92.6814L149.636 90.4539C149.591 90.4085 149.559 90.3563 149.517 90.3086C148.112 90.4031 147 91.5699 147 92.9996C147 94.4292 148.112 95.5961 149.517 95.6901C149.559 95.6433 149.591 95.5902 149.636 95.5452L151.864 93.3177ZM155.54 92.7975C155.459 92.8682 155.379 92.9402 155.293 92.9996C155.379 93.059 155.46 93.131 155.54 93.2016C155.545 93.1346 155.55 93.068 155.55 92.9996C155.55 92.9312 155.545 92.8646 155.54 92.7975Z" fill="#F48FB1"/>
<path d="M156.45 93.0001C156.45 93.0685 156.456 93.1351 156.46 93.2022C156.541 93.1315 156.62 93.0595 156.708 93.0001C156.621 92.9407 156.541 92.8687 156.46 92.7981C156.456 92.8651 156.45 92.9317 156.45 93.0001ZM165 93.0001C165 91.5705 163.888 90.4036 162.483 90.3096C162.441 90.3568 162.409 90.4095 162.364 90.4549L160.136 92.6824C160.015 92.8039 159.883 92.9074 159.747 93.0006C159.884 93.0942 160.016 93.1977 160.136 93.3187L162.364 95.5458C162.409 95.5917 162.441 95.6439 162.483 95.6911C163.888 95.5966 165 94.4298 165 93.0001Z" fill="#8BC34A"/>
<path d="M158.7 89.8493C158.7 90.0194 158.683 90.1854 158.653 90.347C158.814 90.3168 158.98 90.2993 159.15 90.2993H162.3C162.362 90.2993 162.422 90.3047 162.483 90.3087C163.405 89.2481 163.373 87.6447 162.364 86.6354C161.354 85.6265 159.751 85.5941 158.69 86.5166C158.695 86.5773 158.7 86.6376 158.7 86.6993V89.8493ZM156.46 92.7972C156.468 92.6969 156.48 92.5983 156.497 92.5016C156.401 92.52 156.302 92.5317 156.202 92.5394C156.243 92.5857 156.274 92.637 156.318 92.6811C156.362 92.7252 156.414 92.7567 156.46 92.7972Z" fill="#C0CA33"/>
<path d="M156.318 88.8639C156.197 88.9854 156.093 89.1172 156 89.2536C156.625 90.1684 156.625 91.3785 156 92.2929C156.059 92.3797 156.131 92.4598 156.202 92.5404C156.302 92.5327 156.4 92.521 156.497 92.5026C156.701 91.4113 157.56 90.5518 158.651 90.3484C158.682 90.1864 158.7 90.0204 158.7 89.8503V86.7003C158.7 86.6386 158.695 86.5783 158.691 86.5176C158.644 86.559 158.591 86.5909 158.546 86.6364L156.318 88.8639Z" fill="#F9A825"/>
<path d="M159.15 90.2998C158.98 90.2998 158.814 90.3174 158.653 90.3475C158.449 91.4388 157.59 92.2983 156.499 92.5017C156.48 92.5984 156.469 92.6974 156.461 92.7973C156.542 92.868 156.621 92.94 156.708 92.9994C157.623 92.3743 158.834 92.3743 159.748 92.9994C159.885 92.9058 160.016 92.8023 160.137 92.6812L162.364 90.4537C162.41 90.4083 162.442 90.3561 162.484 90.3084C162.422 90.3052 162.362 90.2998 162.3 90.2998H159.15Z" fill="#689F38"/>
<path d="M158.652 90.3477C157.56 90.5511 156.701 91.4106 156.498 92.5018C157.588 92.2984 158.448 91.4394 158.652 90.3477Z" fill="#827717"/>
<path d="M153.3 96.1491C153.3 95.9786 153.318 95.813 153.348 95.6519C153.187 95.6816 153.021 95.6991 152.85 95.6991H149.7C149.639 95.6991 149.578 95.6937 149.518 95.6897C148.595 96.7503 148.627 98.3546 149.637 99.3635C150.645 100.372 152.249 100.404 153.31 99.4823C153.306 99.4211 153.3 99.3608 153.3 99.2991V96.1491ZM155.541 93.2012C155.533 93.3015 155.521 93.3996 155.503 93.4964C155.599 93.4788 155.698 93.4667 155.798 93.4586C155.758 93.4122 155.726 93.3609 155.682 93.3173C155.638 93.2736 155.587 93.2417 155.541 93.2012Z" fill="#BA68C8"/>
<path d="M155.682 97.1365C155.803 97.015 155.907 96.8836 156 96.7472C155.375 95.8333 155.375 94.6228 156 93.7079C155.94 93.6215 155.868 93.5414 155.798 93.46C155.697 93.4681 155.599 93.4802 155.502 93.4978C155.299 94.5895 154.439 95.449 153.348 95.6519C153.317 95.8144 153.3 95.98 153.3 96.1505V99.3005C153.3 99.3622 153.305 99.4225 153.309 99.4832C153.357 99.4418 153.409 99.4094 153.455 99.3644L155.682 97.1365Z" fill="#5C6BC0"/>
<path d="M152.85 95.7001C153.02 95.7001 153.186 95.6825 153.347 95.6528C153.551 94.5611 154.41 93.7016 155.502 93.4987C155.52 93.4019 155.532 93.3025 155.539 93.203C155.458 93.1324 155.379 93.0604 155.292 93.001C154.378 93.6265 153.167 93.6265 152.253 93.001C152.116 93.0946 151.984 93.1981 151.863 93.3191L149.635 95.5462C149.59 95.5921 149.558 95.6443 149.517 95.6915C149.578 95.6947 149.638 95.7001 149.7 95.7001H152.85Z" fill="#D81B60"/>
<path d="M153.348 95.6522C154.439 95.4484 155.298 94.5893 155.502 93.498C154.411 93.701 153.552 94.5605 153.348 95.6522Z" fill="#880E4F"/>
<path d="M155.798 92.5395C155.698 92.5319 155.599 92.5202 155.503 92.5017C155.521 92.5985 155.533 92.6975 155.541 92.7974C155.587 92.7569 155.638 92.7254 155.682 92.6813C155.726 92.6372 155.758 92.5859 155.798 92.5395ZM152.85 90.2994C153.021 90.2994 153.187 90.317 153.348 90.3471C153.318 90.1856 153.3 90.0195 153.3 89.8494V86.6994C153.3 86.6378 153.306 86.5775 153.31 86.5167C152.249 85.5942 150.646 85.6262 149.637 86.6355C148.627 87.6449 148.595 89.2478 149.518 90.3089C149.578 90.3048 149.639 90.2994 149.7 90.2994H152.85Z" fill="#FF5252"/>
<path d="M153.3 89.8498C153.3 90.0199 153.317 90.1859 153.348 90.3475C154.439 90.5509 155.298 91.4104 155.502 92.5016C155.598 92.5201 155.697 92.5318 155.797 92.5394C155.868 92.4584 155.94 92.3788 155.999 92.2919C155.374 91.3775 155.374 90.1675 155.999 89.2526C155.906 89.1163 155.802 88.9844 155.681 88.8629L153.454 86.6354C153.408 86.59 153.356 86.558 153.308 86.5166C153.305 86.5778 153.3 86.6381 153.3 86.6998V89.8498Z" fill="#EF6C00"/>
<path d="M151.864 92.6817C151.985 92.8032 152.117 92.9067 152.254 92.9998C153.168 92.3748 154.378 92.3748 155.293 92.9998C155.38 92.9404 155.46 92.8684 155.54 92.7978C155.533 92.6974 155.521 92.5989 155.503 92.5021C154.411 92.2987 153.552 91.4392 153.348 90.348C153.186 90.3174 153.02 90.2998 152.85 90.2998H149.7C149.639 90.2998 149.578 90.3052 149.518 90.3093C149.559 90.3565 149.591 90.4092 149.636 90.4546L151.864 92.6817Z" fill="#F44336"/>
<path d="M153.348 90.3477C153.551 91.4389 154.411 92.2984 155.502 92.5018C155.298 91.4106 154.439 90.5515 153.348 90.3477Z" fill="#DD2C00"/>
<path d="M156 89.2529C155.375 90.1678 155.375 91.3778 156 92.2922C156.625 91.3778 156.625 90.1678 156 89.2529Z" fill="#E65100"/>
<path d="M152.253 93C153.168 93.6251 154.378 93.6251 155.292 93C154.378 92.375 153.168 92.375 152.253 93Z" fill="#B71C1C"/>
<path d="M159.15 95.6991C158.98 95.6991 158.814 95.6816 158.653 95.6519C158.683 95.813 158.7 95.9786 158.7 96.1491V99.2991C158.7 99.3608 158.695 99.4211 158.691 99.4818C159.751 100.404 161.356 100.372 162.364 99.363C163.373 98.3532 163.405 96.7499 162.483 95.6892C162.422 95.6937 162.362 95.6991 162.3 95.6991H159.15ZM156.202 93.4586C156.302 93.4667 156.401 93.4788 156.497 93.4964C156.48 93.3996 156.468 93.3006 156.46 93.2012C156.413 93.2417 156.362 93.2732 156.318 93.3173C156.275 93.3614 156.243 93.4127 156.202 93.4586Z" fill="#00ACC1"/>
<path d="M158.7 96.1501C158.7 95.9796 158.683 95.814 158.653 95.6529C157.561 95.449 156.702 94.59 156.499 93.4987C156.402 93.4803 156.302 93.4686 156.203 93.4609C156.132 93.5419 156.06 93.6211 156.001 93.7084C156.626 94.6228 156.626 95.8338 156.001 96.7477C156.095 96.885 156.198 97.0164 156.319 97.1374L158.546 99.3645C158.592 99.4099 158.644 99.4419 158.692 99.4837C158.695 99.4221 158.7 99.3618 158.7 99.3001V96.1501Z" fill="#0277BD"/>
<path d="M160.135 93.3182C160.014 93.1967 159.883 93.0932 159.746 93C158.832 93.6251 157.622 93.6251 156.707 93C156.621 93.0594 156.54 93.1314 156.459 93.202C156.467 93.3024 156.479 93.4005 156.497 93.4972C157.588 93.7011 158.448 94.5602 158.651 95.6514C158.813 95.6825 158.979 95.7 159.15 95.7H162.3C162.361 95.7 162.421 95.6946 162.482 95.6906C162.441 95.6438 162.408 95.5907 162.363 95.5457L160.135 93.3182Z" fill="#00796B"/>
<path d="M158.652 95.6522C158.448 94.5605 157.589 93.701 156.498 93.498C156.701 94.5884 157.56 95.4479 158.652 95.6522Z" fill="#006064"/>
<path d="M156.707 93C157.622 93.6251 158.832 93.6251 159.746 93C158.832 92.375 157.622 92.375 156.707 93Z" fill="#1B5E20"/>
<path d="M156 96.7463C156.625 95.8324 156.625 94.6219 156 93.707C155.375 94.6219 155.375 95.8324 156 96.7463Z" fill="#0D47A1"/>
<path d="M252 2.5C247.026 2.5 243 6.33684 243 11.0263C243 13.4895 244.089 15.6684 245.842 17.2316V21.4474L249.537 19.2211C250.295 19.4105 251.147 19.5526 252 19.5526C256.974 19.5526 261 15.7158 261 11.0263C261 6.33684 256.974 2.5 252 2.5Z" fill="#448AFF"/>
<path d="M246.316 13.8687L251.053 8.6582L253.422 11.0266L257.685 8.6582L252.948 13.8687L250.58 11.5003L246.316 13.8687Z" fill="white"/>
<path d="M204 43.0508C202.813 43.0508 199.199 43.0508 197.201 44.8751C196.011 46.0604 195.45 47.7731 195.45 50.2508V51.6008C195.45 54.0785 196.011 55.7912 197.215 56.99C197.814 57.5367 198.631 57.9737 199.63 58.2756L199.95 58.3719V60.7695C199.95 61.0508 200.032 61.0508 200.059 61.0508C200.114 61.0508 200.203 61.0332 200.371 60.8838C200.411 60.8438 200.708 60.5225 202.153 58.9043L202.299 58.7409L202.517 58.7549C203.001 58.785 203.5 58.8008 204 58.8008C205.188 58.8008 208.802 58.8008 210.8 56.976C211.989 55.7907 212.55 54.078 212.55 51.6008V50.2508C212.55 47.7731 211.989 46.0604 210.786 44.8616C208.802 43.0508 205.188 43.0508 204 43.0508Z" fill="white"/>
<path d="M208.254 53.7853C207.754 53.3641 207.523 53.2367 206.832 52.8223C206.545 52.6499 206.107 52.501 205.877 52.501C205.72 52.501 205.532 52.6211 205.416 52.7363C205.121 53.0315 205.024 53.401 204.507 53.401C204.001 53.401 203.116 52.8857 202.482 52.2197C201.816 51.5852 201.301 50.701 201.301 50.1947C201.301 49.6772 201.663 49.5737 201.959 49.2781C202.074 49.1633 202.201 48.9752 202.201 48.8182C202.201 48.5882 202.052 48.1567 201.879 47.8691C201.465 47.1784 201.338 46.9475 200.916 46.448C200.774 46.2788 200.611 46.2014 200.441 46.201C200.154 46.2005 199.776 46.3432 199.52 46.5335C199.136 46.8202 198.734 47.2103 198.627 47.6963C198.612 47.7625 198.604 47.8291 198.601 47.8957C198.58 48.4019 198.779 48.9158 198.994 49.351C199.499 50.3765 200.168 51.3692 200.896 52.2557C201.128 52.5392 201.382 52.8029 201.644 53.0576C201.899 53.3195 202.162 53.5729 202.446 53.806C203.332 54.5336 204.325 55.2023 205.351 55.7077C205.782 55.9201 206.289 56.1154 206.791 56.101C206.862 56.0987 206.934 56.0906 207.005 56.0749C207.491 55.9678 207.881 55.5655 208.168 55.1812C208.358 54.9256 208.501 54.5485 208.501 54.2605C208.5 54.0904 208.423 53.9279 208.254 53.7853ZM208.501 51.601C208.252 51.601 208.051 51.3994 208.051 51.151V50.701C208.051 48.4681 206.234 46.651 204.001 46.651C203.752 46.651 203.551 46.4494 203.551 46.201C203.551 45.9526 203.752 45.751 204.001 45.751C206.73 45.751 208.951 47.9717 208.951 50.701V51.151C208.951 51.3994 208.749 51.601 208.501 51.601ZM205.737 50.701C205.537 50.701 205.354 50.5669 205.302 50.3644C205.178 49.8914 204.809 49.522 204.338 49.4005C204.097 49.3379 203.953 49.0927 204.015 48.8519C204.077 48.6116 204.322 48.4672 204.564 48.5288C205.35 48.7327 205.967 49.3487 206.172 50.1371C206.235 50.3779 206.091 50.6231 205.851 50.6861C205.812 50.696 205.774 50.701 205.737 50.701Z" fill="#7E57C2"/>
<path d="M207.15 51.1514C206.902 51.1514 206.7 50.9498 206.7 50.7014C206.7 49.2668 205.578 48.0833 204.145 48.0077C203.897 47.9947 203.706 47.7827 203.719 47.5348C203.732 47.2864 203.948 47.0956 204.192 47.1091C206.103 47.2099 207.6 48.788 207.6 50.7014C207.6 50.9498 207.399 51.1514 207.15 51.1514Z" fill="#7E57C2"/>
<path d="M204 42.6006C201.975 42.6006 198.82 42.7869 196.897 44.5428C195.538 45.8959 195 47.794 195 50.2506C195 50.454 194.999 50.6808 195.001 50.9256C194.999 51.1699 195 51.3967 195 51.6001C195 54.0567 195.538 55.9548 196.897 57.3079C197.629 57.9762 198.542 58.4158 199.5 58.7056V60.7693C199.5 61.4875 199.972 61.5006 200.059 61.5006H200.063C200.285 61.4997 200.477 61.3908 200.67 61.2198C200.742 61.1554 201.579 60.223 202.489 59.2033C203.03 59.238 203.545 59.2506 204 59.2506C206.025 59.2506 209.18 59.0638 211.103 57.3079C212.461 55.9552 213 54.0567 213 51.6001C213 51.3967 213.001 51.1699 212.999 50.9251C213.001 50.6803 213 50.454 213 50.2501C213 47.7936 212.462 45.8955 211.103 44.5423C209.18 42.7869 206.025 42.6006 204 42.6006ZM211.65 51.4435V51.6001C211.65 53.8078 211.18 55.3122 210.172 56.3305C208.425 57.9006 205.097 57.9006 204 57.9006C203.666 57.9006 203.124 57.9001 202.485 57.8556C202.307 58.0554 200.4 60.1879 200.4 60.1879V57.5496C199.453 57.3223 198.518 56.9497 197.829 56.331C196.82 55.3122 196.35 53.8078 196.35 51.6001V51.4435C196.35 51.2856 196.35 51.115 196.351 50.9157C196.35 50.7357 196.35 50.5656 196.35 50.4072V50.2506C196.35 48.0429 196.82 46.5385 197.829 45.5202C199.575 43.9501 202.904 43.9501 204 43.9501C205.097 43.9501 208.425 43.9501 210.171 45.5202C211.18 46.5385 211.65 48.0429 211.65 50.2506V50.4072C211.65 50.5651 211.65 50.7357 211.649 50.935C211.65 51.1155 211.65 51.2856 211.65 51.4435Z" fill="#7E57C2"/>
<path d="M209.006 20.9905L199.011 21C196.813 21.002 195.012 19.2049 195.009 17.0061L195 7.01138C194.998 4.81254 196.795 3.012 198.994 3.0095L208.989 3C211.187 2.998 212.988 4.79505 212.99 6.99389L213 16.9886C213.002 19.188 211.205 20.9885 209.006 20.9905Z" fill="url(#paint7_linear)"/>
<path d="M204.001 18.5045C204.435 18.5045 205.194 18.3435 205.748 18.067C206.623 17.6295 207.502 17.6295 207.94 17.6295C208.377 17.6295 208.377 16.754 208.377 16.754C209.073 16.627 209.455 16.425 209.836 16.1065C210.101 15.884 210.039 15.564 209.735 15.3985C208.284 14.607 207.498 12.502 207.498 12.502L209.18 11.45C209.457 11.2425 209.57 10.881 209.461 10.5525C209.32 10.131 208.864 9.90345 208.443 10.0445L207.5 10.43V9.04895C207.5 7.11695 205.934 5.50195 204.002 5.50195H204C202.068 5.50195 200.502 7.11695 200.502 9.04895V10.4305L199.558 10.045C199.137 9.90395 198.681 10.1315 198.541 10.553C198.431 10.881 198.544 11.2425 198.821 11.4505L200.503 12.5025C200.503 12.5025 199.718 14.607 198.266 15.399C197.962 15.5645 197.9 15.885 198.166 16.107C198.546 16.4255 198.929 16.6275 199.624 16.7545C199.624 16.7545 199.624 17.63 200.062 17.63C200.499 17.63 201.378 17.63 202.254 18.0675C202.807 18.3435 203.567 18.5045 204.001 18.5045Z" fill="white"/>
<path d="M99.4482 60.5526L100.657 56.1603C99.9111 54.8749 99.5191 53.4163 99.5196 51.9224C99.5218 47.2487 103.341 43.4463 108.035 43.4463C110.313 43.4472 112.451 44.3301 114.059 45.9321C115.666 47.5345 116.552 49.6639 116.551 51.9291C116.549 56.6028 112.728 60.4057 108.035 60.4057C108.035 60.4057 108.035 60.4057 108.035 60.4057H108.032C106.607 60.4053 105.206 60.0493 103.962 59.3736L99.4482 60.5526Z" fill="white"/>
<path d="M99.4487 60.7766C99.3895 60.7766 99.3321 60.7534 99.2894 60.7105C99.2334 60.6538 99.2114 60.5711 99.2325 60.4948L100.416 56.1913C99.6823 54.8934 99.2953 53.4196 99.2962 51.9235C99.298 47.1261 103.218 43.2236 108.036 43.2236C110.372 43.2245 112.568 44.1307 114.218 45.7751C115.868 47.4199 116.776 49.6056 116.775 51.9298C116.773 56.7268 112.853 60.6297 108.036 60.6297C106.605 60.6292 105.19 60.2777 103.935 59.6127L99.5056 60.769C99.4868 60.7744 99.468 60.7766 99.4487 60.7766Z" fill="white"/>
<path d="M108.036 43.4466C110.314 43.4475 112.451 44.3304 114.059 45.9324C115.667 47.5348 116.552 49.6643 116.551 51.9294C116.549 56.6032 112.729 60.406 108.036 60.406H108.032C106.607 60.4056 105.207 60.0496 103.963 59.3739L99.4487 60.5529L100.657 56.1606C99.9115 54.8752 99.5196 53.4166 99.52 51.9227C99.5222 47.249 103.342 43.4466 108.036 43.4466ZM108.036 43C103.095 43 99.0737 47.0025 99.0715 51.9227C99.071 53.4265 99.4523 54.9083 100.175 56.22L99.0159 60.4355C98.9737 60.5896 99.0168 60.7539 99.1298 60.8674C99.215 60.9531 99.3303 61 99.4487 61C99.4868 61 99.5249 60.9951 99.5626 60.9853L103.907 59.8509C105.176 60.5065 106.597 60.8526 108.032 60.8531C112.976 60.8531 116.998 56.8501 117 51.9299C117.001 49.5455 116.069 47.3035 114.377 45.6171C112.684 43.9303 110.432 43.0009 108.036 43Z" fill="#CFD8DC"/>
<path d="M113.042 46.9449C111.705 45.6131 109.928 44.8794 108.038 44.8789C104.134 44.8789 100.959 48.0391 100.957 51.9237C100.957 53.255 101.331 54.5511 102.039 55.6734L102.208 55.94L101.493 58.5397L104.171 57.8403L104.43 57.993C105.517 58.6353 106.762 58.9747 108.033 58.9751H108.035C111.936 58.9751 115.111 55.8145 115.113 51.9295C115.113 50.047 114.378 48.2767 113.042 46.9449Z" fill="#40C351"/>
<path fill-rule="evenodd" clip-rule="evenodd" d="M105.907 48.3799C105.748 48.0271 105.58 48.02 105.428 48.0137C105.304 48.0084 105.162 48.0088 105.02 48.0088C104.879 48.0088 104.648 48.0619 104.453 48.2741C104.258 48.4862 103.708 48.9985 103.708 50.0409C103.708 51.0832 104.47 52.0908 104.577 52.2319C104.683 52.373 106.049 54.5806 108.211 55.43C110.009 56.1357 110.375 55.9954 110.765 55.9602C111.155 55.9249 112.024 55.4479 112.201 54.9531C112.378 54.4582 112.378 54.0344 112.325 53.946C112.272 53.8575 112.13 53.8048 111.917 53.6986C111.705 53.5923 110.658 53.08 110.463 53.0094C110.268 52.9389 110.127 52.9036 109.984 53.1157C109.843 53.3274 109.435 53.8048 109.311 53.946C109.186 54.0875 109.062 54.1054 108.85 53.9991C108.637 53.8928 107.952 53.6695 107.139 52.9478C106.506 52.3864 106.079 51.6928 105.955 51.4807C105.831 51.269 105.942 51.1542 106.048 51.0484C106.144 50.9533 106.261 50.801 106.368 50.6773C106.474 50.5536 106.509 50.4651 106.58 50.324C106.651 50.1824 106.616 50.0587 106.562 49.9529C106.51 49.8466 106.096 48.7988 105.907 48.3799Z" fill="white"/>
<path d="M162.453 43H149.547C148.14 43 147 44.1401 147 45.5466V58.453C147 59.8599 148.14 61 149.547 61H162.453C163.86 61 165 59.8599 165 58.4534V45.5466C165 44.1401 163.86 43 162.453 43Z" fill="url(#paint8_linear)"/>
<path d="M158.864 55.1841C158.864 55.459 158.641 55.682 158.366 55.682H151.023C150.157 55.682 149.455 54.9755 149.455 54.1041V48.8162C149.455 48.5413 149.678 48.3184 149.953 48.3184H157.296C158.162 48.3184 158.864 49.0249 158.864 49.8962V55.1841Z" fill="white"/>
<path d="M162.378 55.3112L159.853 53.6884C159.746 53.6197 159.682 53.501 159.682 53.3738V50.6263C159.682 50.4991 159.746 50.3805 159.853 50.3117L162.378 48.6889C162.627 48.5289 162.954 48.7077 162.954 49.0035V54.9962C162.954 55.2924 162.627 55.4712 162.378 55.3112Z" fill="white"/>
<path d="M66.5446 51.3157C66.4923 48.5412 64.219 46.2998 61.4318 46.2998C59.7374 46.2998 58.1935 47.1151 57.2366 48.4978C56.9408 48.3964 56.6332 48.3453 56.3182 48.3453C54.971 48.3453 53.8158 49.2886 53.5261 50.5801C52.026 51.0739 51 52.4738 51 54.0725C51 56.1028 52.6519 57.7543 54.6818 57.7543H65.7273C67.5318 57.7543 69 56.2861 69 54.4816C69 52.9839 67.9675 51.6826 66.5446 51.3157Z" fill="#468CDF"/>
<defs>
<radialGradient id="paint0_radial" cx="0" cy="0" r="1" gradientUnits="userSpaceOnUse" gradientTransform="translate(204.178 100.327) scale(17.4891)">
<stop stop-color="#FE7356"/>
<stop offset="1" stop-color="#FD297C"/>
</radialGradient>
<radialGradient id="paint1_radial" cx="0" cy="0" r="1" gradientUnits="userSpaceOnUse" gradientTransform="translate(9.69147 61.013) scale(22.4377)">
<stop stop-color="#FFDD55"/>
<stop offset="0.328" stop-color="#FF543F"/>
<stop offset="0.348" stop-color="#FC5245"/>
<stop offset="0.504" stop-color="#E64771"/>
<stop offset="0.643" stop-color="#D53E91"/>
<stop offset="0.761" stop-color="#CC39A4"/>
<stop offset="0.841" stop-color="#C837AB"/>
</radialGradient>
<radialGradient id="paint2_radial" cx="0" cy="0" r="1" gradientUnits="userSpaceOnUse" gradientTransform="translate(5.89312 42.7693) scale(14.9065 9.9322)">
<stop stop-color="#4168C9"/>
<stop offset="0.999" stop-color="#4168C9" stop-opacity="0"/>
</radialGradient>
<linearGradient id="paint3_linear" x1="147.805" y1="8.2398" x2="159.296" y2="14.3494" gradientUnits="userSpaceOnUse">
<stop stop-color="#4CAF50"/>
<stop offset="0.489" stop-color="#4AAF50"/>
<stop offset="0.665" stop-color="#43AD50"/>
<stop offset="0.79" stop-color="#38AA50"/>
<stop offset="0.892" stop-color="#27A550"/>
<stop offset="0.978" stop-color="#11A050"/>
<stop offset="1" stop-color="#0A9E50"/>
</linearGradient>
<linearGradient id="paint4_linear" x1="160.311" y1="21" x2="160.311" y2="8.04135" gradientUnits="userSpaceOnUse">
<stop stop-color="#FFD747"/>
<stop offset="0.482" stop-color="#FFD645"/>
<stop offset="0.655" stop-color="#FED43E"/>
<stop offset="0.779" stop-color="#FCCF33"/>
<stop offset="0.879" stop-color="#FAC922"/>
<stop offset="0.964" stop-color="#F7C10C"/>
<stop offset="1" stop-color="#F5BC00"/>
</linearGradient>
<linearGradient id="paint5_linear" x1="161.458" y1="3.76635" x2="150.408" y2="10.6707" gradientUnits="userSpaceOnUse">
<stop stop-color="#F7572F"/>
<stop offset="0.523" stop-color="#F7552D"/>
<stop offset="0.712" stop-color="#F75026"/>
<stop offset="0.846" stop-color="#F7461B"/>
<stop offset="0.954" stop-color="#F7390A"/>
<stop offset="1" stop-color="#F73100"/>
</linearGradient>
<linearGradient id="paint6_linear" x1="153.772" y1="9.77211" x2="158.227" y2="14.2271" gradientUnits="userSpaceOnUse">
<stop stop-color="#2AA4F4"/>
<stop offset="1" stop-color="#007AD9"/>
</linearGradient>
<linearGradient id="paint7_linear" x1="202.302" y1="2.36584" x2="205.699" y2="21.6347" gradientUnits="userSpaceOnUse">
<stop stop-color="#FEDE00"/>
<stop offset="1" stop-color="#FFD000"/>
</linearGradient>
<linearGradient id="paint8_linear" x1="156" y1="63.2586" x2="156" y2="45.2586" gradientUnits="userSpaceOnUse">
<stop stop-color="#155CDE"/>
<stop offset="0.278" stop-color="#1F7FE5"/>
<stop offset="0.569" stop-color="#279CEB"/>
<stop offset="0.82" stop-color="#2CAFEF"/>
<stop offset="1" stop-color="#2EB5F0"/>
</linearGradient>
<clipPath id="clip0">
<rect width="24" height="24" fill="white" transform="translate(48)"/>
</clipPath>
</defs>
</svg>
