<svg width="50" height="50" viewBox="0 0 50 50" fill="none" xmlns="http://www.w3.org/2000/svg">
<path d="M39.7916 43.0504C41.3767 43.0504 42.6666 41.7605 42.6666 40.1754V33.4671C42.6666 31.882 41.3767 30.5921 39.7916 30.5921C37.5491 30.5921 35.345 30.2394 33.2366 29.5437C32.7327 29.3845 32.1949 29.3652 31.6808 29.4877C31.1667 29.6103 30.6956 29.8701 30.3175 30.2394L27.5575 32.9994C22.7872 30.4097 18.8694 26.4932 16.278 21.7237L19.015 18.9694C19.8046 18.2373 20.0883 17.1237 19.751 16.0523C19.0566 13.9407 18.7046 11.7316 18.7083 9.50878C18.7083 7.9237 17.4184 6.63379 15.8333 6.63379H9.125C7.53991 6.63379 6.25 7.9237 6.25 9.50878C6.25 28.0046 21.2958 43.0504 39.7916 43.0504ZM9.125 8.55045H15.8333C16.0875 8.55045 16.3312 8.65142 16.511 8.83114C16.6907 9.01086 16.7916 9.25462 16.7916 9.50878C16.7916 11.9564 17.175 14.3599 17.9282 16.6388C17.9836 16.8041 17.99 16.982 17.9469 17.1509C17.9037 17.3199 17.8127 17.4728 17.6848 17.5914L13.9358 21.3595C17.0734 27.5465 21.7079 32.181 27.9236 35.3454L31.6592 31.6079C31.7867 31.4818 31.946 31.3927 32.1202 31.3501C32.2945 31.3076 32.477 31.3132 32.6482 31.3664C34.9405 32.1254 37.344 32.5087 39.7916 32.5087C40.3187 32.5087 40.7499 32.94 40.7499 33.4671V40.1754C40.7499 40.7025 40.3187 41.1337 39.7916 41.1337C22.3538 41.1337 8.16666 26.9466 8.16666 9.50878C8.16666 9.25462 8.26763 9.01086 8.44735 8.83114C8.62707 8.65142 8.87083 8.55045 9.125 8.55045Z" fill="#0048B5"/>
<path fill-rule="evenodd" clip-rule="evenodd" d="M29.6438 14.6057C28.6921 14.4153 27.7166 14.4072 26.7682 14.578L26.4082 12.5362C26.5767 12.506 26.7458 12.4803 26.9155 12.459C27.9555 12.3284 29.0141 12.3654 30.0504 12.5727C31.7485 12.9123 33.3259 13.6969 34.6212 14.8462C35.9165 15.9956 36.8832 17.4684 37.4225 19.114C37.7325 20.0599 37.8948 21.0434 37.9078 22.0303H35.8343C35.8215 21.2618 35.6937 20.4962 35.4523 19.7596C35.0274 18.463 34.2657 17.3026 33.2452 16.397C32.2246 15.4915 30.9817 14.8733 29.6438 14.6057Z" fill="#0048B5"/>
<path fill-rule="evenodd" clip-rule="evenodd" d="M31.0619 8.6977C29.3186 8.34903 27.5316 8.33398 25.7944 8.64633L25.417 6.50583C27.4194 6.14674 29.4789 6.16454 31.4881 6.56641C34.3183 7.13245 36.9472 8.44015 39.1061 10.3557C41.2649 12.2713 42.8762 14.726 43.775 17.4686C44.2916 19.0451 44.5622 20.6842 44.5837 22.329H42.41C42.3886 20.9132 42.1543 19.5026 41.7095 18.1455C40.9306 15.7687 39.5344 13.6415 37.6635 11.9815C35.7927 10.3215 33.5144 9.18823 31.0619 8.6977Z" fill="#0048B5"/>
</svg>
