<svg width="40" height="40" viewBox="0 0 40 40" fill="none" xmlns="http://www.w3.org/2000/svg">
<path d="M31.8333 34.4399C33.1014 34.4399 34.1333 33.408 34.1333 32.1399V26.7733C34.1333 25.5052 33.1014 24.4733 31.8333 24.4733C30.0393 24.4733 28.276 24.1911 26.5893 23.6345C26.1861 23.5072 25.756 23.4918 25.3447 23.5898C24.9334 23.6878 24.5564 23.8957 24.254 24.1911L22.046 26.3991C18.2297 24.3273 15.0955 21.1941 13.0224 17.3786L15.212 15.1752C15.8437 14.5894 16.0707 13.6986 15.8008 12.8414C15.2453 11.1522 14.9637 9.38489 14.9667 7.60664C14.9667 6.33857 13.9347 5.30664 12.6667 5.30664H7.3C6.03193 5.30664 5 6.33857 5 7.60664C5 22.4033 17.0366 34.4399 31.8333 34.4399ZM7.3 6.83997H12.6667C12.87 6.83997 13.065 6.92075 13.2088 7.06452C13.3525 7.2083 13.4333 7.4033 13.4333 7.60664C13.4333 9.5647 13.74 11.4875 14.3426 13.3106C14.3869 13.4429 14.392 13.5852 14.3575 13.7204C14.323 13.8555 14.2502 13.9779 14.1479 14.0727L11.1487 17.0872C13.6587 22.0368 17.3663 25.7444 22.3389 28.2759L25.3274 25.2859C25.4293 25.185 25.5568 25.1138 25.6962 25.0797C25.8356 25.0457 25.9816 25.0502 26.1186 25.0927C27.9524 25.6999 29.8752 26.0066 31.8333 26.0066C32.255 26.0066 32.6 26.3516 32.6 26.7733V32.1399C32.6 32.5616 32.255 32.9066 31.8333 32.9066C17.883 32.9066 6.53333 21.5569 6.53333 7.60664C6.53333 7.4033 6.6141 7.2083 6.75788 7.06452C6.90166 6.92075 7.09666 6.83997 7.3 6.83997Z" fill="#00AE71"/>
<path fill-rule="evenodd" clip-rule="evenodd" d="M23.7154 11.6846C22.954 11.5324 22.1736 11.5259 21.4148 11.6625L21.1268 10.0291C21.3967 9.98073 21.6687 9.94661 21.9418 9.92682C22.6411 9.87615 23.3471 9.91953 24.0407 10.0582C25.3992 10.3299 26.6611 10.9576 27.6973 11.8771C28.7336 12.7966 29.507 13.9748 29.9384 15.2913C30.1586 15.9634 30.2857 16.6593 30.3186 17.3597C30.3228 17.4478 30.3254 17.536 30.3266 17.6242H28.6678C28.6576 17.0095 28.5554 16.3971 28.3622 15.8078C28.0223 14.7706 27.413 13.8422 26.5965 13.1177C25.78 12.3933 24.7858 11.8987 23.7154 11.6846Z" fill="#00AE71"/>
<path fill-rule="evenodd" clip-rule="evenodd" d="M24.8493 6.95816C23.4546 6.67921 22.025 6.66719 20.6352 6.91708L20.3333 5.20469L20.3404 5.2034C21.9401 4.91743 23.5852 4.9321 25.1903 5.25313C27.4544 5.70596 29.5576 6.75212 31.2846 8.28457C33.0117 9.81703 34.3007 11.7808 35.0197 13.9749C35.433 15.2361 35.6495 16.5474 35.6667 17.8632H33.9278C33.9106 16.7306 33.7232 15.602 33.3674 14.5164C32.7443 12.615 31.6273 10.9132 30.1306 9.58519C28.6339 8.25718 26.8113 7.35059 24.8493 6.95816Z" fill="#00AE71"/>
</svg>
