<svg width="33" height="32" viewBox="0 0 33 32" fill="none" xmlns="http://www.w3.org/2000/svg">
<path d="M8.46389 9.291L9.78971 7.96517C9.90756 7.84732 10.0254 7.84732 10.1433 7.96517L25.6996 23.5215C25.8175 23.6394 25.8175 23.7572 25.6996 23.8751L24.3738 25.2009C24.2559 25.3188 24.1381 25.3188 24.0202 25.2009L8.46389 9.64455C8.34603 9.5267 8.34603 9.40885 8.46389 9.291Z" fill="#2E3C49"/>
<path d="M8.8174 23.1679L23.6666 8.31871C23.7845 8.20086 23.9023 8.20086 24.0202 8.31871L25.346 9.64453C25.4639 9.76238 25.4639 9.88023 25.346 9.99809L10.4968 24.8473C10.3789 24.9652 10.2611 24.9652 10.1432 24.8473L8.8174 23.5215C8.69955 23.4037 8.69955 23.2858 8.8174 23.1679Z" fill="#2E3C49"/>
</svg>
