<svg width="40" height="40" viewBox="0 0 40 40" fill="none" xmlns="http://www.w3.org/2000/svg">
<rect x="5.83333" y="5.83333" width="28.3333" height="28.3333" stroke="#00AE71" stroke-width="1.66667"/>
<line x1="9.16659" y1="5" x2="9.16658" y2="35" stroke="#00AE71" stroke-width="1.66667"/>
<path d="M21.2068 19.5584C20.3452 19.5584 19.6111 19.255 19.0044 18.6483C18.3977 18.0416 18.0943 17.3074 18.0943 16.4459C18.0943 15.5843 18.3977 14.8502 19.0044 14.2435C19.6111 13.6367 20.3452 13.3334 21.2068 13.3334C22.0683 13.3334 22.8025 13.6367 23.4092 14.2435C24.0159 14.8502 24.3193 15.5843 24.3193 16.4459C24.3193 17.3074 24.0159 18.0416 23.4092 18.6483C22.8025 19.255 22.0683 19.5584 21.2068 19.5584ZM21.2068 21.1237C21.9713 21.1237 22.8146 21.2329 23.7368 21.4514C24.6591 21.6698 25.5024 22.0277 26.2669 22.5253C27.0314 23.0228 27.4136 23.587 27.4136 24.218V25.7834H15V24.218C15 23.587 15.3822 23.0228 16.1467 22.5253C16.9112 22.0277 17.7545 21.6698 18.6768 21.4514C19.599 21.2329 20.4423 21.1237 21.2068 21.1237Z" stroke="#00AE71" stroke-width="1.33333"/>
</svg>
