<svg width="24" height="24" viewBox="0 0 24 24" fill="none" xmlns="http://www.w3.org/2000/svg">
<path d="M12.48 21.6007V13.9207H11.04V11.5207H12.48V10.0807C12.48 8.1607 13.44 6.7207 15.36 6.7207C16.7535 6.7207 17.76 7.2007 17.76 7.2007V9.1207H16.8C15.7704 9.1207 15.36 9.36262 15.36 10.0807V11.5207H17.76L17.28 13.9207H15.36V21.6007" stroke="white" stroke-miterlimit="10" stroke-linecap="round"/>
<path d="M4.32039 21.6004H19.6804C20.7407 21.6004 21.6004 20.7407 21.6004 19.6804V4.32039C21.6004 3.26007 20.7407 2.40039 19.6804 2.40039H4.32039C3.26007 2.40039 2.40039 3.26007 2.40039 4.32039V19.6804C2.40039 20.7407 3.26007 21.6004 4.32039 21.6004Z" stroke="white" stroke-miterlimit="10" stroke-linecap="round" stroke-linejoin="round"/>
</svg>
