<svg width="40" height="40" viewBox="0 0 40 40" fill="none" xmlns="http://www.w3.org/2000/svg">
<rect x="7.00049" y="13" width="2" height="2" fill="#00AE71"/>
<rect x="7.00049" y="17" width="2" height="2" fill="#00AE71"/>
<rect x="7.00049" y="21" width="2" height="2" fill="#00AE71"/>
<rect x="22.9995" y="13" width="2" height="2" fill="#00AE71"/>
<rect x="22.9995" y="17" width="2" height="2" fill="#00AE71"/>
<rect x="22.9995" y="21" width="2" height="2" fill="#00AE71"/>
<rect x="10.9995" y="13" width="2" height="2" fill="#00AE71"/>
<rect x="10.9995" y="17" width="2" height="2" fill="#00AE71"/>
<rect x="10.9995" y="21" width="2" height="2" fill="#00AE71"/>
<rect x="27.0005" y="13" width="2" height="2" fill="#00AE71"/>
<rect x="27.0005" y="17" width="2" height="2" fill="#00AE71"/>
<rect x="27.0005" y="21" width="2" height="2" fill="#00AE71"/>
<rect x="15" y="13" width="2" height="2" fill="#00AE71"/>
<rect x="15" y="17" width="2" height="2" fill="#00AE71"/>
<rect x="15" y="21" width="2" height="2" fill="#00AE71"/>
<rect x="30.9995" y="13" width="2" height="2" fill="#00AE71"/>
<rect x="30.9995" y="17" width="2" height="2" fill="#00AE71"/>
<rect x="30.9995" y="21" width="2" height="2" fill="#00AE71"/>
<rect x="19.0005" y="13" width="2" height="2" fill="#00AE71"/>
<rect x="19.0005" y="17" width="2" height="2" fill="#00AE71"/>
<rect x="19.0005" y="21" width="2" height="2" fill="#00AE71"/>
<rect x="9.00049" y="25" width="22" height="2" fill="#00AE71"/>
<rect x="3.74951" y="9.75" width="32.5" height="20.5" stroke="#00AE71" stroke-width="1.5"/>
</svg>
