<svg width="40" height="40" viewBox="0 0 40 40" fill="none" xmlns="http://www.w3.org/2000/svg">
<path d="M30.6333 28.0333V28.3784L30.8774 28.6225L34.1667 31.9118V32.4999H5.83333V31.9118L9.12259 28.6225L9.36667 28.3784V28.0333V18.3333V18.333C9.36605 15.9409 10.1729 13.6186 11.6567 11.7422C13.1404 9.86576 15.2141 8.54514 17.5419 7.99418L18.1833 7.84237V7.18325V5.98325C18.1833 4.97682 18.9936 4.16659 20 4.16659C21.0064 4.16659 21.8167 4.97682 21.8167 5.98325V7.18325V7.84227L22.4579 7.99415C27.1576 9.10723 30.6333 13.3119 30.6333 18.3333V28.0333ZM20 37.4999C18.9193 37.4999 18.0015 36.8122 17.6595 35.8499H22.3404C21.9985 36.8122 21.0807 37.4999 20 37.4999Z" stroke="#00AE71" stroke-width="1.66667"/>
</svg>
