<svg width="24" height="24" viewBox="0 0 24 24" fill="none" xmlns="http://www.w3.org/2000/svg">
<path d="M6.328 16.8845C6.328 17.433 6.77565 17.8806 7.32643 17.8806H8.46784V20.7025C8.46784 21.4173 9.04206 22.0009 9.74752 22.0009C10.4553 22.0009 11.0272 21.4197 11.0272 20.7025V17.8783H13.0194V20.7002C13.0194 21.415 13.5936 21.9986 14.2991 21.9986C15.0069 21.9986 15.5788 21.4173 15.5788 20.7002V17.8783H16.7202C17.2709 17.8783 17.7186 17.4306 17.7186 16.8822V7.61968H6.328V16.8845ZM14.6975 2.81968L15.7499 1.29625C15.8108 1.20718 15.7967 1.08765 15.7147 1.02906C15.6327 0.97281 15.5155 1.00093 15.4545 1.09L14.3624 2.67437C13.6428 2.39078 12.8413 2.23375 11.9999 2.23375C11.1585 2.23375 10.3569 2.39078 9.63737 2.67437L8.54518 1.09234C8.48424 1.00328 8.36706 0.97281 8.28503 1.0314C8.20299 1.08765 8.18893 1.20484 8.24987 1.29859L9.30221 2.82203C7.62878 3.60015 6.4569 5.07437 6.3069 6.79703H17.6975C17.5428 5.07203 16.3686 3.59781 14.6975 2.81968ZM9.59518 5.22203C9.47048 5.22203 9.34859 5.18505 9.24491 5.11578C9.14123 5.0465 9.06042 4.94803 9.0127 4.83283C8.96498 4.71763 8.9525 4.59086 8.97683 4.46856C9.00115 4.34626 9.0612 4.23392 9.14937 4.14575C9.23754 4.05758 9.34988 3.99753 9.47218 3.97321C9.59448 3.94888 9.72125 3.96136 9.83645 4.00908C9.95165 4.0568 10.0501 4.13761 10.1194 4.24129C10.1887 4.34497 10.2256 4.46686 10.2256 4.59156C10.2252 4.75864 10.1587 4.91875 10.0405 5.03689C9.92237 5.15503 9.76226 5.2216 9.59518 5.22203ZM14.4795 5.22203C14.3549 5.22203 14.233 5.18505 14.1293 5.11578C14.0256 5.0465 13.9448 4.94803 13.8971 4.83283C13.8494 4.71763 13.8369 4.59086 13.8612 4.46856C13.8855 4.34626 13.9456 4.23392 14.0337 4.14575C14.1219 4.05758 14.2343 3.99753 14.3565 3.97321C14.4788 3.94888 14.6056 3.96136 14.7208 4.00908C14.836 4.0568 14.9345 4.13761 15.0038 4.24129C15.073 4.34497 15.11 4.46686 15.11 4.59156C15.1096 4.75864 15.043 4.91875 14.9249 5.03689C14.8067 5.15503 14.6466 5.2216 14.4795 5.22203ZM19.7155 7.58218C19.0077 7.58218 18.4358 8.16343 18.4358 8.88062V13.9525C18.4358 14.6673 19.01 15.2509 19.7155 15.2509C20.4233 15.2509 20.9952 14.6697 20.9952 13.9525V8.87828C20.9975 8.16109 20.4256 7.58218 19.7155 7.58218ZM4.27956 7.58218C3.57175 7.58218 2.99988 8.16343 2.99988 8.88062V13.9525C2.99988 14.6673 3.5741 15.2509 4.27956 15.2509C4.98737 15.2509 5.55925 14.6697 5.55925 13.9525V8.87828C5.55925 8.16109 4.98503 7.58218 4.27956 7.58218Z" fill="#4376A6"/>
</svg>
