<svg width="256" height="32" viewBox="0 0 256 32" fill="none" xmlns="http://www.w3.org/2000/svg">
<path fill-rule="evenodd" clip-rule="evenodd" d="M175.269 4H192.73C194.536 4 196 5.464 196 7.26933V24.73C196 26.536 194.536 28 192.731 28H175.269C173.464 28 172 26.536 172 24.7307V7.26933C172 5.464 173.464 4 175.269 4Z" fill="#212121"/>
<path fill-rule="evenodd" clip-rule="evenodd" d="M187.472 13.7379C188.523 14.4885 189.81 14.9299 191.2 14.9299V12.2559C190.937 12.2559 190.675 12.2285 190.418 12.1739V14.2785C189.028 14.2785 187.741 13.8365 186.69 13.0865V18.5425C186.69 21.2719 184.476 23.4845 181.745 23.4845C180.726 23.4845 179.779 23.1765 178.992 22.6485C179.89 23.5659 181.142 24.1352 182.528 24.1352C185.258 24.1352 187.472 21.9225 187.472 19.1932V13.7379ZM188.438 11.0405C187.902 10.4545 187.549 9.69653 187.472 8.85853V8.51453H186.73C186.917 9.57919 187.554 10.4892 188.438 11.0405ZM180.72 20.5545C180.42 20.1612 180.258 19.6805 180.258 19.1859C180.258 17.9372 181.271 16.9252 182.52 16.9252C182.753 16.9252 182.984 16.9605 183.206 17.0312V14.2979C182.947 14.2625 182.686 14.2472 182.424 14.2525V16.3799C182.202 16.3092 181.97 16.2739 181.737 16.2739C180.488 16.2739 179.475 17.2859 179.475 18.5345C179.476 19.4179 179.982 20.1825 180.72 20.5545Z" fill="#EC407A"/>
<path fill-rule="evenodd" clip-rule="evenodd" d="M186.689 13.0865C187.74 13.8372 189.027 14.2785 190.417 14.2785V12.1739C189.641 12.0085 188.955 11.6032 188.438 11.0399C187.554 10.4885 186.917 9.57919 186.731 8.51453H184.782V19.1932C184.777 20.4379 183.767 21.4459 182.52 21.4459C181.785 21.4459 181.133 21.0959 180.719 20.5539C179.981 20.1819 179.475 19.4172 179.475 18.5345C179.475 17.2859 180.488 16.2739 181.737 16.2739C181.977 16.2739 182.207 16.3112 182.424 16.3799V14.2532C179.741 14.3085 177.584 16.4992 177.584 19.1939C177.584 20.5392 178.121 21.7585 178.993 22.6492C179.78 23.1772 180.727 23.4852 181.746 23.4852C184.477 23.4852 186.691 21.2725 186.691 18.5432L186.689 13.0865Z" fill="white"/>
<path fill-rule="evenodd" clip-rule="evenodd" d="M190.417 12.1747V11.6054C189.717 11.6067 189.032 11.4107 188.438 11.0401C188.963 11.6154 189.655 12.0121 190.417 12.1747ZM186.73 8.51474C186.712 8.41274 186.698 8.31074 186.689 8.2074V7.8634H183.998V18.5427C183.994 19.7874 182.983 20.7954 181.736 20.7954C181.37 20.7954 181.025 20.7087 180.719 20.5541C181.132 21.0961 181.785 21.4461 182.52 21.4461C183.766 21.4461 184.777 20.4381 184.782 19.1934V8.51474H186.73ZM182.423 14.2534V13.6474C182.198 13.6167 181.972 13.6014 181.744 13.6014C179.013 13.6014 176.8 15.8141 176.8 18.5434C176.8 20.2547 177.67 21.7627 178.992 22.6494C178.12 21.7587 177.582 20.5394 177.582 19.1941C177.582 16.4994 179.74 14.3087 182.423 14.2534Z" fill="#81D4FA"/>
<path d="M123.895 13.697C128.515 12.2298 129.249 7.97616 128.662 4.16166C128.662 4.16166 128.662 3.94179 128.809 4.01488C133.283 6.216 138.271 10.8369 138.271 17.9512C138.271 23.2323 134.09 28 128.002 28C121.401 28 117.733 23.3791 117.733 17.8781C117.733 14.5777 119.934 11.2766 122.501 9.81002C122.501 9.81002 122.721 9.81002 122.721 9.9568C122.721 10.6901 123.014 12.524 123.821 13.6239L123.895 13.697Z" fill="url(#paint0_radial)"/>
<path d="M22.6748 27.9871L9.34851 27.9998C6.41673 28.0024 4.01599 25.6063 4.01266 22.6746L4 9.34827C3.99734 6.41648 6.39341 4.01575 9.32519 4.01242L22.6515 3.99976C25.5833 3.99709 27.984 6.39316 27.9873 9.32495L28 22.6512C28.0033 25.5837 25.6066 27.9844 22.6748 27.9871Z" fill="url(#paint1_radial)"/>
<path d="M22.6778 27.9932L9.3445 28.0058C6.41117 28.0085 4.00917 25.6112 4.00583 22.6778L3.99317 9.3445C3.9905 6.41117 6.38783 4.00917 9.32117 4.00583L22.6545 3.99317C25.5878 3.9905 27.9898 6.38783 27.9932 9.32117L28.0058 22.6545C28.0092 25.5885 25.6112 27.9905 22.6778 27.9932Z" fill="url(#paint2_radial)"/>
<path d="M15.9997 20.6666C13.427 20.6666 11.333 18.5733 11.333 15.9999C11.333 13.4266 13.427 11.3333 15.9997 11.3333C18.5723 11.3333 20.6663 13.4266 20.6663 15.9999C20.6663 18.5733 18.5723 20.6666 15.9997 20.6666ZM15.9997 12.6666C14.1617 12.6666 12.6663 14.1619 12.6663 15.9999C12.6663 17.8379 14.1617 19.3333 15.9997 19.3333C17.8377 19.3333 19.333 17.8379 19.333 15.9999C19.333 14.1619 17.8377 12.6666 15.9997 12.6666Z" fill="white"/>
<path d="M21 12C21.5523 12 22 11.5523 22 11C22 10.4477 21.5523 10 21 10C20.4477 10 20 10.4477 20 11C20 11.5523 20.4477 12 21 12Z" fill="white"/>
<path d="M19.9997 24.6666H11.9997C9.42701 24.6666 7.33301 22.5732 7.33301 19.9999V11.9999C7.33301 9.42658 9.42701 7.33325 11.9997 7.33325H19.9997C22.5723 7.33325 24.6663 9.42658 24.6663 11.9999V19.9999C24.6663 22.5732 22.5723 24.6666 19.9997 24.6666ZM11.9997 8.66659C10.1617 8.66659 8.66634 10.1619 8.66634 11.9999V19.9999C8.66634 21.8379 10.1617 23.3333 11.9997 23.3333H19.9997C21.8377 23.3333 23.333 21.8379 23.333 19.9999V11.9999C23.333 10.1619 21.8377 8.66659 19.9997 8.66659H11.9997Z" fill="white"/>
<path d="M84 24.6667C84 26.508 82.508 28 80.6667 28H63.3333C61.4927 28 60 26.508 60 24.6667V7.33333C60 5.492 61.4927 4 63.3333 4H80.6667C82.508 4 84 5.492 84 7.33333V24.6667Z" fill="#3F51B5"/>
<path d="M78.9117 16.6667H76.6663V25.3334H73.333V16.6667H71.333V14.0001H73.333V12.3934C73.3343 10.0547 74.3057 8.66675 77.061 8.66675H79.333V11.3334H77.8083C76.7357 11.3334 76.6663 11.7334 76.6663 12.4821V14.0001H79.333L78.9117 16.6667Z" fill="white"/>
<path d="M246.675 27.9871L233.349 27.9998C230.417 28.0024 228.016 25.6063 228.013 22.6746L228 9.34827C227.997 6.41648 230.393 4.01575 233.325 4.01242L246.651 3.99976C249.583 3.99709 251.984 6.39316 251.987 9.32495L252 22.6512C252.003 25.5837 249.607 27.9844 246.675 27.9871Z" fill="url(#paint3_linear)"/>
<path opacity="0.07" d="M233.742 13.67C233.63 13.67 233.514 13.696 233.406 13.75C233.23 13.838 233.098 13.99 233.035 14.1773C232.934 14.4793 233.038 14.8107 233.292 15.0013L235.743 16.532L235.648 16.7867C235.604 16.906 234.534 19.722 232.512 20.8247C232.405 20.8833 232.336 20.962 232.33 21.036C232.322 21.1107 232.382 21.178 232.433 21.2207C232.87 21.5867 233.322 21.8467 234.223 22.012L234.496 22.062L234.496 22.3393C234.498 22.7447 234.626 23.1733 234.746 23.1733C235.342 23.1733 236.58 23.1733 237.818 23.792C238.505 24.1353 239.466 24.3407 239.999 24.3407C240.532 24.3407 241.493 24.1353 242.18 23.792C243.417 23.1733 244.656 23.1733 245.252 23.1733C245.372 23.1733 245.501 22.7447 245.502 22.3393L245.502 22.062L245.775 22.012C246.676 21.8473 247.128 21.5873 247.566 21.2207C247.617 21.178 247.676 21.1107 247.669 21.036C247.662 20.962 247.593 20.8833 247.486 20.8247C245.465 19.722 244.396 16.906 244.351 16.7867L244.256 16.532L246.729 14.9853C246.96 14.81 247.064 14.4793 246.963 14.1773C246.901 13.99 246.769 13.8387 246.592 13.75C246.416 13.6613 246.216 13.648 246.028 13.71L244.331 14.4047V12.0667C244.331 9.64265 242.388 7.67065 240 7.67065C237.61 7.67065 235.667 9.64265 235.667 12.0667V14.4053L233.95 13.7033C233.885 13.6813 233.814 13.67 233.742 13.67Z" fill="black"/>
<path opacity="0.05" d="M240 24.6737C240.578 24.6737 241.591 24.459 242.329 24.0904C243.496 23.507 244.668 23.507 245.252 23.507C245.835 23.507 245.835 22.3397 245.835 22.3397C246.762 22.1704 247.272 21.901 247.78 21.4764C248.134 21.1797 248.051 20.753 247.646 20.5324C245.71 19.477 244.663 16.6704 244.663 16.6704L246.906 15.2677C247.275 14.991 247.425 14.509 247.28 14.071C247.092 13.509 246.484 13.2057 245.923 13.3937L244.665 13.9077V12.0664C244.665 9.49037 242.577 7.33704 240.001 7.33704H239.998C237.422 7.33704 235.334 9.49037 235.334 12.0664V13.9084L234.076 13.3944C233.514 13.2064 232.907 13.5097 232.72 14.0717C232.574 14.509 232.724 14.991 233.094 15.2684L235.336 16.671C235.336 16.671 234.29 19.477 232.354 20.533C231.948 20.7537 231.866 21.181 232.22 21.477C232.726 21.9017 233.237 22.171 234.164 22.3404C234.164 22.3404 234.164 23.5077 234.748 23.5077C235.331 23.5077 236.503 23.5077 237.67 24.091C238.408 24.459 239.421 24.6737 240 24.6737Z" stroke="#1D1D1B" stroke-width="10"/>
<path opacity="0.07" d="M240 24.6737C240.578 24.6737 241.591 24.459 242.329 24.0904C243.496 23.507 244.668 23.507 245.252 23.507C245.835 23.507 245.835 22.3397 245.835 22.3397C246.762 22.1704 247.272 21.901 247.78 21.4764C248.134 21.1797 248.051 20.753 247.646 20.5324C245.71 19.477 244.663 16.6704 244.663 16.6704L246.906 15.2677C247.275 14.991 247.425 14.509 247.28 14.071C247.092 13.509 246.484 13.2057 245.923 13.3937L244.665 13.9077V12.0664C244.665 9.49037 242.577 7.33704 240.001 7.33704H239.998C237.422 7.33704 235.334 9.49037 235.334 12.0664V13.9084L234.076 13.3944C233.514 13.2064 232.907 13.5097 232.72 14.0717C232.574 14.509 232.724 14.991 233.094 15.2684L235.336 16.671C235.336 16.671 234.29 19.477 232.354 20.533C231.948 20.7537 231.866 21.181 232.22 21.477C232.726 21.9017 233.237 22.171 234.164 22.3404C234.164 22.3404 234.164 23.5077 234.748 23.5077C235.331 23.5077 236.503 23.5077 237.67 24.091C238.408 24.459 239.421 24.6737 240 24.6737Z" stroke="black" stroke-width="5"/>
<path d="M240 24.6737C240.578 24.6737 241.591 24.459 242.329 24.0904C243.496 23.507 244.668 23.507 245.252 23.507C245.835 23.507 245.835 22.3397 245.835 22.3397C246.762 22.1704 247.272 21.901 247.78 21.4764C248.134 21.1797 248.051 20.753 247.646 20.5324C245.71 19.477 244.663 16.6704 244.663 16.6704L246.906 15.2677C247.275 14.991 247.425 14.509 247.28 14.071C247.092 13.509 246.484 13.2057 245.923 13.3937L244.665 13.9077V12.0664C244.665 9.49037 242.577 7.33704 240.001 7.33704H239.998C237.422 7.33704 235.334 9.49037 235.334 12.0664V13.9084L234.076 13.3944C233.514 13.2064 232.907 13.5097 232.72 14.0717C232.574 14.509 232.724 14.991 233.094 15.2684L235.336 16.671C235.336 16.671 234.29 19.477 232.354 20.533C231.948 20.7537 231.866 21.181 232.22 21.477C232.726 21.9017 233.237 22.171 234.164 22.3404C234.164 22.3404 234.164 23.5077 234.748 23.5077C235.331 23.5077 236.503 23.5077 237.67 24.091C238.408 24.459 239.421 24.6737 240 24.6737Z" fill="white"/>
<defs>
<radialGradient id="paint0_radial" cx="0" cy="0" r="1" gradientUnits="userSpaceOnUse" gradientTransform="translate(128.238 25.7693) scale(23.3189)">
<stop stop-color="#FE7356"/>
<stop offset="1" stop-color="#FD297C"/>
</radialGradient>
<radialGradient id="paint1_radial" cx="0" cy="0" r="1" gradientUnits="userSpaceOnUse" gradientTransform="translate(12.922 28.0171) scale(29.9169)">
<stop stop-color="#FFDD55"/>
<stop offset="0.328" stop-color="#FF543F"/>
<stop offset="0.348" stop-color="#FC5245"/>
<stop offset="0.504" stop-color="#E64771"/>
<stop offset="0.643" stop-color="#D53E91"/>
<stop offset="0.761" stop-color="#CC39A4"/>
<stop offset="0.841" stop-color="#C837AB"/>
</radialGradient>
<radialGradient id="paint2_radial" cx="0" cy="0" r="1" gradientUnits="userSpaceOnUse" gradientTransform="translate(7.85717 3.69337) scale(19.8753 13.2429)">
<stop stop-color="#4168C9"/>
<stop offset="0.999" stop-color="#4168C9" stop-opacity="0"/>
</radialGradient>
<linearGradient id="paint3_linear" x1="237.736" y1="3.1542" x2="242.265" y2="28.846" gradientUnits="userSpaceOnUse">
<stop stop-color="#FEDE00"/>
<stop offset="1" stop-color="#FFD000"/>
</linearGradient>
</defs>
</svg>
