<svg width="100" height="100" viewBox="0 0 100 100" fill="none" xmlns="http://www.w3.org/2000/svg">
<path fill-rule="evenodd" clip-rule="evenodd" d="M34 14.9997C34 13.8951 34.8954 12.9997 36 12.9997H77C78.1046 12.9997 79 13.8951 79 14.9997V42.661H77V14.9997H36V52.9997H34V14.9997Z" fill="#0048B5"/>
<line x1="54" y1="21.277" x2="62" y2="21.277" stroke="#0048B5" stroke-width="2"/>
<line x1="50" y1="21.277" x2="52" y2="21.277" stroke="#0048B5" stroke-width="2"/>
<path d="M31.5 62.75C31.5 63.4793 31.2103 64.1788 30.6945 64.6945C30.1788 65.2103 29.4793 65.5 28.75 65.5C28.0207 65.5 27.3212 65.2103 26.8055 64.6945C26.2897 64.1788 26 63.4793 26 62.75C26 62.0207 26.2897 61.3212 26.8055 60.8055C27.3212 60.2897 28.0207 60 28.75 60C29.4793 60 30.1788 60.2897 30.6945 60.8055C31.2103 61.3212 31.5 62.0207 31.5 62.75Z" stroke="#0048B5" stroke-width="1.5"/>
<path fill-rule="evenodd" clip-rule="evenodd" d="M21.9961 61.752C21.9958 60.4507 22.3034 59.1678 22.8936 58.0082C23.4838 56.8485 24.34 55.8448 25.3922 55.0792C26.4444 54.3136 27.6627 53.8078 28.9478 53.603C30.2328 53.3982 31.5481 53.5003 32.7861 53.901L40.1741 46.515C40.5019 46.187 40.9464 46.0024 41.4101 46.002H44.2461C45.2131 46.002 45.9961 46.786 45.9961 47.752V49.252C45.9961 49.7161 45.8117 50.1612 45.4835 50.4894C45.1553 50.8176 44.7102 51.002 44.2461 51.002H43.2461C43.1798 51.002 43.1162 51.0283 43.0693 51.0752C43.0224 51.1221 42.9961 51.1856 42.9961 51.252V53.987C42.998 54.0879 42.9795 54.1882 42.9417 54.2819C42.9039 54.3756 42.8476 54.4606 42.7761 54.532L42.5631 54.746C42.4818 54.8272 42.3853 54.8916 42.2791 54.9355C42.1729 54.9795 42.059 55.002 41.9441 55.002H40.4961C40.4298 55.002 40.3662 55.0283 40.3193 55.0752C40.2724 55.1221 40.2461 55.1856 40.2461 55.252V56.338C40.2461 56.802 40.0621 57.248 39.7331 57.575L38.0971 59.211C38.4632 60.345 38.5793 61.5448 38.4374 62.728C38.2955 63.9111 37.899 65.0495 37.2751 66.0647C36.6513 67.08 35.8149 67.9481 34.8235 68.6093C33.8321 69.2704 32.7092 69.7089 31.5322 69.8947C30.3551 70.0805 29.1518 70.009 28.0049 69.6853C26.8581 69.3616 25.795 68.7933 24.8888 68.0195C23.9826 67.2457 23.2548 66.2848 22.7554 65.2028C22.2561 64.1209 21.997 62.9436 21.9961 61.752ZM30.2461 55.002C28.8036 55.0024 27.3993 55.4649 26.2388 56.3216C25.0784 57.1784 24.2229 58.3844 23.7979 59.7628C23.3728 61.1411 23.4004 62.6195 23.8768 63.981C24.3531 65.3425 25.2531 66.5156 26.4447 67.3284C27.6364 68.1412 29.0571 68.5508 30.4985 68.4973C31.94 68.4438 33.3264 67.9299 34.4545 67.031C35.5826 66.1321 36.3931 64.8955 36.7672 63.5024C37.1413 62.1093 37.0592 60.633 36.5331 59.29C36.4799 59.1541 36.4674 59.0057 36.4972 58.8629C36.5271 58.7201 36.5979 58.5891 36.7011 58.486L38.6731 56.515C38.6963 56.4917 38.7147 56.4641 38.7272 56.4337C38.7397 56.4033 38.7462 56.3708 38.7461 56.338V55.252C38.7461 54.7878 38.9305 54.3427 39.2587 54.0145C39.5868 53.6863 40.032 53.502 40.4961 53.502H41.4961V51.252C41.4961 50.7878 41.6805 50.3427 42.0087 50.0145C42.3368 49.6863 42.782 49.502 43.2461 49.502H44.2461C44.3124 49.502 44.376 49.4756 44.4229 49.4287C44.4698 49.3818 44.4961 49.3183 44.4961 49.252V47.752C44.4961 47.6856 44.4698 47.6221 44.4229 47.5752C44.376 47.5283 44.3124 47.502 44.2461 47.502H41.4101C41.3772 47.5019 41.3447 47.5083 41.3143 47.5208C41.284 47.5334 41.2564 47.5518 41.2331 47.575L33.5121 55.297C33.4089 55.4001 33.2779 55.471 33.1351 55.5008C32.9923 55.5306 32.8439 55.5182 32.7081 55.465C31.9236 55.1579 31.0885 55.0008 30.2461 55.002Z" fill="#0048B5"/>
</svg>
