<svg width="16" height="16" viewBox="0 0 16 16" fill="none" xmlns="http://www.w3.org/2000/svg">
<path d="M13.625 7.53125V8.46875C13.625 8.55208 13.5833 8.59375 13.5 8.59375H2.5C2.41667 8.59375 2.375 8.55208 2.375 8.46875V7.53125C2.375 7.44792 2.41667 7.40625 2.5 7.40625L13.5 7.40625C13.5833 7.40625 13.625 7.44792 13.625 7.53125Z" fill="#00AE71"/>
<path d="M8.59375 2.75L8.59375 13.25C8.59375 13.3333 8.55208 13.375 8.46875 13.375H7.53125C7.44792 13.375 7.40625 13.3333 7.40625 13.25L7.40625 2.75C7.40625 2.66667 7.44792 2.625 7.53125 2.625H8.46875C8.55208 2.625 8.59375 2.66667 8.59375 2.75Z" fill="#00AE71"/>
</svg>
