<svg width="388" height="60" viewBox="0 0 388 60" fill="none" xmlns="http://www.w3.org/2000/svg">
<rect x="312.255" y="5" width="65.9577" height="42.5534" rx="4.03738" stroke="#D2DAE2" stroke-width="2"/>
<path d="M316.075 53.9999C312.357 53.9999 309.31 51.1328 309.022 47.4892H381.446C381.159 51.1328 378.111 53.9999 374.394 53.9999H316.075Z" stroke="#D2DAE2" stroke-width="2"/>
<path d="M349.263 26.0753C349.256 24.9203 349.779 24.0499 350.836 23.4081C350.245 22.5614 349.351 22.0957 348.172 22.0059C347.056 21.9179 345.835 22.6562 345.388 22.6562C344.916 22.6562 343.835 22.0364 342.985 22.0364C341.231 22.0635 339.366 23.4352 339.366 26.226C339.366 27.0507 339.517 27.9025 339.818 28.7797C340.221 29.9346 341.674 32.7643 343.19 32.7186C343.983 32.7 344.543 32.1564 345.574 32.1564C346.575 32.1564 347.093 32.7186 347.977 32.7186C349.507 32.6966 350.821 30.1243 351.203 28.966C349.153 27.999 349.263 26.1345 349.263 26.0753ZM347.483 20.9103C348.341 19.8908 348.264 18.9628 348.238 18.6292C347.48 18.6732 346.602 19.1457 346.103 19.7266C345.552 20.3497 345.229 21.1203 345.298 21.989C346.118 22.0516 346.867 21.63 347.483 20.9103Z" fill="#D2DAE2"/>
<rect x="150" y="11" width="28.7692" height="38" rx="2" stroke="#D2DAE2" stroke-width="2"/>
<circle cx="164.385" cy="45.8972" r="1.02564" fill="#D2DAE2"/>
<path d="M167.519 28.5254C167.514 27.6903 167.893 27.0609 168.657 26.5968C168.229 25.9845 167.583 25.6478 166.731 25.5829C165.924 25.5192 165.041 26.0531 164.718 26.0531C164.376 26.0531 163.595 25.6049 162.98 25.6049C161.711 25.6245 160.363 26.6164 160.363 28.6343C160.363 29.2307 160.472 29.8466 160.69 30.4809C160.982 31.316 162.032 33.3621 163.128 33.329C163.701 33.3156 164.106 32.9225 164.852 32.9225C165.576 32.9225 165.951 33.329 166.59 33.329C167.695 33.3131 168.646 31.4531 168.922 30.6156C167.44 29.9164 167.519 28.5682 167.519 28.5254ZM166.232 24.7907C166.853 24.0535 166.797 23.3825 166.778 23.1413C166.23 23.1731 165.595 23.5147 165.234 23.9347C164.836 24.3853 164.602 24.9425 164.653 25.5707C165.245 25.616 165.786 25.3111 166.232 24.7907Z" fill="#D2DAE2"/>
<rect x="3.5" y="15.5" width="18.3548" height="29" rx="1.5" stroke="#D2DAE2"/>
<circle cx="12.6774" cy="41.1292" r="0.967742" fill="#D2DAE2"/>
<path d="M15.1198 26.9599C15.1155 26.2229 15.4494 25.6674 16.1237 25.2579C15.7466 24.7175 15.176 24.4204 14.4239 24.3631C13.7117 24.3069 12.9326 24.7781 12.6473 24.7781C12.3458 24.7781 11.6564 24.3825 11.1139 24.3825C9.99435 24.3998 8.80457 25.2751 8.80457 27.056C8.80457 27.5823 8.90074 28.1259 9.0931 28.6856C9.35029 29.4226 10.2775 31.2284 11.2446 31.1992C11.7504 31.1873 12.1081 30.8404 12.7662 30.8404C13.4048 30.8404 13.7355 31.1992 14.2996 31.1992C15.2754 31.1851 16.114 29.5437 16.3582 28.8045C15.0496 28.1875 15.1198 26.9977 15.1198 26.9599ZM13.9841 23.6639C14.5319 23.0134 14.4822 22.4212 14.466 22.2083C13.9819 22.2364 13.4221 22.5379 13.1033 22.9086C12.7521 23.3062 12.5457 23.7979 12.59 24.3523C13.1131 24.3923 13.5907 24.1232 13.9841 23.6639Z" fill="#D2DAE2"/>
</svg>
