<svg width="899" height="121" viewBox="0 0 899 121" fill="none" xmlns="http://www.w3.org/2000/svg">
<path d="M556 8.14258C551.264 8.14258 546.722 10.0239 543.373 13.3728C540.024 16.7217 538.143 21.2637 538.143 25.9997C538.143 30.7357 540.024 35.2778 543.373 38.6266C546.722 41.9755 551.264 43.8569 556 43.8569C560.736 43.8569 565.278 41.9755 568.627 38.6266C571.975 35.2778 573.857 30.7357 573.857 25.9997C573.857 21.2637 571.975 16.7217 568.627 13.3728C565.278 10.0239 560.736 8.14258 556 8.14258Z" fill="#03A9F4"/>
<path d="M564.482 24.2143C561.759 24.2143 559.147 25.2961 557.222 27.2217C555.296 29.1473 554.214 31.7589 554.214 34.4821C554.214 37.2053 555.296 39.817 557.222 41.7426C559.147 43.6682 561.759 44.75 564.482 44.75C567.205 44.75 569.817 43.6682 571.743 41.7426C573.668 39.817 574.75 37.2053 574.75 34.4821C574.75 31.7589 573.668 29.1473 571.743 27.2217C569.817 25.2961 567.205 24.2143 564.482 24.2143ZM547.518 7.25C546.169 7.25 544.834 7.51559 543.589 8.03159C542.343 8.5476 541.211 9.30393 540.257 10.2574C539.304 11.2108 538.548 12.3428 538.032 13.5885C537.516 14.8343 537.25 16.1695 537.25 17.5179C537.25 18.8663 537.516 20.2014 538.032 21.4472C538.548 22.693 539.304 23.8249 540.257 24.7783C541.211 25.7318 542.343 26.4881 543.589 27.0041C544.834 27.5201 546.169 27.7857 547.518 27.7857C548.866 27.7857 550.201 27.5201 551.447 27.0041C552.693 26.4881 553.825 25.7318 554.778 24.7783C555.732 23.8249 556.488 22.693 557.004 21.4472C557.52 20.2014 557.786 18.8663 557.786 17.5179C557.786 16.1695 557.52 14.8343 557.004 13.5885C556.488 12.3428 555.732 11.2108 554.778 10.2574C553.825 9.30393 552.693 8.5476 551.447 8.03159C550.201 7.51559 548.866 7.25 547.518 7.25Z" fill="#03A9F4"/>
<path d="M556.537 36.7137C550.642 36.7137 547.964 33.7664 547.964 31.5343C547.964 30.3727 548.766 29.5709 549.927 29.5709C552.428 29.5709 551.804 33.2334 556.536 33.2334C558.946 33.2334 560.285 31.8941 560.285 30.5548C560.285 29.7494 559.926 28.8566 558.322 28.4102L553.052 27.0709C548.857 25.9994 548.055 23.6762 548.055 21.4441C548.055 16.8923 552.25 15.2852 556.178 15.2852C559.84 15.2852 564.035 17.2485 564.035 19.9271C564.035 21.0887 563.142 21.8039 561.981 21.8039C559.84 21.8039 560.195 18.7664 555.909 18.7664C553.767 18.7664 552.518 19.7503 552.518 21.1798C552.518 22.6066 554.213 23.053 555.731 23.4119L559.661 24.3048C563.944 25.2843 564.928 27.7852 564.928 30.195C564.837 33.9441 562.159 36.7137 556.537 36.7137Z" fill="white"/>
<path fill-rule="evenodd" clip-rule="evenodd" d="M680.75 13.1543C680.75 11.5239 680.089 10.0478 679.021 8.97932C677.952 7.91088 676.476 7.25 674.846 7.25H649.154C647.524 7.25 646.048 7.91088 644.979 8.97935C643.911 10.0478 643.25 11.5239 643.25 13.1543V38.8457C643.25 40.4761 643.911 41.9523 644.979 43.0207C646.048 44.0891 647.524 44.75 649.154 44.75H674.846C676.476 44.75 677.952 44.0891 679.021 43.0207C680.089 41.9523 680.75 40.4761 680.75 38.8457V13.1543L680.75 13.1543Z" fill="#2DC100"/>
<path fill-rule="evenodd" clip-rule="evenodd" d="M666.235 18.6805C665.019 17.0792 663.288 15.9437 661.362 15.3747C659.447 14.8087 657.337 14.8031 655.351 15.4574C653.848 15.9528 652.546 16.6859 651.516 17.7001C650.546 18.6544 649.82 19.8536 649.394 21.3333C648.919 22.9881 648.997 24.6205 649.57 26.1098C650.145 27.6047 651.217 28.9505 652.725 30.0241C652.89 30.1421 652.982 30.2401 653.014 30.3386C653.045 30.4372 653.027 30.5702 652.973 30.754C652.832 31.2249 652.733 31.7123 652.627 32.237C652.579 32.4718 652.53 32.7143 652.479 32.9468L652.312 33.708L652.966 33.2953C653.271 33.1032 653.515 32.9466 653.752 32.7949C654.391 32.3856 654.981 32.0083 655.552 31.6832C655.633 31.6367 655.737 31.6053 655.85 31.5861C655.988 31.5624 656.136 31.5594 656.272 31.5709C656.9 31.6243 657.5 31.7035 658.13 31.7865C658.458 31.8297 658.791 31.8737 658.927 31.8907L659.324 31.9403L659.291 31.5384C659.187 30.3074 659.324 29.1982 659.692 28.1968C660.06 27.1958 660.661 26.2983 661.486 25.4907C662.306 24.689 663.221 24.1104 664.221 23.7169C665.228 23.3211 666.323 23.1116 667.496 23.0498L667.833 23.032L667.802 22.6937C667.73 21.9207 667.559 21.2077 667.295 20.5426C667.031 19.8772 666.675 19.2605 666.235 18.6805V18.6805ZM662.173 20.282C662.56 20.2788 662.911 20.4298 663.166 20.6785C663.423 20.9285 663.584 21.2768 663.591 21.6665V21.6678L663.591 21.679V21.6803C663.595 22.0794 663.445 22.435 663.194 22.693C662.943 22.9505 662.593 23.1086 662.197 23.1134C661.802 23.1182 661.446 22.9675 661.185 22.7178C660.923 22.4666 660.759 22.1152 660.752 21.7206C660.745 21.337 660.905 20.9791 661.163 20.7168C661.418 20.4572 661.773 20.2894 662.159 20.2822H662.16L662.172 20.282H662.173V20.282ZM656.296 20.7327C656.547 20.9969 656.702 21.3535 656.691 21.7322V21.7334L656.69 21.7425V21.7438C656.676 22.133 656.503 22.4802 656.235 22.7271C655.969 22.972 655.61 23.1184 655.221 23.1084H655.22L655.215 23.1082C654.821 23.0966 654.474 22.9321 654.228 22.6717C653.981 22.411 653.836 22.0551 653.846 21.6606L653.846 21.6558V21.6546C653.858 21.2606 654.026 20.9112 654.29 20.6636C654.554 20.4169 654.912 20.271 655.304 20.2826H655.305L655.315 20.2829H655.317C655.698 20.2977 656.046 20.471 656.296 20.7327V20.7327Z" fill="#FFFFFE"/>
<path fill-rule="evenodd" clip-rule="evenodd" d="M673.763 26.7317C672.598 25.2297 670.798 24.2973 668.872 24.0106C666.942 23.7232 664.891 24.0852 663.231 25.1726C662.681 25.5329 662.204 25.9363 661.802 26.3712C660.824 27.4281 660.267 28.6826 660.149 29.9677C660.031 31.2503 660.351 32.5675 661.127 33.7527C661.436 34.2246 661.815 34.6737 662.265 35.0894C663.106 35.8671 664.036 36.4164 665.039 36.7437C666.059 37.0765 667.157 37.1801 668.318 37.0614C668.61 37.0315 668.923 36.9417 669.233 36.8526C669.722 36.7123 670.206 36.5733 670.712 36.6261C671.296 36.6871 671.822 36.964 672.363 37.2493C672.174 36.8225 672.147 36.4512 672.256 36.0939C672.378 35.6974 672.666 35.3493 673.085 34.9771C674.311 33.8901 674.985 32.4908 675.105 31.0395C675.227 29.5697 674.781 28.0439 673.763 26.7317L673.763 26.7317ZM668.94 27.5812C669.162 27.367 669.464 27.2352 669.791 27.2375H669.792L669.827 27.2381H669.828C670.161 27.2503 670.458 27.3949 670.67 27.6207C670.881 27.845 671.009 28.1497 671.007 28.484L671.006 28.5228C670.994 28.8572 670.854 29.1521 670.634 29.3633C670.413 29.5748 670.112 29.702 669.778 29.7008C669.757 29.7008 669.741 29.7005 669.73 29.7001C669.4 29.6869 669.107 29.5447 668.896 29.3226C668.686 29.101 668.559 28.8002 668.56 28.4694C668.56 28.4488 668.56 28.4324 668.56 28.421C668.574 28.0921 668.718 27.795 668.94 27.5812V27.5812ZM664.172 27.2361C664.506 27.2489 664.805 27.3932 665.02 27.6173C665.235 27.8414 665.366 28.1459 665.365 28.4787V28.4799C665.365 28.4988 665.365 28.5132 665.365 28.5228C665.352 28.8546 665.207 29.1513 664.983 29.3645C664.76 29.5771 664.456 29.7073 664.122 29.707C663.79 29.7066 663.486 29.5737 663.262 29.3592C663.039 29.1445 662.895 28.8464 662.883 28.5155C662.882 28.503 662.882 28.4871 662.882 28.4681C662.884 28.1394 663.02 27.8367 663.237 27.6143C663.454 27.3919 663.753 27.2476 664.082 27.236C664.095 27.2356 664.111 27.2354 664.13 27.2355L664.172 27.2361V27.2361Z" fill="#FFFFFE"/>
<path fill-rule="evenodd" clip-rule="evenodd" d="M753.358 77.25H780.641C783.463 77.25 785.75 79.5375 785.75 82.3583V109.641C785.75 112.463 783.462 114.75 780.642 114.75H753.358C750.538 114.75 748.25 112.462 748.25 109.642V82.3583C748.25 79.5375 750.538 77.25 753.358 77.25Z" fill="#212121"/>
<path fill-rule="evenodd" clip-rule="evenodd" d="M772.425 92.4652C774.066 93.6381 776.078 94.3277 778.25 94.3277V90.1495C777.838 90.1495 777.429 90.1068 777.027 90.0214V93.31C774.855 93.31 772.845 92.6193 771.202 91.4475V99.9725C771.202 104.237 767.743 107.694 763.476 107.694C761.884 107.694 760.404 107.213 759.175 106.388C760.578 107.821 762.534 108.711 764.699 108.711C768.965 108.711 772.425 105.254 772.425 100.989V92.4652ZM773.934 88.2506C773.096 87.335 772.545 86.1506 772.425 84.8412V84.3037H771.265C771.557 85.9673 772.553 87.3891 773.934 88.2506ZM761.874 103.116C761.405 102.502 761.152 101.751 761.153 100.978C761.153 99.0266 762.735 97.4454 764.687 97.4454C765.051 97.4454 765.412 97.5006 765.759 97.611V93.3402C765.354 93.285 764.946 93.261 764.536 93.2693V96.5933C764.189 96.4829 763.828 96.4277 763.463 96.4277C761.511 96.4277 759.929 98.0089 759.929 99.96C759.93 101.34 760.721 102.535 761.874 103.116Z" fill="#EC407A"/>
<path fill-rule="evenodd" clip-rule="evenodd" d="M771.203 91.4475C772.844 92.6204 774.856 93.31 777.028 93.31V90.0214C775.815 89.7631 774.742 89.1298 773.935 88.2495C772.554 87.3881 771.559 85.9673 771.267 84.3037H768.222V100.989C768.215 102.934 766.636 104.509 764.688 104.509C763.54 104.509 762.52 103.962 761.875 103.115C760.721 102.534 759.931 101.339 759.931 99.96C759.931 98.0089 761.513 96.4277 763.465 96.4277C763.839 96.4277 764.2 96.486 764.538 96.5933V93.2704C760.346 93.3568 756.976 96.7798 756.976 100.99C756.976 103.092 757.815 104.997 759.178 106.389C760.407 107.214 761.887 107.695 763.479 107.695C767.745 107.695 771.205 104.238 771.205 99.9735L771.203 91.4475Z" fill="white"/>
<path fill-rule="evenodd" clip-rule="evenodd" d="M777.027 90.0236V89.134C775.933 89.1361 774.862 88.8298 773.934 88.2507C774.755 89.1496 775.836 89.7694 777.027 90.0236ZM771.266 84.3048C771.237 84.1454 771.217 83.9861 771.202 83.8246V83.2871H766.998V99.9736C766.992 101.918 765.411 103.493 763.464 103.493C762.892 103.493 762.352 103.358 761.874 103.116C762.52 103.963 763.54 104.51 764.688 104.51C766.635 104.51 768.215 102.935 768.222 100.99V84.3048H771.266ZM764.536 93.2715V92.3246C764.185 92.2767 763.831 92.2527 763.476 92.2527C759.208 92.2527 755.75 95.71 755.75 99.9746C755.75 102.649 757.109 105.005 759.175 106.39C757.813 104.999 756.973 103.093 756.973 100.991C756.973 96.7809 760.345 93.3579 764.536 93.2715Z" fill="#81D4FA"/>
<path d="M867.585 22.4016C874.805 20.109 875.951 13.4627 875.034 7.5026C875.034 7.5026 875.034 7.15905 875.264 7.27325C882.254 10.7125 890.047 17.9326 890.047 29.0488C890.047 37.3005 883.515 44.75 874.003 44.75C863.688 44.75 857.958 37.5299 857.958 28.9346C857.958 23.7776 861.396 18.6197 865.407 16.3282C865.407 16.3282 865.751 16.3282 865.751 16.5575C865.751 17.7033 866.21 20.5687 867.47 22.2874L867.585 22.4016Z" fill="url(#paint0_radial)"/>
<path d="M861.021 114.75H884.979C888.719 114.75 891.75 111.719 891.75 107.979V84.0208C891.75 80.2812 888.719 77.25 884.979 77.25H861.021C857.281 77.25 854.25 80.2812 854.25 84.0208V107.979C854.25 111.719 857.281 114.75 861.021 114.75Z" fill="#00C300"/>
<path d="M886.659 94.3497C886.659 88.2404 880.534 83.2695 873.006 83.2695C865.478 83.2695 859.352 88.2404 859.352 94.3497C859.352 99.8268 864.209 104.414 870.77 105.282C871.215 105.378 871.82 105.576 871.973 105.955C872.111 106.3 872.063 106.84 872.017 107.189C872.017 107.189 871.858 108.153 871.822 108.358C871.763 108.703 871.548 109.708 873.005 109.095C874.462 108.481 880.867 104.464 883.732 101.166H883.731C885.711 98.9977 886.659 96.7945 886.659 94.3497ZM867.661 97.9852H864.948C864.554 97.9852 864.233 97.6643 864.233 97.2685V91.8424C864.233 91.4477 864.554 91.1268 864.948 91.1268C865.343 91.1268 865.664 91.4477 865.664 91.8424V96.5518H867.661C868.056 96.5518 868.377 96.8727 868.377 97.2674C868.377 97.6633 868.056 97.9852 867.661 97.9852ZM870.466 97.2685C870.466 97.6633 870.145 97.9852 869.751 97.9852C869.356 97.9852 869.035 97.6643 869.035 97.2685V91.8424C869.035 91.4477 869.356 91.1268 869.751 91.1268C870.145 91.1268 870.466 91.4477 870.466 91.8424V97.2685ZM876.997 97.2685C876.997 97.5779 876.802 97.8508 876.508 97.9477C876.434 97.9727 876.357 97.9852 876.281 97.9852C876.057 97.9852 875.843 97.8779 875.709 97.6987L872.929 93.9122V97.2685C872.929 97.6633 872.608 97.9852 872.212 97.9852C871.817 97.9852 871.495 97.6643 871.495 97.2685V91.8424C871.495 91.5341 871.692 91.2612 871.985 91.1633C872.059 91.1383 872.135 91.1268 872.212 91.1268C872.435 91.1268 872.649 91.2341 872.784 91.4133L875.565 95.1997V91.8424C875.565 91.4477 875.887 91.1268 876.282 91.1268C876.677 91.1268 876.997 91.4477 876.997 91.8424V97.2685ZM881.387 93.8393C881.782 93.8393 882.104 94.1602 882.104 94.556C882.104 94.9508 881.783 95.2716 881.387 95.2716H879.39V96.5529H881.387C881.782 96.5529 882.104 96.8737 882.104 97.2685C882.104 97.6633 881.782 97.9852 881.387 97.9852H878.674C878.281 97.9852 877.959 97.6643 877.959 97.2685V94.557C877.959 94.556 877.959 94.556 877.959 94.556V94.5549V91.8456C877.959 91.8445 877.959 91.8445 877.959 91.8435C877.959 91.4487 878.28 91.1279 878.674 91.1279H881.387C881.782 91.1279 882.104 91.4487 882.104 91.8435C882.104 92.2383 881.783 92.5591 881.387 92.5591H879.39V93.8404H881.387V93.8393Z" fill="white"/>
<path d="M44.0419 8.28149C43.4022 7.73905 42.3975 7.66144 41.3587 8.0785H41.357C40.2644 8.51689 10.4303 21.3137 9.21575 21.8365C8.99485 21.9133 7.06561 22.6331 7.26434 24.2365C7.44174 25.6822 8.99229 26.2809 9.18164 26.35L16.7664 28.947C17.2696 30.6221 19.1246 36.8022 19.5349 38.1225C19.7908 38.9455 20.2078 40.027 20.9387 40.2496C21.5801 40.4969 22.2181 40.2709 22.6309 39.9468L27.268 35.6457L34.7539 41.4837L34.9321 41.5903C35.4405 41.8155 35.9275 41.9281 36.3923 41.9281C36.7513 41.9281 37.0959 41.8607 37.4251 41.7259C38.5467 41.2654 38.9953 40.1967 39.0422 40.0756L44.6338 11.0116C44.9749 9.45933 44.5007 8.66955 44.0419 8.28149ZM23.4556 29.9859L20.897 36.809L18.3383 28.2801L37.9548 13.7809L23.4556 29.9859Z" fill="#2C9AFF"/>
<path d="M35.4294 114.73L14.6071 114.75C10.0261 114.754 6.27499 111.01 6.26978 106.429L6.25 85.607C6.24584 81.0261 9.9897 77.275 14.5706 77.2698L35.393 77.25C39.9739 77.2458 43.725 80.9897 43.7302 85.5706L43.75 106.393C43.7552 110.975 40.0103 114.726 35.4294 114.73Z" fill="url(#paint1_radial)"/>
<path d="M35.4341 114.739L14.6007 114.759C10.0174 114.763 6.26426 111.017 6.25905 106.434L6.23926 85.6007C6.23509 81.0174 9.98093 77.2643 14.5643 77.2591L35.3976 77.2393C39.9809 77.2351 43.7341 80.9809 43.7393 85.5643L43.7591 106.398C43.7643 110.982 40.0174 114.735 35.4341 114.739Z" fill="url(#paint2_radial)"/>
<path d="M24.9997 103.291C20.9799 103.291 17.708 100.021 17.708 95.9997C17.708 91.9788 20.9799 88.708 24.9997 88.708C29.0195 88.708 32.2913 91.9788 32.2913 95.9997C32.2913 100.021 29.0195 103.291 24.9997 103.291ZM24.9997 90.7913C22.1278 90.7913 19.7913 93.1278 19.7913 95.9997C19.7913 98.8715 22.1278 101.208 24.9997 101.208C27.8715 101.208 30.208 98.8715 30.208 95.9997C30.208 93.1278 27.8715 90.7913 24.9997 90.7913Z" fill="white"/>
<path d="M32.8125 89.75C33.6754 89.75 34.375 89.0504 34.375 88.1875C34.375 87.3246 33.6754 86.625 32.8125 86.625C31.9496 86.625 31.25 87.3246 31.25 88.1875C31.25 89.0504 31.9496 89.75 32.8125 89.75Z" fill="white"/>
<path d="M31.2497 109.541H18.7497C14.7299 109.541 11.458 106.271 11.458 102.25V89.7497C11.458 85.7288 14.7299 82.458 18.7497 82.458H31.2497C35.2695 82.458 38.5413 85.7288 38.5413 89.7497V102.25C38.5413 106.271 35.2695 109.541 31.2497 109.541ZM18.7497 84.5413C15.8778 84.5413 13.5413 86.8778 13.5413 89.7497V102.25C13.5413 105.122 15.8778 107.458 18.7497 107.458H31.2497C34.1215 107.458 36.458 105.122 36.458 102.25V89.7497C36.458 86.8778 34.1215 84.5413 31.2497 84.5413H18.7497Z" fill="white"/>
<path d="M256.75 38.5417C256.75 41.4187 254.419 43.75 251.542 43.75H224.458C221.582 43.75 219.25 41.4187 219.25 38.5417V11.4583C219.25 8.58125 221.582 6.25 224.458 6.25H251.542C254.419 6.25 256.75 8.58125 256.75 11.4583V38.5417Z" fill="#3F51B5"/>
<path d="M248.8 26.042H245.291V39.5837H240.083V26.042H236.958V21.8753H240.083V19.3649C240.085 15.7107 241.603 13.542 245.908 13.542H249.458V17.7087H247.076C245.4 17.7087 245.291 18.3337 245.291 19.5035V21.8753H249.458L248.8 26.042Z" fill="white"/>
<ellipse cx="152" cy="29" rx="3" ry="3" fill="#5DCD11"/>
<path fill-rule="evenodd" clip-rule="evenodd" d="M124.654 22.4849C124.654 22.4671 124.636 19.6681 126.998 19.6868C129.373 19.7056 129.341 22.4849 129.341 22.4849V34.685C129.341 34.685 129.036 36.5635 126.986 36.5598C124.892 36.556 124.637 34.685 124.637 34.685L124.654 22.4849ZM107.781 16.4941C107.781 16.4941 107.854 14.055 110.125 14.0625C112.295 14.07 112.461 16.5438 112.461 16.5438L112.468 25.3111L117.155 20.6242C117.155 20.6242 119.094 19.0588 120.436 20.6242C121.865 22.2909 119.967 24.3737 119.967 24.3737L117.155 27.1859C117.155 27.1859 121.842 33.742 121.842 34.2163C121.842 35.5193 120.784 36.5616 119.499 36.5616C118.635 36.5616 117.557 36.3301 117.155 35.6224L113.406 29.9981L112.468 30.9354V34.685C112.468 34.685 112.153 36.5579 110.125 36.5607C107.93 36.5644 107.781 34.685 107.781 34.685V16.4941ZM133.091 16.4941C133.091 16.4941 133.164 14.055 135.434 14.0625C137.604 14.07 137.77 16.5438 137.77 16.5438L137.778 25.3111L142.464 20.6242C142.464 20.6242 144.403 19.0588 145.745 20.6242C147.175 22.2909 145.277 24.3737 145.277 24.3737L142.464 27.1859C142.464 27.1859 147.151 33.742 147.151 34.2163C147.151 35.5193 146.093 36.5616 144.808 36.5616C143.945 36.5616 142.867 36.3301 142.464 35.6224L138.715 29.9981L137.778 30.9354V34.685C137.778 34.685 137.463 36.5579 135.434 36.5607C133.24 36.5644 133.091 34.685 133.091 34.685V16.4941Z" fill="#5DCD11"/>
<path d="M450 40.625C439.688 40.625 431.25 32.1875 431.25 21.875C431.25 11.5625 439.688 3.125 450 3.125C460.312 3.125 468.75 11.5625 468.75 21.875C468.75 32.1875 462.708 43.2292 450 46.875V40.625Z" fill="#4CAF50"/>
<path d="M447.916 16.6667V23.9583C447.916 27.3958 445.104 30.2083 441.666 30.2083V27.0833C443.437 27.0833 444.791 25.7292 444.791 23.9583H440.625C440.104 23.9583 439.583 23.4375 439.583 22.9167V16.6667C439.583 16.1458 440.104 15.625 440.625 15.625H446.875C447.396 15.625 447.916 16.1458 447.916 16.6667ZM459.375 15.625H453.125C452.604 15.625 452.083 16.1458 452.083 16.6667V22.9167C452.083 23.4375 452.604 23.9583 453.125 23.9583H457.291C457.291 25.7292 455.937 27.0833 454.166 27.0833V30.2083C457.604 30.2083 460.416 27.3958 460.416 23.9583V16.6667C460.416 16.1458 459.896 15.625 459.375 15.625Z" fill="white"/>
<path d="M353.375 25C353.375 30.1759 349.176 34.375 344 34.375C338.824 34.375 334.625 30.1759 334.625 25C334.625 19.8241 338.824 15.625 344 15.625C349.176 15.625 353.375 19.8241 353.375 25Z" fill="white"/>
<path d="M350.872 29.8844L343.222 43.7312C333.228 43.3281 325.25 35.0875 325.25 25C325.25 14.65 333.65 6.25 344 6.25V16.5625C339.341 16.5625 335.562 20.3406 335.562 25C335.562 29.6594 339.341 33.4375 344 33.4375C346.841 33.4375 349.344 32.0406 350.872 29.8844Z" fill="url(#paint3_linear)"/>
<path d="M362.75 25C362.75 35.3594 354.36 43.75 344 43.75H343.213L350.872 29.8844C351.857 28.5062 352.438 26.8187 352.438 25C352.438 20.3406 348.66 16.5625 344 16.5625V6.25C351.322 6.25 357.641 10.45 360.735 16.5625C362.01 19.1031 362.75 21.9625 362.75 25Z" fill="url(#paint4_linear)"/>
<path d="M360.726 16.5625H344.001C339.341 16.5625 335.563 20.3406 335.563 25C335.563 26.3969 335.901 27.7094 336.51 28.8719H336.501L328.213 14.9313H328.194C331.513 9.70938 337.354 6.25 344.001 6.25C351.313 6.25 357.641 10.45 360.726 16.5625Z" fill="url(#paint5_linear)"/>
<path d="M350.562 25C350.562 28.6253 347.625 31.5625 344 31.5625C340.375 31.5625 337.438 28.6253 337.438 25C337.438 21.3747 340.375 18.4375 344 18.4375C347.625 18.4375 350.562 21.3747 350.562 25Z" fill="url(#paint6_linear)"/>
<path d="M768.421 25.0419C768.274 24.8731 768.124 24.7072 768 24.5262C767.876 24.7072 767.726 24.8741 767.579 25.0419C767.719 25.0513 767.857 25.0625 768 25.0625C768.142 25.0625 768.281 25.0513 768.421 25.0419ZM767.337 17.3825C767.59 17.6356 767.806 17.9103 768 18.1944C768.195 17.9103 768.41 17.6356 768.663 17.3825L773.302 12.7419C773.398 12.6472 773.507 12.5806 773.604 12.4944C773.409 9.56656 770.978 7.25 768 7.25C765.021 7.25 762.59 9.56656 762.395 12.4944C762.493 12.5806 762.603 12.6472 762.697 12.7419L767.337 17.3825Z" fill="#FFB74D"/>
<path d="M767.579 26.9572C767.726 27.1269 767.876 27.2919 768 27.4738C768.124 27.2938 768.274 27.1269 768.421 26.9572C768.281 26.9487 768.142 26.9375 768 26.9375C767.857 26.9375 767.719 26.9487 767.579 26.9572ZM768.663 34.6166C768.409 34.3634 768.194 34.0897 768 33.8056C767.805 34.0916 767.589 34.3653 767.337 34.6166L762.696 39.2581C762.602 39.3519 762.493 39.4194 762.394 39.5056C762.59 42.4334 765.021 44.75 768 44.75C770.978 44.75 773.409 42.4334 773.605 39.5056C773.508 39.4194 773.397 39.3519 773.303 39.2581L768.663 34.6166Z" fill="#64B5F6"/>
<path d="M759.382 26.6626C759.636 26.4095 759.909 26.1939 760.194 25.9998C759.91 25.8048 759.636 25.5892 759.382 25.337L754.742 20.6964C754.647 20.6017 754.581 20.4929 754.494 20.3936C751.567 20.5904 749.25 23.0214 749.25 25.9998C749.25 28.9782 751.567 31.4092 754.494 31.6051C754.581 31.5076 754.647 31.397 754.742 31.3032L759.382 26.6626ZM767.042 25.5789C766.873 25.7261 766.707 25.8761 766.526 25.9998C766.707 26.1236 766.874 26.2736 767.042 26.4207C767.051 26.2811 767.062 26.1423 767.062 25.9998C767.062 25.8573 767.051 25.7186 767.042 25.5789Z" fill="#F48FB1"/>
<path d="M768.938 25.9998C768.938 26.1423 768.949 26.2811 768.957 26.4208C769.127 26.2736 769.292 26.1236 769.474 25.9998C769.294 25.8761 769.127 25.7261 768.957 25.5789C768.949 25.7186 768.938 25.8573 768.938 25.9998ZM786.75 25.9998C786.75 23.0214 784.433 20.5905 781.506 20.3945C781.419 20.493 781.352 20.6027 781.258 20.6973L776.617 25.338C776.363 25.5911 776.089 25.8067 775.806 26.0008C776.092 26.1958 776.365 26.4114 776.617 26.6636L781.258 31.3033C781.352 31.3989 781.419 31.5077 781.506 31.6061C784.433 31.4092 786.75 28.9783 786.75 25.9998Z" fill="#8BC34A"/>
<path d="M773.625 19.437C773.625 19.7914 773.588 20.1374 773.527 20.4739C773.862 20.4111 774.207 20.3745 774.562 20.3745H781.125C781.253 20.3745 781.379 20.3858 781.506 20.3942C783.427 18.1845 783.361 14.8442 781.258 12.7414C779.154 10.6395 775.814 10.572 773.604 12.4939C773.614 12.6205 773.625 12.7461 773.625 12.8745V19.437ZM768.957 25.5786C768.974 25.3695 768.999 25.1642 769.036 24.9627C768.834 25.0011 768.628 25.0255 768.421 25.0414C768.505 25.138 768.571 25.2449 768.663 25.3367C768.755 25.4286 768.862 25.4942 768.957 25.5786Z" fill="#C0CA33"/>
<path d="M768.663 17.3823C768.41 17.6354 768.194 17.9101 768 18.1941C769.302 20.1001 769.302 22.621 768 24.526C768.124 24.707 768.274 24.8738 768.421 25.0416C768.63 25.0257 768.834 25.0013 769.036 24.9629C769.461 22.6895 771.25 20.8988 773.524 20.4751C773.588 20.1376 773.625 19.7916 773.625 19.4373V12.8748C773.625 12.7463 773.614 12.6207 773.605 12.4941C773.508 12.5804 773.397 12.647 773.303 12.7416L768.663 17.3823Z" fill="#F9A825"/>
<path d="M774.562 20.375C774.207 20.375 773.862 20.4116 773.527 20.4744C773.102 22.7478 771.312 24.5384 769.039 24.9622C769 25.1638 768.976 25.37 768.96 25.5781C769.129 25.7253 769.294 25.8753 769.476 25.9991C771.381 24.6969 773.903 24.6969 775.807 25.9991C776.092 25.8041 776.367 25.5884 776.619 25.3363L781.259 20.6956C781.354 20.6009 781.42 20.4922 781.507 20.3928C781.379 20.3862 781.253 20.375 781.125 20.375H774.562Z" fill="#689F38"/>
<path d="M773.527 20.4746C771.253 20.8984 769.462 22.689 769.039 24.9624C771.311 24.5387 773.101 22.749 773.527 20.4746Z" fill="#827717"/>
<path d="M762.375 32.5625C762.375 32.2072 762.411 31.8622 762.474 31.5265C762.138 31.5884 761.792 31.625 761.437 31.625H754.875C754.746 31.625 754.621 31.6137 754.494 31.6053C752.572 33.815 752.639 37.1572 754.742 39.259C756.844 41.36 760.184 41.4275 762.395 39.5065C762.386 39.379 762.375 39.2534 762.375 39.125V32.5625ZM767.042 26.4209C767.026 26.63 767.001 26.8343 766.963 27.0359C767.165 26.9993 767.371 26.974 767.579 26.9571C767.495 26.8606 767.429 26.7537 767.337 26.6628C767.245 26.5718 767.138 26.5053 767.042 26.4209Z" fill="#BA68C8"/>
<path d="M767.337 34.6164C767.59 34.3633 767.806 34.0895 768 33.8055C766.698 31.9014 766.698 29.3795 768 27.4736C767.876 27.2936 767.726 27.1267 767.579 26.957C767.37 26.9739 767.165 26.9992 766.963 27.0358C766.539 29.3102 764.749 31.1008 762.475 31.5236C762.412 31.862 762.375 32.207 762.375 32.5623V39.1248C762.375 39.2533 762.386 39.3789 762.395 39.5055C762.493 39.4192 762.603 39.3517 762.697 39.258L767.337 34.6164Z" fill="#5C6BC0"/>
<path d="M761.437 31.6251C761.792 31.6251 762.138 31.5885 762.474 31.5266C762.898 29.2523 764.688 27.4616 766.962 27.0388C767 26.8373 767.025 26.6301 767.041 26.4229C766.872 26.2757 766.706 26.1257 766.525 26.002C764.62 27.3051 762.099 27.3051 760.193 26.002C759.908 26.197 759.634 26.4126 759.381 26.6648L754.741 31.3044C754.646 31.4001 754.579 31.5088 754.493 31.6073C754.621 31.6138 754.746 31.6251 754.875 31.6251H761.437Z" fill="#D81B60"/>
<path d="M762.475 31.5259C764.748 31.1012 766.539 29.3115 766.962 27.0381C764.689 27.4609 762.899 29.2515 762.475 31.5259Z" fill="#880E4F"/>
<path d="M767.579 25.0418C767.37 25.0258 767.165 25.0014 766.963 24.963C767.001 25.1646 767.026 25.3708 767.042 25.5789C767.138 25.4946 767.245 25.4289 767.337 25.3371C767.429 25.2452 767.495 25.1383 767.579 25.0418ZM761.437 20.3749C761.792 20.3749 762.138 20.4114 762.474 20.4743C762.411 20.1377 762.375 19.7918 762.375 19.4374V12.8749C762.375 12.7464 762.386 12.6208 762.395 12.4943C760.185 10.5724 756.845 10.6389 754.742 12.7418C752.639 14.8446 752.572 18.1839 754.494 20.3946C754.621 20.3861 754.746 20.3749 754.875 20.3749H761.437Z" fill="#FF5252"/>
<path d="M762.375 19.4372C762.375 19.7916 762.412 20.1375 762.474 20.4741C764.748 20.8979 766.538 22.6885 766.962 24.9619C767.164 25.0004 767.37 25.0247 767.578 25.0407C767.725 24.8719 767.875 24.706 767.999 24.525C766.697 22.62 766.697 20.0991 767.999 18.1932C767.804 17.9091 767.588 17.6344 767.336 17.3813L762.696 12.7407C762.601 12.646 762.492 12.5794 762.393 12.4932C762.386 12.6207 762.375 12.7463 762.375 12.8747V19.4372Z" fill="#EF6C00"/>
<path d="M759.382 25.3372C759.635 25.5903 759.91 25.8059 760.194 26C762.099 24.6978 764.62 24.6978 766.526 26C766.707 25.8762 766.874 25.7263 767.042 25.5791C767.026 25.37 767.001 25.1647 766.963 24.9631C764.689 24.5394 762.899 22.7488 762.475 20.4753C762.138 20.4116 761.792 20.375 761.437 20.375H754.875C754.746 20.375 754.621 20.3862 754.494 20.3947C754.58 20.4931 754.647 20.6028 754.742 20.6975L759.382 25.3372Z" fill="#F44336"/>
<path d="M762.475 20.4746C762.898 22.748 764.689 24.5387 766.962 24.9624C766.539 22.689 764.749 20.8993 762.475 20.4746Z" fill="#DD2C00"/>
<path d="M768 18.1934C766.698 20.0993 766.698 22.6202 768 24.5252C769.302 22.6202 769.302 20.0993 768 18.1934Z" fill="#E65100"/>
<path d="M760.193 26.0001C762.099 27.3023 764.62 27.3023 766.525 26.0001C764.62 24.6979 762.099 24.6979 760.193 26.0001Z" fill="#B71C1C"/>
<path d="M774.562 31.625C774.207 31.625 773.862 31.5884 773.527 31.5265C773.588 31.8621 773.625 32.2071 773.625 32.5625V39.125C773.625 39.2534 773.614 39.379 773.605 39.5056C775.815 41.4275 779.157 41.3609 781.259 39.2581C783.36 37.1543 783.427 33.814 781.507 31.6043C781.379 31.6137 781.253 31.625 781.125 31.625H774.562ZM768.421 26.9571C768.63 26.974 768.834 26.9993 769.036 27.0359C768.999 26.8343 768.974 26.6281 768.957 26.4209C768.861 26.5053 768.754 26.5709 768.663 26.6628C768.572 26.7546 768.505 26.8615 768.421 26.9571Z" fill="#00ACC1"/>
<path d="M773.625 32.5625C773.625 32.2071 773.589 31.8621 773.527 31.5265C771.252 31.1018 769.462 29.3121 769.039 27.0387C768.837 27.0003 768.63 26.9759 768.423 26.96C768.276 27.1287 768.126 27.2937 768.002 27.4756C769.305 29.3806 769.305 31.9034 768.002 33.8075C768.197 34.0934 768.413 34.3671 768.665 34.6193L773.304 39.259C773.4 39.3537 773.509 39.4203 773.607 39.5075C773.614 39.379 773.625 39.2534 773.625 39.125V32.5625Z" fill="#0277BD"/>
<path d="M776.616 26.6628C776.363 26.4097 776.09 26.1941 775.805 26C773.9 27.3022 771.38 27.3022 769.474 26C769.294 26.1238 769.127 26.2737 768.957 26.4209C768.974 26.63 768.999 26.8344 769.036 27.0359C771.31 27.4606 773.101 29.2503 773.524 31.5238C773.862 31.5884 774.207 31.625 774.562 31.625H781.125C781.253 31.625 781.379 31.6137 781.505 31.6053C781.419 31.5078 781.352 31.3972 781.258 31.3034L776.616 26.6628Z" fill="#00796B"/>
<path d="M773.527 31.5259C773.102 29.2515 771.313 27.4609 769.039 27.0381C769.462 29.3097 771.253 31.1003 773.527 31.5259Z" fill="#006064"/>
<path d="M769.474 26.0001C771.38 27.3023 773.901 27.3023 775.806 26.0001C773.901 24.6979 771.38 24.6979 769.474 26.0001Z" fill="#1B5E20"/>
<path d="M768 33.8055C769.302 31.9014 769.302 29.3796 768 27.4736C766.698 29.3796 766.698 31.9014 768 33.8055Z" fill="#0D47A1"/>
<path d="M661 76.208C650.638 76.208 642.25 84.2014 642.25 93.9712C642.25 99.1027 644.52 103.642 648.171 106.899V115.682L655.868 111.044C657.447 111.438 659.224 111.734 661 111.734C671.362 111.734 679.75 103.741 679.75 93.9712C679.75 84.2014 671.362 76.208 661 76.208Z" fill="#448AFF"/>
<path d="M649.158 99.8914L659.027 89.0361L663.961 93.9703L672.842 89.0361L662.974 99.8914L658.04 94.9572L649.158 99.8914Z" fill="white"/>
<path d="M449.001 77.3545C446.527 77.3545 438.998 77.3545 434.835 81.1551C432.357 83.6245 431.188 87.1926 431.188 92.3545V95.167C431.188 100.329 432.357 103.897 434.864 106.394C436.113 107.534 437.816 108.444 439.897 109.073L440.563 109.274V114.269C440.563 114.854 440.733 114.854 440.789 114.854C440.905 114.854 441.089 114.818 441.44 114.507C441.524 114.423 442.143 113.754 445.153 110.383L445.456 110.042L445.911 110.071C446.919 110.134 447.958 110.167 449.001 110.167C451.475 110.167 459.004 110.167 463.167 106.365C465.644 103.896 466.813 100.328 466.813 95.167V92.3545C466.813 87.1926 465.645 83.6245 463.138 81.127C459.004 77.3545 451.475 77.3545 449.001 77.3545Z" fill="white"/>
<path d="M457.862 99.7176C456.82 98.8401 456.339 98.5748 454.901 97.7114C454.302 97.3523 453.389 97.042 452.91 97.042C452.582 97.042 452.191 97.2923 451.951 97.5323C451.336 98.1473 451.134 98.917 450.056 98.917C449.001 98.917 447.159 97.8436 445.837 96.4561C444.45 95.1342 443.376 93.292 443.376 92.2373C443.376 91.1592 444.132 90.9436 444.747 90.3276C444.987 90.0886 445.251 89.6967 445.251 89.3695C445.251 88.8904 444.941 87.9914 444.582 87.3923C443.718 85.9532 443.454 85.4723 442.576 84.4317C442.278 84.0792 441.94 83.9179 441.586 83.917C440.986 83.9161 440.2 84.2132 439.667 84.6098C438.867 85.207 438.03 86.0198 437.806 87.0323C437.776 87.1701 437.758 87.3089 437.752 87.4476C437.709 88.5023 438.123 89.5729 438.571 90.4795C439.623 92.6161 441.016 94.6842 442.532 96.5311C443.017 97.1217 443.545 97.6711 444.091 98.2017C444.622 98.7473 445.171 99.2751 445.762 99.7608C447.609 101.277 449.677 102.67 451.814 103.723C452.712 104.165 453.769 104.572 454.814 104.542C454.963 104.537 455.112 104.52 455.261 104.488C456.273 104.265 457.086 103.426 457.683 102.626C458.08 102.093 458.377 101.308 458.376 100.708C458.375 100.353 458.214 100.015 457.862 99.7176ZM458.376 95.167C457.859 95.167 457.439 94.747 457.439 94.2295V93.292C457.439 88.6401 453.653 84.8545 449.001 84.8545C448.484 84.8545 448.064 84.4345 448.064 83.917C448.064 83.3995 448.484 82.9795 449.001 82.9795C454.687 82.9795 459.314 87.6061 459.314 93.292V94.2295C459.314 94.747 458.894 95.167 458.376 95.167ZM452.618 93.292C452.202 93.292 451.821 93.0126 451.711 92.5907C451.455 91.6054 450.686 90.8357 449.704 90.5826C449.203 90.4523 448.902 89.9414 449.031 89.4398C449.161 88.9392 449.671 88.6382 450.174 88.7667C451.813 89.1914 453.097 90.4748 453.526 92.1173C453.656 92.6189 453.356 93.1298 452.855 93.2611C452.776 93.2817 452.696 93.292 452.618 93.292Z" fill="#7E57C2"/>
<path d="M455.563 94.2316C455.045 94.2316 454.625 93.8116 454.625 93.2941C454.625 90.3053 452.287 87.8397 449.302 87.6822C448.785 87.655 448.388 87.2134 448.415 86.6969C448.443 86.1794 448.892 85.7819 449.401 85.81C453.382 86.02 456.5 89.3078 456.5 93.2941C456.5 93.8116 456.08 94.2316 455.563 94.2316Z" fill="#7E57C2"/>
<path d="M449 76.417C444.782 76.417 438.208 76.8051 434.203 80.4632C431.372 83.2823 430.25 87.2367 430.25 92.3545C430.25 92.7782 430.249 93.2507 430.252 93.7607C430.249 94.2698 430.25 94.7423 430.25 95.1661C430.25 100.284 431.372 104.238 434.203 107.057C435.727 108.449 437.629 109.365 439.625 109.969V114.269C439.625 115.765 440.609 115.792 440.789 115.792H440.797C441.26 115.79 441.661 115.563 442.062 115.207C442.213 115.073 443.956 113.13 445.851 111.006C446.98 111.078 448.053 111.104 449 111.104C453.218 111.104 459.791 110.715 463.797 107.057C466.627 104.239 467.75 100.284 467.75 95.1661C467.75 94.7423 467.751 94.2698 467.748 93.7598C467.751 93.2498 467.75 92.7782 467.75 92.3536C467.75 87.2357 466.628 83.2814 463.797 80.4623C459.792 76.8051 453.219 76.417 449 76.417ZM464.938 94.8398V95.1661C464.938 99.7654 463.958 102.899 461.857 105.021C458.218 108.292 451.285 108.292 449 108.292C448.304 108.292 447.175 108.291 445.843 108.198C445.473 108.614 441.5 113.057 441.5 113.057V107.561C439.528 107.087 437.579 106.311 436.144 105.022C434.043 102.899 433.063 99.7654 433.063 95.1661V94.8398C433.063 94.5107 433.062 94.1554 433.065 93.7401C433.062 93.3651 433.062 93.0107 433.063 92.6807V92.3545C433.063 87.7551 434.043 84.6211 436.144 82.4995C439.782 79.2286 446.716 79.2286 449 79.2286C451.285 79.2286 458.218 79.2286 461.856 82.4995C463.958 84.6211 464.937 87.7551 464.937 92.3545V92.6807C464.937 93.0098 464.938 93.3651 464.935 93.7804C464.938 94.1564 464.938 94.5107 464.938 94.8398Z" fill="#7E57C2"/>
<path d="M565.429 114.73L544.607 114.75C540.026 114.754 536.275 111.01 536.27 106.429L536.25 85.607C536.246 81.0261 539.99 77.275 544.571 77.2698L565.393 77.25C569.974 77.2458 573.725 80.9897 573.73 85.5706L573.75 106.393C573.755 110.975 570.01 114.726 565.429 114.73Z" fill="url(#paint7_linear)"/>
<path opacity="0.07" d="M545.222 92.3593C545.047 92.3593 544.866 92.3999 544.698 92.4843C544.422 92.6218 544.216 92.8593 544.118 93.152C543.96 93.6239 544.122 94.1416 544.52 94.4395L548.349 96.8312L548.2 97.2291C548.131 97.4156 546.46 101.816 543.301 103.538C543.133 103.63 543.026 103.753 543.016 103.869C543.004 103.985 543.097 104.091 543.177 104.157C543.86 104.729 544.567 105.135 545.974 105.394L546.4 105.472L546.401 105.905C546.403 106.538 546.604 107.208 546.792 107.208C547.722 107.208 549.657 107.208 551.592 108.175C552.665 108.711 554.167 109.032 554.999 109.032C555.831 109.032 557.333 108.711 558.406 108.175C560.34 107.208 562.276 107.208 563.206 107.208C563.395 107.208 563.596 106.538 563.597 105.905L563.598 105.472L564.024 105.394C565.431 105.136 566.137 104.73 566.822 104.157C566.902 104.091 566.995 103.985 566.983 103.869C566.972 103.753 566.865 103.63 566.698 103.538C563.54 101.816 561.869 97.4156 561.799 97.2291L561.65 96.8312L565.515 94.4145C565.876 94.1406 566.037 93.6239 565.88 93.152C565.783 92.8593 565.577 92.6229 565.301 92.4843C565.026 92.3458 564.714 92.3249 564.42 92.4218L561.768 93.5072V89.8541C561.768 86.0666 558.732 82.9854 555.001 82.9854C551.266 82.9854 548.23 86.0666 548.23 89.8541V93.5083L545.547 92.4114C545.446 92.377 545.335 92.3593 545.222 92.3593Z" fill="black"/>
<path opacity="0.05" d="M555 109.552C555.904 109.552 557.486 109.217 558.639 108.641C560.463 107.729 562.294 107.729 563.206 107.729C564.117 107.729 564.117 105.906 564.117 105.906C565.566 105.641 566.363 105.22 567.156 104.557C567.709 104.093 567.58 103.426 566.946 103.082C563.923 101.433 562.286 97.0472 562.286 97.0472L565.79 94.8555C566.367 94.4232 566.602 93.6701 566.375 92.9857C566.082 92.1076 565.132 91.6337 564.255 91.9274L562.289 92.7305V89.8535C562.289 85.8285 559.027 82.4639 555.002 82.4639H554.998C550.973 82.4639 547.71 85.8285 547.71 89.8535V92.7316L545.744 91.9284C544.866 91.6347 543.917 92.1087 543.625 92.9868C543.396 93.6701 543.632 94.4232 544.209 94.8566L547.713 97.0482C547.713 97.0482 546.078 101.433 543.053 103.083C542.419 103.427 542.29 104.095 542.843 104.558C543.635 105.221 544.433 105.642 545.882 105.907C545.882 105.907 545.882 107.731 546.793 107.731C547.705 107.731 549.536 107.731 551.36 108.642C552.513 109.217 554.095 109.552 555 109.552Z" stroke="#1D1D1B" stroke-width="10"/>
<path opacity="0.07" d="M555 109.552C555.904 109.552 557.486 109.217 558.639 108.641C560.463 107.729 562.294 107.729 563.206 107.729C564.117 107.729 564.117 105.906 564.117 105.906C565.566 105.641 566.363 105.22 567.156 104.557C567.709 104.093 567.58 103.426 566.946 103.082C563.923 101.433 562.286 97.0472 562.286 97.0472L565.79 94.8555C566.367 94.4232 566.602 93.6701 566.375 92.9857C566.082 92.1076 565.132 91.6337 564.255 91.9274L562.289 92.7305V89.8535C562.289 85.8285 559.027 82.4639 555.002 82.4639H554.998C550.973 82.4639 547.71 85.8285 547.71 89.8535V92.7316L545.744 91.9284C544.866 91.6347 543.917 92.1087 543.625 92.9868C543.396 93.6701 543.632 94.4232 544.209 94.8566L547.713 97.0482C547.713 97.0482 546.078 101.433 543.053 103.083C542.419 103.427 542.29 104.095 542.843 104.558C543.635 105.221 544.433 105.642 545.882 105.907C545.882 105.907 545.882 107.731 546.793 107.731C547.705 107.731 549.536 107.731 551.36 108.642C552.513 109.217 554.095 109.552 555 109.552Z" stroke="black" stroke-width="5"/>
<path d="M555 109.552C555.904 109.552 557.486 109.217 558.639 108.641C560.463 107.729 562.294 107.729 563.206 107.729C564.117 107.729 564.117 105.906 564.117 105.906C565.566 105.641 566.363 105.22 567.156 104.557C567.709 104.093 567.58 103.426 566.946 103.082C563.923 101.433 562.286 97.0472 562.286 97.0472L565.79 94.8555C566.367 94.4232 566.602 93.6701 566.375 92.9857C566.082 92.1076 565.132 91.6337 564.255 91.9274L562.289 92.7305V89.8535C562.289 85.8285 559.027 82.4639 555.002 82.4639H554.998C550.973 82.4639 547.71 85.8285 547.71 89.8535V92.7316L545.744 91.9284C544.866 91.6347 543.917 92.1087 543.625 92.9868C543.396 93.6701 543.632 94.4232 544.209 94.8566L547.713 97.0482C547.713 97.0482 546.078 101.433 543.053 103.083C542.419 103.427 542.29 104.095 542.843 104.558C543.635 105.221 544.433 105.642 545.882 105.907C545.882 105.907 545.882 107.731 546.793 107.731C547.705 107.731 549.536 107.731 551.36 108.642C552.513 109.217 554.095 109.552 555 109.552Z" fill="white"/>
<path d="M219.185 113.818L221.702 104.667C220.149 101.989 219.332 98.9506 219.333 95.8383C219.338 86.1014 227.295 78.1797 237.074 78.1797C241.82 78.1815 246.273 80.021 249.623 83.3585C252.972 86.6968 254.816 91.1331 254.814 95.8523C254.811 105.589 246.852 113.512 237.074 113.512C237.073 113.512 237.074 113.512 237.074 113.512H237.067C234.098 113.511 231.18 112.769 228.589 111.362L219.185 113.818Z" fill="white"/>
<path d="M219.185 114.284C219.061 114.284 218.942 114.236 218.853 114.147C218.736 114.029 218.69 113.856 218.734 113.697L221.2 104.732C219.671 102.028 218.865 98.9575 218.867 95.8406C218.871 85.8459 227.038 77.7158 237.074 77.7158C241.942 77.7177 246.516 79.6055 249.954 83.0314C253.391 86.4581 255.284 91.0116 255.282 95.8536C255.278 105.847 247.11 113.978 237.074 113.978C234.095 113.977 231.147 113.245 228.53 111.86L219.303 114.269C219.264 114.28 219.225 114.284 219.185 114.284Z" fill="white"/>
<path d="M237.074 78.1804C241.82 78.1823 246.273 80.0217 249.623 83.3592C252.972 86.6976 254.817 91.1339 254.815 95.853C254.811 105.59 246.852 113.513 237.074 113.513H237.067C234.098 113.512 231.18 112.77 228.589 111.362L219.185 113.819L221.702 104.668C220.149 101.99 219.332 98.9513 219.333 95.839C219.338 86.1021 227.295 78.1804 237.074 78.1804ZM237.074 77.25C226.781 77.25 218.404 85.5885 218.399 95.839C218.398 98.9718 219.192 102.059 220.698 104.792L218.283 113.574C218.195 113.895 218.285 114.237 218.52 114.474C218.698 114.652 218.938 114.75 219.185 114.75C219.264 114.75 219.344 114.74 219.422 114.719L228.473 112.356C231.116 113.722 234.078 114.443 237.067 114.444C247.368 114.444 255.745 106.104 255.75 95.8539C255.752 90.8864 253.811 86.2156 250.286 82.7023C246.758 79.1881 242.067 77.2519 237.074 77.25Z" fill="#CFD8DC"/>
<path d="M247.504 85.4682C244.72 82.6937 241.019 81.165 237.079 81.1641C228.946 81.1641 222.332 87.7478 222.328 95.8406C222.327 98.6143 223.106 101.314 224.583 103.653L224.934 104.208L223.444 109.624L229.025 108.167L229.564 108.485C231.827 109.823 234.423 110.53 237.069 110.531H237.075C245.202 110.531 251.816 103.947 251.819 95.8527C251.82 91.931 250.289 88.2428 247.504 85.4682Z" fill="#40C351"/>
<path fill-rule="evenodd" clip-rule="evenodd" d="M232.64 88.4568C232.308 87.7218 231.959 87.7069 231.642 87.6938C231.383 87.6827 231.088 87.6836 230.793 87.6836C230.497 87.6836 230.017 87.7943 229.611 88.2363C229.204 88.6782 228.059 89.7454 228.059 91.9171C228.059 94.0887 229.647 96.1877 229.868 96.4817C230.09 96.7758 232.935 101.375 237.441 103.145C241.185 104.615 241.947 104.322 242.76 104.249C243.573 104.175 245.383 103.182 245.752 102.151C246.121 101.12 246.121 100.237 246.011 100.053C245.9 99.8685 245.604 99.7587 245.162 99.5373C244.719 99.3158 242.539 98.2486 242.132 98.1016C241.726 97.9546 241.431 97.8811 241.134 98.3231C240.839 98.7641 239.99 99.7587 239.731 100.053C239.472 100.348 239.213 100.385 238.77 100.163C238.327 99.942 236.9 99.4768 235.206 97.9732C233.888 96.8037 232.999 95.3587 232.74 94.9168C232.481 94.4757 232.712 94.2366 232.934 94.0161C233.133 93.8179 233.377 93.5006 233.599 93.2429C233.821 92.9852 233.895 92.801 234.042 92.507C234.19 92.212 234.116 91.9543 234.005 91.7338C233.896 91.5123 233.034 89.3295 232.64 88.4568Z" fill="white"/>
<path d="M356.445 77.25H329.555C326.625 77.25 324.25 79.6253 324.25 82.5554V109.444C324.25 112.375 326.625 114.75 329.555 114.75H356.444C359.375 114.75 361.75 112.375 361.75 109.445V82.5554C361.75 79.6253 359.375 77.25 356.445 77.25Z" fill="url(#paint8_linear)"/>
<path d="M348.966 102.634C348.966 103.206 348.501 103.671 347.928 103.671H332.63C330.826 103.671 329.363 102.199 329.363 100.384V89.3673C329.363 88.7946 329.828 88.3301 330.4 88.3301H345.699C347.503 88.3301 348.966 89.802 348.966 91.6173V102.634Z" fill="white"/>
<path d="M356.287 102.898L351.028 99.5171C350.805 99.374 350.67 99.1268 350.67 98.8617V93.1379C350.67 92.8728 350.805 92.6257 351.028 92.4825L356.287 89.1015C356.805 88.7683 357.488 89.1407 357.488 89.7569V102.242C357.488 102.859 356.805 103.231 356.287 102.898Z" fill="white"/>
<path d="M144.635 94.5747C144.526 88.7946 139.789 84.125 133.983 84.125C130.453 84.125 127.236 85.8236 125.243 88.7043C124.627 88.4929 123.986 88.3864 123.33 88.3864C120.523 88.3864 118.116 90.3517 117.513 93.0423C114.388 94.071 112.25 96.9875 112.25 100.318C112.25 104.548 115.691 107.989 119.92 107.989H142.932C146.691 107.989 149.75 104.93 149.75 101.17C149.75 98.0503 147.599 95.3392 144.635 94.5747Z" fill="#468CDF"/>
<defs>
<radialGradient id="paint0_radial" cx="0" cy="0" r="1" gradientUnits="userSpaceOnUse" gradientTransform="translate(874.371 41.2645) scale(36.4357)">
<stop stop-color="#FE7356"/>
<stop offset="1" stop-color="#FD297C"/>
</radialGradient>
<radialGradient id="paint1_radial" cx="0" cy="0" r="1" gradientUnits="userSpaceOnUse" gradientTransform="translate(20.1906 114.777) scale(46.7451)">
<stop stop-color="#FFDD55"/>
<stop offset="0.328" stop-color="#FF543F"/>
<stop offset="0.348" stop-color="#FC5245"/>
<stop offset="0.504" stop-color="#E64771"/>
<stop offset="0.643" stop-color="#D53E91"/>
<stop offset="0.761" stop-color="#CC39A4"/>
<stop offset="0.841" stop-color="#C837AB"/>
</radialGradient>
<radialGradient id="paint2_radial" cx="0" cy="0" r="1" gradientUnits="userSpaceOnUse" gradientTransform="translate(12.2768 76.7708) scale(31.0552 20.6921)">
<stop stop-color="#4168C9"/>
<stop offset="0.999" stop-color="#4168C9" stop-opacity="0"/>
</radialGradient>
<linearGradient id="paint3_linear" x1="326.927" y1="17.1662" x2="350.866" y2="29.8947" gradientUnits="userSpaceOnUse">
<stop stop-color="#4CAF50"/>
<stop offset="0.489" stop-color="#4AAF50"/>
<stop offset="0.665" stop-color="#43AD50"/>
<stop offset="0.79" stop-color="#38AA50"/>
<stop offset="0.892" stop-color="#27A550"/>
<stop offset="0.978" stop-color="#11A050"/>
<stop offset="1" stop-color="#0A9E50"/>
</linearGradient>
<linearGradient id="paint4_linear" x1="352.982" y1="43.75" x2="352.982" y2="16.7528" gradientUnits="userSpaceOnUse">
<stop stop-color="#FFD747"/>
<stop offset="0.482" stop-color="#FFD645"/>
<stop offset="0.655" stop-color="#FED43E"/>
<stop offset="0.779" stop-color="#FCCF33"/>
<stop offset="0.879" stop-color="#FAC922"/>
<stop offset="0.964" stop-color="#F7C10C"/>
<stop offset="1" stop-color="#F5BC00"/>
</linearGradient>
<linearGradient id="paint5_linear" x1="355.371" y1="7.84656" x2="332.351" y2="22.2306" gradientUnits="userSpaceOnUse">
<stop stop-color="#F7572F"/>
<stop offset="0.523" stop-color="#F7552D"/>
<stop offset="0.712" stop-color="#F75026"/>
<stop offset="0.846" stop-color="#F7461B"/>
<stop offset="0.954" stop-color="#F7390A"/>
<stop offset="1" stop-color="#F73100"/>
</linearGradient>
<linearGradient id="paint6_linear" x1="339.359" y1="20.3594" x2="348.641" y2="29.6406" gradientUnits="userSpaceOnUse">
<stop stop-color="#2AA4F4"/>
<stop offset="1" stop-color="#007AD9"/>
</linearGradient>
<linearGradient id="paint7_linear" x1="551.462" y1="75.9288" x2="558.539" y2="116.072" gradientUnits="userSpaceOnUse">
<stop stop-color="#FEDE00"/>
<stop offset="1" stop-color="#FFD000"/>
</linearGradient>
<linearGradient id="paint8_linear" x1="343" y1="119.455" x2="343" y2="81.9554" gradientUnits="userSpaceOnUse">
<stop stop-color="#155CDE"/>
<stop offset="0.278" stop-color="#1F7FE5"/>
<stop offset="0.569" stop-color="#279CEB"/>
<stop offset="0.82" stop-color="#2CAFEF"/>
<stop offset="1" stop-color="#2EB5F0"/>
</linearGradient>
</defs>
</svg>
