<svg width="445" height="32" viewBox="0 0 445 32" fill="none" xmlns="http://www.w3.org/2000/svg">
<path d="M367.823 22.2137C365.466 22.2335 363.236 22.2562 362.614 22.1883C361.355 22.0554 360.514 21.0527 360.417 19.5769C360.35 18.6091 360.35 17.8069 360.413 17.0434C360.527 15.6071 361.515 14.238 362.614 14.1735C363.008 14.1474 364.063 14.1504 365.971 14.1595L371.526 14.1735V11.3672C371.526 11.3672 367.101 11.361 365.771 11.3537C363.985 11.3438 363.086 11.3424 362.517 11.3672C361.266 11.425 360.216 11.968 359.4 12.9772C358.628 13.9294 358.167 15.4451 358.099 16.9796C358.06 17.8069 358.047 18.8887 358.099 19.5318C358.227 21.1812 358.665 22.4762 359.4 23.3832C360.186 24.3573 361.382 24.9739 362.519 24.9937C363.451 25.0079 371.526 24.9937 371.526 24.9937V22.188C371.526 22.188 369.073 22.2002 367.823 22.2137ZM342.745 11.5163V14.3199H348.226V24.9439H350.54V14.3199H356.022V11.5163H342.745ZM340.342 16.8186C340.325 15.3091 339.889 14.0132 339.04 12.9662C338.156 11.8707 336.806 11.4151 335.923 11.3578C335.155 11.3053 332.129 11.3218 331.418 11.3578C330.417 11.4096 329.688 11.773 329.322 12.1052C329.319 12.1082 329.315 12.1068 329.315 12.0999V7H327V24.9941H329.311C329.311 24.9941 329.266 17.6286 329.317 16.8268C329.409 15.4006 330.298 14.2809 331.429 14.16C332.338 14.0652 335.063 14.0912 335.918 14.1623C337.092 14.2607 337.959 15.3784 338.027 16.883C338.049 17.437 338.026 24.9939 338.026 24.9939H340.342C340.342 24.9937 340.348 17.4664 340.342 16.8186Z" fill="#EAEBED"/>
<path d="M141.952 25.9991C141.846 25.9983 141.744 25.9559 141.669 25.881C141.594 25.8061 141.552 25.7047 141.551 25.5988V6.40039C141.552 6.29445 141.594 6.19306 141.669 6.11815C141.744 6.04324 141.846 6.00083 141.952 6.00009H146.59C146.644 5.99897 146.697 6.00848 146.746 6.02807C146.796 6.04766 146.841 6.07694 146.879 6.1142C146.918 6.15146 146.948 6.19595 146.969 6.24509C146.99 6.29422 147.001 6.34701 147.001 6.40039V25.5988C147.001 25.8238 146.815 26.0037 146.59 25.9991H141.952ZM134.173 25.9991C134.173 25.9991 133.802 25.8866 133.802 25.5988V13.812C133.814 13.4445 133.751 13.0785 133.617 12.7359C133.483 12.3934 133.282 12.0814 133.025 11.8187C132.767 11.556 132.46 11.3481 132.12 11.2073C131.78 11.0665 131.416 10.9959 131.048 10.9996H122.376C121.874 10.9996 122 11.3755 122 11.3755V25.5988C122 25.9353 121.625 25.9991 121.625 25.9991H117.411C117.357 26.0002 117.304 25.9907 117.255 25.9711C117.205 25.9515 117.16 25.9222 117.121 25.885C117.083 25.8477 117.053 25.8032 117.032 25.7541C117.011 25.7049 117 25.6521 117 25.5988V6.40039C117 6.1754 117.186 5.9954 117.411 6.00009H133.489C134.899 6.0107 136.248 6.57717 137.243 7.57645C138.237 8.57573 138.798 9.92712 138.802 11.3371L138.811 25.5997C138.811 25.6523 138.801 25.7044 138.781 25.753C138.761 25.8017 138.731 25.8458 138.694 25.883C138.657 25.9202 138.613 25.9497 138.564 25.9698C138.516 25.9899 138.463 26.0001 138.411 26L134.173 25.9991ZM125.551 25.9991C125.451 25.9991 125.355 25.9595 125.285 25.889C125.214 25.8185 125.175 25.7228 125.175 25.6231V14.3735C125.175 14.1682 125.345 13.9976 125.551 13.9976H130.262C130.468 14.007 130.623 14.1739 130.623 14.3735V25.6231C130.624 25.6722 130.615 25.721 130.596 25.7665C130.578 25.812 130.55 25.8535 130.516 25.8884C130.481 25.9233 130.44 25.9511 130.395 25.9701C130.35 25.9891 130.301 25.9989 130.252 25.9991H125.551Z" fill="#EAEBED"/>
<path d="M259.062 9.51877C259.062 9.51877 257.014 11.476 256.902 13.5461V13.9311C256.992 15.6038 258.254 16.5887 258.254 16.5887C260.277 18.5675 265.177 21.0566 266.326 21.6191C266.326 21.6191 266.395 21.654 266.438 21.6108L266.46 21.5677V21.5204C263.319 14.6754 259.061 9.5196 259.061 9.5196L259.062 9.51877ZM265.674 23.3034C265.653 23.213 265.566 23.213 265.566 23.213L257.403 23.5026C258.285 25.084 259.78 26.2987 261.34 25.9353C262.403 25.659 264.836 23.9647 265.631 23.3897C265.7 23.3333 265.674 23.2902 265.674 23.2902V23.3034ZM265.765 22.4389C262.178 20.0145 255.233 16.3115 255.233 16.3115C255.085 16.7755 255.006 17.259 255 17.7461V17.8241C255 19.0081 255.441 19.8378 255.441 19.8378C256.327 21.7087 258.029 22.2754 258.029 22.2754C258.808 22.604 259.581 22.6164 259.581 22.6164C259.714 22.638 264.447 22.6164 265.708 22.6164C265.765 22.6164 265.799 22.56 265.799 22.56V22.4953C265.799 22.4605 265.764 22.4389 265.764 22.4389H265.765ZM265.021 6.25555C264.237 6.45628 263.538 6.90274 263.027 7.52953C262.515 8.15632 262.218 8.93049 262.178 9.73864V10.1925C262.197 10.585 262.257 10.9745 262.355 11.3549C263.085 14.5617 266.629 19.8162 267.39 20.9222C267.446 20.9786 267.502 20.957 267.502 20.957C267.523 20.9476 267.541 20.9316 267.552 20.9115C267.564 20.8914 267.569 20.8681 267.567 20.845C268.742 9.12134 266.34 6.00083 266.34 6.00083C265.985 6.0224 265.021 6.25555 265.021 6.25555ZM274.204 8.76623C274.204 8.76623 273.664 6.77411 271.508 6.24227C271.508 6.24227 270.877 6.08629 270.211 6C270.211 6 267.8 9.10723 268.971 20.8566C268.984 20.9346 269.039 20.9429 269.039 20.9429C269.117 20.9778 269.147 20.9131 269.147 20.9131C269.947 19.7722 273.464 14.5393 274.182 11.3541C274.182 11.3541 274.579 9.80252 274.203 8.7654L274.204 8.76623ZM270.976 23.2254C270.976 23.2254 270.898 23.2254 270.876 23.2777C270.876 23.2777 270.863 23.3557 270.906 23.3897C271.68 23.9556 274.061 25.6025 275.202 25.9353C275.202 25.9353 275.379 25.9917 275.677 26H275.828C276.593 25.9784 277.932 25.5934 279.147 23.5026L270.962 23.2263L270.976 23.2254ZM279.636 13.922C279.792 11.6403 277.488 9.52706 277.488 9.51877C277.488 9.51877 273.232 14.6745 270.111 21.4673C270.111 21.4673 270.077 21.5536 270.133 21.61L270.176 21.6183H270.245C271.416 21.035 276.282 18.5542 278.296 16.597C278.296 16.597 279.57 15.5681 279.636 13.922H279.636ZM281.317 16.29C281.317 16.29 274.373 20.0153 270.786 22.4264C270.786 22.4264 270.729 22.4737 270.751 22.5517C270.751 22.5517 270.786 22.6164 270.829 22.6164C272.113 22.6164 276.983 22.6164 277.104 22.5949C277.104 22.5949 277.735 22.5733 278.509 22.2754C278.509 22.2754 280.233 21.722 281.131 19.7606C281.131 19.7606 281.94 18.1576 281.317 16.2908V16.29Z" fill="#EAEBED"/>
<path d="M191.608 9C189.855 9 188.175 9.69617 186.935 10.9354C185.696 12.1746 185 13.8553 185 15.6078C185 17.3603 185.696 19.041 186.935 20.2802C188.175 21.5194 189.855 22.2155 191.608 22.2155C193.338 22.1819 194.986 21.4709 196.198 20.2354C197.409 18.9999 198.088 17.3383 198.088 15.6078C198.088 13.8772 197.409 12.2157 196.198 10.9802C194.986 9.74462 193.338 9.03366 191.608 9ZM191.608 10.075C191.67 10.075 191.803 10.075 191.87 10.0775V10.5938C191.783 10.5919 191.695 10.5907 191.608 10.5901C190.949 10.5884 190.297 10.7174 189.688 10.9695C189.08 11.2216 188.527 11.5919 188.063 12.0589C187.595 12.5232 187.225 13.0757 186.973 13.6842C186.721 14.2928 186.592 14.9453 186.594 15.604C186.594 16.9441 187.115 18.2041 188.063 19.1492C188.527 19.6162 189.08 19.9864 189.688 20.2385C190.297 20.4907 190.949 20.6196 191.608 20.618C192.879 20.616 194.102 20.1324 195.03 19.2646C195.959 18.3968 196.524 17.2094 196.612 15.9415V15.8665H193.189V15.354H196.915L197.137 15.3528V15.604C197.139 16.3304 196.997 17.0499 196.72 17.7211C196.442 18.3923 196.034 19.0018 195.519 19.5142C195.006 20.0294 194.397 20.4378 193.725 20.7159C193.053 20.9939 192.333 21.1361 191.607 21.1343C190.131 21.1343 188.743 20.5592 187.694 19.5142C187.179 19.0016 186.772 18.3922 186.494 17.721C186.217 17.0498 186.075 16.3303 186.078 15.604C186.079 14.1377 186.662 12.7319 187.699 11.6949C188.736 10.658 190.141 10.0745 191.608 10.0725V10.075ZM211.686 11.1726C208.923 11.1726 207.471 12.6814 207.471 15.5578C207.471 18.4204 208.783 19.9705 211.672 19.9705C212.997 19.9705 214.295 19.6329 215 19.1392V14.994H211.575V16.5866H213.181V18.0804C212.885 18.1929 212.307 18.3066 211.757 18.3066C209.982 18.3066 209.389 17.4041 209.389 15.5715C209.389 13.824 209.952 12.7939 211.729 12.7939C212.716 12.7939 213.28 13.1039 213.745 13.6964L214.972 12.5689C214.225 11.4976 212.914 11.1726 211.686 11.1726ZM201.169 11.3001V19.843H207.232V18.1804H203.145V11.2988L201.169 11.3001ZM189.498 12.7039C189.708 12.7039 189.91 12.7875 190.059 12.9364C190.208 13.0853 190.291 13.2872 190.291 13.4977C190.291 13.7082 190.208 13.9101 190.059 14.059C189.91 14.2078 189.708 14.2915 189.498 14.2915C189.287 14.2915 189.085 14.2078 188.936 14.059C188.788 13.9101 188.704 13.7082 188.704 13.4977C188.704 13.2872 188.788 13.0853 188.936 12.9364C189.085 12.7875 189.287 12.7039 189.498 12.7039ZM191.345 12.7064H191.87V17.9816H193.185V18.4991H191.345V12.7064Z" fill="#EAEBED"/>
<path d="M64.7503 10.3842L64.8999 19.4556H64.8263L62.3516 10.3842H58.2952V21.8112H60.9789L60.8293 12.4239H60.9029L63.551 21.8112H67.434V10.3842H64.7503ZM13.6158 10.3842L11.5876 21.93H14.5182L16.0144 11.4255H16.0762L17.5368 21.93H20.4437L18.4392 10.3842H13.6158ZM30.017 10.3842L28.6799 19.1902H28.6063L27.2573 10.3842H22.8281L22.6167 21.93H25.3384L25.412 11.5443H25.4358L27.255 21.93H30.0123L31.8314 11.5443H31.9051L31.9787 21.93H34.7004L34.4415 10.3842H30.017ZM7.00872 18.6518C7.12034 18.9147 7.08234 19.309 7.04672 19.4935C6.97309 19.8878 6.71185 20.2694 5.99463 20.2694C5.30115 20.2694 4.90691 19.8473 4.90691 19.2306V18.1109H2V18.993C2 21.5863 3.91657 22.3496 5.959 22.3496C7.91357 22.3496 9.54514 21.6267 9.80638 19.7311C9.956 18.7302 9.84438 18.073 9.80638 17.8354C9.29815 15.3989 5.15628 14.7164 4.87129 13.3591C4.83296 13.1547 4.83296 12.9443 4.87129 12.7399C4.94491 12.3582 5.1919 11.9639 5.84738 11.9639C6.50286 11.9639 6.86147 12.386 6.86147 13.0027V13.7003H9.58314V12.8966C9.58314 10.3817 7.44333 10 5.921 10C3.99019 10 2.39661 10.685 2.11162 12.5402C2.0134 13.0547 2.02639 13.5863 2.14962 14.0946C2.58186 16.4781 6.46724 17.1757 7.01109 18.6493L7.00872 18.6518ZM42.3239 18.6518C42.4355 18.9147 42.3975 19.2711 42.3619 19.4935C42.2882 19.8878 42.027 20.2694 41.3098 20.2694C40.6163 20.2694 40.2221 19.8473 40.2221 19.2306V18.1109H37.3151V18.993C37.3151 21.5459 39.1961 22.3243 41.2361 22.3243C43.1907 22.3243 44.7867 21.6267 45.0455 19.6906C45.1952 18.6897 45.0835 18.0705 45.0455 17.795C44.6133 15.3988 40.507 14.676 40.2221 13.3591C40.1837 13.1547 40.1837 12.9443 40.2221 12.7399C40.2838 12.3582 40.5427 11.9639 41.1982 11.9639C41.8156 11.9639 42.2122 12.386 42.2122 13.0027V13.7003H44.8959V12.8966C44.8959 10.3817 42.7941 10 41.2718 10C39.341 10 37.783 10.6445 37.498 12.5402C37.4244 13.0406 37.4244 13.5133 37.5218 14.0946C37.9683 16.4781 41.7776 17.1353 42.3215 18.6493L42.3239 18.6518ZM51.465 20.1936C52.2321 20.1936 52.4411 19.6527 52.517 19.3519C52.555 19.2331 52.555 19.036 52.555 18.9172V10.3867H55.3123V18.6923C55.3123 18.9172 55.3123 19.3494 55.2743 19.4556C55.101 21.6267 53.4931 22.3243 51.5006 22.3243C49.508 22.3243 47.9144 21.6267 47.7268 19.4556C47.7268 19.3494 47.6888 18.9147 47.6888 18.6923V10.3867H50.4461V18.9172C50.4461 19.0764 50.4461 19.2331 50.4841 19.3519C50.4841 19.6552 50.7074 20.1936 51.4602 20.1936H51.465ZM74.1146 20.0748C74.9197 20.0748 75.1667 19.5339 75.2403 19.2331C75.2783 19.1143 75.2783 18.9172 75.2783 18.811V17.1403H74.1526V15.4418H78V18.5355C78 18.7731 78 18.9172 77.962 19.3115C77.7768 21.4321 76.0692 22.1676 74.1526 22.1676C72.2218 22.1676 70.5285 21.4296 70.3432 19.3115C70.3052 18.9172 70.3052 18.7706 70.3052 18.5355V13.6649C70.3052 13.4804 70.3432 13.0861 70.3432 12.9016C70.5902 10.7305 72.2242 10.0329 74.1526 10.0329C76.0692 10.0329 77.7388 10.7305 77.962 12.9016C78 13.2429 78 13.6649 78 13.6649V14.0592H75.2783V13.4021C75.2783 13.4021 75.2783 13.1266 75.2403 12.9673C75.2023 12.7045 74.9815 12.1257 74.1526 12.1257C73.3475 12.1257 73.1385 12.6666 73.0649 12.9673C73.0269 13.1266 73.0269 13.3237 73.0269 13.5209V18.8136C73.0269 18.9576 73.0269 19.1169 73.0649 19.2357C73.0649 19.539 73.3499 20.0773 74.117 20.0773L74.1146 20.0748Z" fill="#EAEBED"/>
<path d="M436.719 12.5645C435.206 13.6348 434.449 14.9254 434.449 16.4314C434.449 18.2368 435.385 19.6195 437.255 20.5855C436.753 22.042 436.026 23.3067 435.072 24.3838C434.12 25.4601 433.251 26 432.465 26C432.094 26 431.588 25.8759 430.946 25.6328L430.64 25.5131C430.01 25.27 429.457 25.1459 428.973 25.1459C428.517 25.1459 428.018 25.2414 427.476 25.4323L427.09 25.5712L426.604 25.7709C426.222 25.9236 425.833 26 425.443 26C424.523 26 423.509 25.2431 422.399 23.7294C420.799 21.5611 420 19.1985 420 16.6406C420 14.8222 420.497 13.3596 421.496 12.2486C422.495 11.1376 423.817 10.5821 425.461 10.5821C426.078 10.5821 426.65 10.6949 427.187 10.9188L427.554 11.0681L427.94 11.227C428.284 11.3719 428.562 11.444 428.774 11.444C429.043 11.444 429.345 11.3832 429.676 11.2565L430.18 11.0569L430.558 10.918C431.16 10.701 431.825 10.5916 432.552 10.5916C434.281 10.5916 435.668 11.2495 436.718 12.5654L436.719 12.5645ZM432.635 6C432.653 6.23175 432.664 6.41055 432.664 6.53554C432.664 7.67867 432.247 8.68206 431.416 9.54483C430.584 10.4076 429.615 10.8381 428.511 10.8381C428.484 10.6546 428.467 10.4697 428.46 10.2844C428.46 9.31221 428.846 8.40083 429.621 7.54761C430.393 6.69438 431.289 6.19356 432.308 6.04948C432.379 6.03646 432.49 6.02083 432.635 6Z" fill="#EAEBED"/>
</svg>
