<svg width="24" height="24" viewBox="0 0 24 24" fill="none" xmlns="http://www.w3.org/2000/svg">
<path d="M17.0057 20.9903L7.01096 20.9998C4.81212 21.0018 3.01157 19.2047 3.00907 17.0059L2.99957 7.01114C2.99758 4.8123 4.79463 3.01175 6.99347 3.00925L16.9882 2.99976C19.187 2.99776 20.9876 4.79481 20.9901 6.99365L20.9996 16.9884C21.0021 19.1877 19.2045 20.9883 17.0057 20.9903Z" fill="url(#paint0_radial)"/>
<path d="M17.0084 20.995L7.00838 21.0045C4.80838 21.0065 3.00687 19.2085 3.00437 17.0085L2.99487 7.0085C2.99287 4.8085 4.79088 3.007 6.99088 3.0045L16.9909 2.995C19.1909 2.993 20.9924 4.791 20.9949 6.991L21.0044 16.991C21.0069 19.1915 19.2084 20.993 17.0084 20.995Z" fill="url(#paint1_radial)"/>
<path d="M12 15.5C10.0705 15.5 8.49997 13.93 8.49997 12C8.49997 10.07 10.0705 8.5 12 8.5C13.9295 8.5 15.5 10.07 15.5 12C15.5 13.93 13.9295 15.5 12 15.5ZM12 9.5C10.6215 9.5 9.49997 10.6215 9.49997 12C9.49997 13.3785 10.6215 14.5 12 14.5C13.3785 14.5 14.5 13.3785 14.5 12C14.5 10.6215 13.3785 9.5 12 9.5Z" fill="white"/>
<path d="M15.75 9C16.1642 9 16.5 8.66421 16.5 8.25C16.5 7.83579 16.1642 7.5 15.75 7.5C15.3358 7.5 15 7.83579 15 8.25C15 8.66421 15.3358 9 15.75 9Z" fill="white"/>
<path d="M15 18.5H8.99997C7.07047 18.5 5.49997 16.93 5.49997 15V9C5.49997 7.07 7.07047 5.5 8.99997 5.5H15C16.9295 5.5 18.5 7.07 18.5 9V15C18.5 16.93 16.9295 18.5 15 18.5ZM8.99997 6.5C7.62147 6.5 6.49997 7.6215 6.49997 9V15C6.49997 16.3785 7.62147 17.5 8.99997 17.5H15C16.3785 17.5 17.5 16.3785 17.5 15V9C17.5 7.6215 16.3785 6.5 15 6.5H8.99997Z" fill="white"/>
<defs>
<radialGradient id="paint0_radial" cx="0" cy="0" r="1" gradientUnits="userSpaceOnUse" gradientTransform="translate(9.69104 21.0127) scale(22.4377)">
<stop stop-color="#FFDD55"/>
<stop offset="0.328" stop-color="#FF543F"/>
<stop offset="0.348" stop-color="#FC5245"/>
<stop offset="0.504" stop-color="#E64771"/>
<stop offset="0.643" stop-color="#D53E91"/>
<stop offset="0.761" stop-color="#CC39A4"/>
<stop offset="0.841" stop-color="#C837AB"/>
</radialGradient>
<radialGradient id="paint1_radial" cx="0" cy="0" r="1" gradientUnits="userSpaceOnUse" gradientTransform="translate(5.89288 2.77015) scale(14.9065 9.9322)">
<stop stop-color="#4168C9"/>
<stop offset="0.999" stop-color="#4168C9" stop-opacity="0"/>
</radialGradient>
</defs>
</svg>
