<svg width="24" height="24" viewBox="0 0 24 24" fill="none" xmlns="http://www.w3.org/2000/svg">
<path d="M7.67992 22.0799H16.3199C19.5009 22.0799 22.0799 19.5009 22.0799 16.3199V7.67992C22.0799 4.49896 19.5009 1.91992 16.3199 1.91992H7.67992C4.49896 1.91992 1.91992 4.49896 1.91992 7.67992V16.3199C1.91992 19.5009 4.49896 22.0799 7.67992 22.0799Z" stroke="white" stroke-miterlimit="10"/>
<path d="M12.0002 7.19922C10.7272 7.19922 9.50626 7.70493 8.60608 8.60511C7.70591 9.50528 7.2002 10.7262 7.2002 11.9992C7.2002 13.2723 7.70591 14.4932 8.60608 15.3933C9.50626 16.2935 10.7272 16.7992 12.0002 16.7992C13.2732 16.7992 14.4941 16.2935 15.3943 15.3933C16.2945 14.4932 16.8002 13.2723 16.8002 11.9992C16.8002 10.7262 16.2945 9.50528 15.3943 8.60511C14.4941 7.70493 13.2732 7.19922 12.0002 7.19922Z" stroke="white" stroke-miterlimit="10"/>
<path d="M17.7598 5.2793C17.5052 5.2793 17.261 5.38044 17.081 5.56047C16.9009 5.74051 16.7998 5.98469 16.7998 6.2393C16.7998 6.49391 16.9009 6.73808 17.081 6.91812C17.261 7.09815 17.5052 7.1993 17.7598 7.1993C18.0144 7.1993 18.2586 7.09815 18.4386 6.91812C18.6187 6.73808 18.7198 6.49391 18.7198 6.2393C18.7198 5.98469 18.6187 5.74051 18.4386 5.56047C18.2586 5.38044 18.0144 5.2793 17.7598 5.2793Z" fill="white"/>
</svg>
