<svg width="50" height="50" viewBox="0 0 50 50" fill="none" xmlns="http://www.w3.org/2000/svg">
<rect x="8.75" y="16.25" width="2.5" height="2.5" fill="#0048B5"/>
<rect x="8.75" y="21.25" width="2.5" height="2.5" fill="#0048B5"/>
<rect x="8.75" y="26.25" width="2.5" height="2.5" fill="#0048B5"/>
<rect x="30" y="16.25" width="2.5" height="2.5" fill="#0048B5"/>
<rect x="30" y="21.25" width="2.5" height="2.5" fill="#0048B5"/>
<rect x="30" y="26.25" width="2.5" height="2.5" fill="#0048B5"/>
<rect x="13.75" y="16.25" width="2.5" height="2.5" fill="#0048B5"/>
<rect x="13.75" y="21.25" width="2.5" height="2.5" fill="#0048B5"/>
<rect x="13.75" y="26.25" width="2.5" height="2.5" fill="#0048B5"/>
<rect x="35" y="16.25" width="2.5" height="2.5" fill="#0048B5"/>
<rect x="35" y="21.25" width="2.5" height="2.5" fill="#0048B5"/>
<rect x="35" y="26.25" width="2.5" height="2.5" fill="#0048B5"/>
<rect x="18.75" y="16.25" width="2.5" height="2.5" fill="#0048B5"/>
<rect x="18.75" y="21.25" width="2.5" height="2.5" fill="#0048B5"/>
<rect x="18.75" y="26.25" width="2.5" height="2.5" fill="#0048B5"/>
<rect x="40" y="16.25" width="2.5" height="2.5" fill="#0048B5"/>
<rect x="40" y="21.25" width="2.5" height="2.5" fill="#0048B5"/>
<rect x="40" y="26.25" width="2.5" height="2.5" fill="#0048B5"/>
<rect x="23.75" y="16.25" width="2.5" height="2.5" fill="#0048B5"/>
<rect x="23.75" y="21.25" width="2.5" height="2.5" fill="#0048B5"/>
<rect x="23.75" y="26.25" width="2.5" height="2.5" fill="#0048B5"/>
<rect x="11.25" y="31.25" width="27.5" height="2.5" fill="#0048B5"/>
<rect x="4.5" y="12" width="41" height="26" stroke="#0048B5" stroke-width="1.5"/>
</svg>
