<svg width="100" height="100" viewBox="0 0 100 100" fill="none" xmlns="http://www.w3.org/2000/svg">
<path d="M89 39.0671L84.3293 14.6246C84.1492 13.6819 83.3247 13 82.3649 13H55.4906L49.4 20.0312M50.9623 88L18.589 62.7166C17.7135 62.0328 17.5629 60.7666 18.2537 59.8967L46.0495 24.8902" stroke="url(#paint0_linear)" stroke-width="2"/>
<path d="M74.5 20C75.1605 20 75.8076 20.1869 76.3664 20.5391C76.9251 20.8914 77.3728 21.3945 77.6577 21.9904C77.9426 22.5864 78.0531 23.2508 77.9763 23.9068C77.8995 24.5629 77.6386 25.1838 77.2239 25.6979C76.8091 26.2119 76.2573 26.5981 75.6323 26.8118C75.0073 27.0255 74.3346 27.0579 73.6919 26.9054C73.0492 26.7529 72.4628 26.4217 72.0004 25.9499C71.5381 25.4782 71.2186 24.8853 71.0791 24.2397" stroke="#0048B5" stroke-width="2" stroke-linecap="round"/>
<path d="M75 24.2178C61.1063 20.3454 30.0772 15.65 17.1098 27.8482C4.14238 40.0464 14.7942 45.032 21.741 46" stroke="#0048B5" stroke-width="2" stroke-linecap="round"/>
<defs>
<linearGradient id="paint0_linear" x1="30.5" y1="5.5" x2="91.8996" y2="78.0459" gradientUnits="userSpaceOnUse">
<stop offset="0.576353" stop-color="#0048B5"/>
<stop offset="0.576824" stop-color="#2E3C49" stop-opacity="0"/>
</linearGradient>
</defs>
</svg>
