<svg width="100" height="100" viewBox="0 0 100 100" fill="none" xmlns="http://www.w3.org/2000/svg">
<path d="M49.871 37.5005C47.2939 37.527 44.7881 38.3494 42.6965 39.8551C40.6049 41.3608 39.0299 43.4762 38.187 45.9116C37.3441 48.347 37.2746 50.9834 37.9879 53.4599C38.7013 55.9364 40.1627 58.1318 42.172 59.7456C44.1813 61.3595 46.6403 62.3128 49.2124 62.4751C51.7844 62.6373 54.3438 62.0007 56.54 60.6522C58.7362 59.3037 60.462 57.3094 61.4809 54.9422C62.4999 52.575 62.7623 49.9508 62.2322 47.4287C61.6332 44.602 60.0752 42.0693 57.8224 40.2599C55.5695 38.4505 52.7604 37.4756 49.871 37.5005ZM81.1407 46.6005C81.2802 47.9521 81.3282 49.3115 81.2843 50.6695L90.8138 56.5962C91.2306 56.8714 91.5364 57.2853 91.6768 57.7646C91.8173 58.2439 91.7833 58.7574 91.5809 59.214L84.845 74.4883C84.6393 74.941 84.2803 75.3066 83.8313 75.5206C83.3824 75.7346 82.8723 75.7832 82.391 75.6579L73.2901 73.0991C72.7885 72.9602 72.2602 72.9479 71.7526 73.0633C71.2451 73.1787 70.7741 73.4182 70.3818 73.7604C69.1513 74.8219 67.8421 75.7884 66.4654 76.6517C66.0326 76.9237 65.6735 77.2981 65.4197 77.7418C65.1659 78.1855 65.0253 78.6848 65.0102 79.1957L64.7185 88.6366C64.6863 89.1371 64.4813 89.6108 64.1385 89.9768C63.7957 90.3428 63.3365 90.5785 62.8392 90.6434L46.2308 92.4564C45.7398 92.5014 45.248 92.3778 44.8365 92.1059C44.4251 91.8341 44.1185 91.4301 43.9673 90.9607L41.6491 81.8185C41.5202 81.3176 41.2697 80.8564 40.9196 80.4757C40.5696 80.0951 40.1309 79.8068 39.6426 79.6366C38.1142 79.0942 36.6318 78.4302 35.2096 77.6508C34.7544 77.4026 34.2445 77.2716 33.7261 77.2696C33.2076 77.2675 32.6968 77.3945 32.2396 77.6391L23.9068 82.0989C23.4641 82.3252 22.9557 82.388 22.4713 82.2763C21.9868 82.1646 21.5573 81.8855 21.2584 81.4881L11.3859 68.0268C11.0894 67.6248 10.9451 67.1306 10.9789 66.6322C11.0126 66.1338 11.2222 65.6636 11.5702 65.3052L18.3532 58.6706C18.7244 58.3036 18.9981 57.8497 19.1494 57.3501C19.3007 56.8505 19.3249 56.321 19.2197 55.8097C19.0614 55.0077 18.9306 54.2046 18.8422 53.395C18.7538 52.5854 18.7077 51.7848 18.693 50.9848C18.6805 50.4666 18.5391 49.9596 18.2818 49.5096C18.0245 49.0596 17.6593 48.6806 17.2191 48.4069L9.1683 43.3915C8.75721 43.1144 8.45677 42.7014 8.31962 42.2249C8.18248 41.7485 8.21738 41.239 8.41821 40.7857L15.154 25.5114C15.3598 25.0587 15.7188 24.6931 16.1677 24.4791C16.6167 24.2651 17.1267 24.2165 17.608 24.3417L26.709 26.9005C27.2106 27.0395 27.7389 27.0518 28.2464 26.9364C28.754 26.821 29.225 26.5814 29.6173 26.2392C30.8477 25.1778 32.157 24.2113 33.5337 23.348C33.9664 23.076 34.3256 22.7016 34.5794 22.2579C34.8331 21.8142 34.9738 21.3149 34.9889 20.8039L35.2806 11.363C35.3128 10.8626 35.5178 10.3889 35.8606 10.0228C36.2034 9.65681 36.6626 9.42118 37.1598 9.35622L53.7682 7.5433C54.2593 7.49827 54.7511 7.62187 55.1626 7.89374C55.574 8.1656 55.8806 8.56951 56.0318 9.03892L58.35 18.1812C58.4788 18.682 58.7294 19.1433 59.0794 19.5239C59.4295 19.9046 59.8681 20.1928 60.3564 20.3631C61.8848 20.9054 63.3673 21.5695 64.7895 22.3488C65.2447 22.597 65.7545 22.728 66.273 22.7301C66.7915 22.7322 67.3023 22.6052 67.7595 22.3606L76.0923 17.9008C76.535 17.6744 77.0434 17.6116 77.5278 17.7234C78.0123 17.8351 78.4418 18.1142 78.7406 18.5115L88.6132 31.9728C88.9097 32.3748 89.0539 32.869 89.0202 33.3674C88.9864 33.8658 88.7769 34.3361 88.4289 34.6944L81.6459 41.329C81.2728 41.6952 80.9972 42.1488 80.8441 42.6487C80.6911 43.1486 80.6655 43.6788 80.7696 44.191C80.9215 44.9879 81.0523 45.7909 81.1407 46.6005Z" stroke="url(#paint0_linear)" stroke-width="2" stroke-linecap="round" stroke-linejoin="round"/>
<defs>
<linearGradient id="paint0_linear" x1="29.3003" y1="-10.612" x2="90.9047" y2="83.7604" gradientUnits="userSpaceOnUse">
<stop offset="0.593475" stop-color="#0048B5"/>
<stop offset="0.598465" stop-color="#2E3C49" stop-opacity="0"/>
</linearGradient>
</defs>
</svg>
