<svg width="24" height="24" viewBox="0 0 24 24" fill="none" xmlns="http://www.w3.org/2000/svg">
<path d="M12.0002 3.42834C9.72689 3.42834 7.54671 4.3314 5.93925 5.93886C4.3318 7.54631 3.42874 9.72649 3.42874 11.9998C3.42874 14.2731 4.3318 16.4532 5.93925 18.0607C7.54671 19.6681 9.72689 20.5712 12.0002 20.5712C14.2735 20.5712 16.4536 19.6681 18.0611 18.0607C19.6685 16.4532 20.5716 14.2731 20.5716 11.9998C20.5716 9.72649 19.6685 7.54631 18.0611 5.93886C16.4536 4.3314 14.2735 3.42834 12.0002 3.42834Z" fill="#03A9F4"/>
<path d="M16.0714 11.1429C14.7643 11.1429 13.5107 11.6621 12.5864 12.5864C11.6621 13.5107 11.1429 14.7643 11.1429 16.0714C11.1429 17.3786 11.6621 18.6322 12.5864 19.5565C13.5107 20.4807 14.7643 21 16.0714 21C17.3786 21 18.6322 20.4807 19.5565 19.5565C20.4807 18.6322 21 17.3786 21 16.0714C21 14.7643 20.4807 13.5107 19.5565 12.5864C18.6322 11.6621 17.3786 11.1429 16.0714 11.1429ZM7.92857 3C7.28134 3 6.64045 3.12748 6.04249 3.37517C5.44453 3.62285 4.90121 3.98588 4.44355 4.44355C3.98589 4.90121 3.62285 5.44453 3.37517 6.04249C3.12748 6.64045 3 7.28134 3 7.92857C3 8.5758 3.12748 9.21669 3.37517 9.81465C3.62285 10.4126 3.98589 10.9559 4.44355 11.4136C4.90121 11.8713 5.44453 12.2343 6.04249 12.482C6.64045 12.7297 7.28134 12.8571 7.92857 12.8571C8.5758 12.8571 9.21669 12.7297 9.81465 12.482C10.4126 12.2343 10.9559 11.8713 11.4136 11.4136C11.8713 10.9559 12.2343 10.4126 12.482 9.81465C12.7297 9.21669 12.8571 8.5758 12.8571 7.92857C12.8571 7.28134 12.7297 6.64045 12.482 6.04249C12.2343 5.44453 11.8713 4.90121 11.4136 4.44355C10.9559 3.98588 10.4126 3.62285 9.81465 3.37517C9.21669 3.12748 8.5758 3 7.92857 3Z" fill="#03A9F4"/>
<path d="M12.2578 17.1428C9.42841 17.1428 8.1427 15.7281 8.1427 14.6566C8.1427 14.0991 8.52756 13.7142 9.08513 13.7142C10.2856 13.7142 9.98599 15.4722 12.2574 15.4722C13.4141 15.4722 14.057 14.8293 14.057 14.1865C14.057 13.7999 13.8847 13.3713 13.1146 13.1571L10.5851 12.5142C8.57127 11.9999 8.18641 10.8848 8.18641 9.81334C8.18641 7.62848 10.2003 6.85706 12.0856 6.85706C13.8431 6.85706 15.857 7.79948 15.857 9.0852C15.857 9.64277 15.4284 9.98605 14.8708 9.98605C13.8431 9.98605 14.0137 8.52805 11.9561 8.52805C10.9284 8.52805 10.3288 9.00034 10.3288 9.68648C10.3288 10.3713 11.1423 10.5856 11.8708 10.7579L13.7574 11.1865C15.8133 11.6566 16.2856 12.8571 16.2856 14.0138C16.2418 15.8133 14.9561 17.1428 12.2578 17.1428Z" fill="white"/>
</svg>
