<svg width="50" height="50" viewBox="0 0 50 50" fill="none" xmlns="http://www.w3.org/2000/svg">
<path d="M13.6693 40.2553H16.4034C17.1614 41.7707 18.7102 42.7285 20.4049 42.7285H37.3501C38.7931 42.7285 40.0853 41.683 40.2387 40.2479C40.3469 39.2358 39.9029 38.3319 39.1814 37.7655C40.8118 37.679 42.1102 36.3423 42.1102 34.6908C42.1102 33.6441 41.5871 32.7229 40.7914 32.1639C42.2419 31.9092 43.3467 30.6504 43.3467 29.1263C43.3467 28.0796 42.8237 27.1583 42.028 26.5994C43.5273 26.336 44.6569 25.0005 44.5796 23.4085C44.4986 21.7385 43.0271 20.4704 41.3553 20.4704H26.4541C26.9809 17.8415 27.5893 14.5628 27.5893 13.4486C27.5887 10.032 25.6065 6.25 22.9435 6.25C21.7806 6.25 21.0887 6.25 21.0887 6.25V13.0511L16.4912 22.9435H13.6693V40.2553ZM8.10484 42.7285H13.6693V22.9435H6.25L7.30046 33.7968L8.10484 42.7285Z" stroke="#0048B5" stroke-width="1.5" stroke-miterlimit="10"/>
</svg>
