<svg width="40" height="40" viewBox="0 0 40 40" fill="none" xmlns="http://www.w3.org/2000/svg">
<path d="M10.9355 32.2043H13.1227C13.7291 33.4166 14.9681 34.1828 16.3239 34.1828H29.88C31.0345 34.1828 32.0683 33.3464 32.1909 32.1983C32.2775 31.3886 31.9223 30.6655 31.3451 30.2124C32.6494 30.1432 33.6881 29.0738 33.6881 27.7527C33.6881 26.9153 33.2697 26.1783 32.6331 25.7311C33.7935 25.5274 34.6774 24.5203 34.6774 23.3011C34.6774 22.4637 34.2589 21.7267 33.6224 21.2795C34.8218 21.0688 35.7255 20.0004 35.6637 18.7268C35.5989 17.3908 34.4217 16.3763 33.0842 16.3763H21.1633C21.5847 14.2732 22.0714 11.6502 22.0714 10.7589C22.0709 8.02561 20.4852 5 18.3548 5C17.4244 5 16.871 5 16.871 5V10.4409L13.1929 18.3548H10.9355V32.2043ZM6.48387 34.1828H10.9355V18.3548H5L5.84037 27.0374L6.48387 34.1828Z" stroke="#00AE71" stroke-width="1.5" stroke-miterlimit="10"/>
</svg>
