<svg width="100" height="100" viewBox="0 0 100 100" fill="none" xmlns="http://www.w3.org/2000/svg">
<g clip-path="url(#clip0)">
<path d="M84.4268 31.6753C88.9238 40.1238 90.1571 49.9309 87.8921 59.2297C85.6271 68.5285 80.0219 76.6699 72.1435 82.104C64.2651 87.5381 54.6636 89.8855 45.1666 88.6993C35.6697 87.5132 26.9405 82.8764 20.6406 75.6715C14.3407 68.4666 10.9101 59.1968 11.0018 49.6265C11.0935 40.0562 14.701 30.8537 21.1377 23.7709C27.5744 16.688 36.3909 12.2192 45.9088 11.2152C55.4267 10.2112 64.9815 12.7421 72.7544 18.3261" stroke="url(#paint0_linear)" stroke-width="2"/>
<line x1="53" y1="21" x2="53" y2="51" stroke="#0048B5" stroke-width="2"/>
<line x1="53.3225" y1="50.2645" x2="91.5709" y2="15.0357" stroke="#0048B5" stroke-width="2"/>
</g>
<defs>
<linearGradient id="paint0_linear" x1="27" y1="-8" x2="83" y2="103" gradientUnits="userSpaceOnUse">
<stop offset="0.560264" stop-color="#0048B5"/>
<stop offset="0.563005" stop-color="#2E3C49" stop-opacity="0"/>
</linearGradient>
<clipPath id="clip0">
<rect width="100" height="100" fill="white"/>
</clipPath>
</defs>
</svg>
