<svg width="24" height="24" viewBox="0 0 24 24" fill="none" xmlns="http://www.w3.org/2000/svg">
<path d="M3.44852 20.5525L4.65679 16.1601C3.91137 14.8748 3.51938 13.4162 3.51983 11.9223C3.52207 7.24857 7.34153 3.44617 12.0356 3.44617C14.3135 3.44706 16.4511 4.33 18.059 5.93197C19.6664 7.5344 20.5518 9.66381 20.5509 11.929C20.5491 16.6027 16.7287 20.4056 12.0356 20.4056C12.0351 20.4056 12.0356 20.4056 12.0356 20.4056H12.032C10.6071 20.4051 9.20641 20.0492 7.96271 19.3735L3.44852 20.5525Z" fill="white"/>
<path d="M3.4487 20.7765C3.38949 20.7765 3.33208 20.7532 3.28948 20.7104C3.23341 20.6536 3.21144 20.571 3.23252 20.4947L4.41612 16.1912C3.68237 14.8933 3.29531 13.4195 3.2962 11.9234C3.298 7.12595 7.21837 3.22351 12.0358 3.22351C14.3725 3.2244 16.5679 4.13057 18.2179 5.77497C19.868 7.41982 20.7762 9.60551 20.7753 11.9296C20.7735 16.7266 16.8527 20.6295 12.0358 20.6295C10.6055 20.6291 9.19045 20.2776 7.93464 19.6126L3.50566 20.7689C3.48682 20.7742 3.46798 20.7765 3.4487 20.7765Z" fill="white"/>
<path d="M12.0357 3.44661C14.3137 3.4475 16.4513 4.33044 18.0592 5.93241C19.6666 7.53483 20.5519 9.66425 20.551 11.9294C20.5493 16.6032 16.7289 20.406 12.0357 20.406H12.0322C10.6073 20.4056 9.20658 20.0496 7.96288 19.3739L3.44869 20.5529L4.65696 16.1606C3.91154 14.8752 3.51955 13.4166 3.52 11.9227C3.52224 7.24901 7.3417 3.44661 12.0357 3.44661ZM12.0357 3C7.09503 3 3.07374 7.00248 3.0715 11.9227C3.07105 13.4265 3.45228 14.9083 4.17527 16.22L3.01588 20.4355C2.97372 20.5896 3.01678 20.7539 3.1298 20.8674C3.21502 20.9531 3.33028 21 3.44869 21C3.48681 21 3.52493 20.9951 3.56261 20.9853L7.90727 19.8509C9.17564 20.5065 10.5974 20.8526 12.0322 20.8531C16.9765 20.8531 20.9978 16.8501 21 11.9299C21.0009 9.54545 20.0694 7.30349 18.3771 5.61711C16.684 3.93028 14.4321 3.00089 12.0357 3Z" fill="#CFD8DC"/>
<path d="M17.042 6.94466C15.7054 5.61288 13.9289 4.87911 12.038 4.87866C8.13424 4.87866 4.95928 8.03884 4.95749 11.9234C4.95704 13.2548 5.33109 14.5508 6.03973 15.6731L6.20837 15.9397L5.493 18.5394L8.17192 17.8401L8.43071 17.9928C9.51698 18.635 10.7629 18.9744 12.0331 18.9749H12.0358C15.9369 18.9749 19.1118 15.8143 19.1132 11.9292C19.1136 10.0468 18.3785 8.27644 17.042 6.94466Z" fill="#40C351"/>
<path fill-rule="evenodd" clip-rule="evenodd" d="M9.90711 8.37944C9.7479 8.02662 9.58016 8.01948 9.42811 8.01322C9.30388 8.00786 9.16215 8.00831 9.02042 8.00831C8.8787 8.00831 8.64816 8.06146 8.45306 8.27359C8.25797 8.48573 7.7081 8.99799 7.7081 10.0404C7.7081 11.0827 8.47056 12.0903 8.57685 12.2314C8.68315 12.3725 10.0488 14.5801 12.2115 15.4296C14.0087 16.1352 14.3747 15.995 14.7649 15.9597C15.1551 15.9244 16.0238 15.4474 16.201 14.9526C16.3781 14.4577 16.3781 14.0339 16.3252 13.9455C16.2718 13.8571 16.1301 13.8044 15.9175 13.6981C15.7049 13.5918 14.6586 13.0795 14.4635 13.009C14.2684 12.9384 14.1266 12.9031 13.9845 13.1152C13.8427 13.3269 13.435 13.8044 13.3108 13.9455C13.1866 14.0871 13.0623 14.1049 12.8498 13.9986C12.6372 13.8923 11.9518 13.669 11.1387 12.9473C10.5063 12.3859 10.0793 11.6924 9.95511 11.4802C9.83087 11.2685 9.94165 11.1538 10.0484 11.0479C10.1439 10.9528 10.261 10.8005 10.3677 10.6768C10.474 10.5531 10.5095 10.4646 10.5803 10.3235C10.6512 10.1819 10.6158 10.0582 10.5624 9.95238C10.5099 9.84609 10.0964 8.79836 9.90711 8.37944Z" fill="white"/>
</svg>
