<svg width="24" height="24" viewBox="0 0 24 24" fill="none" xmlns="http://www.w3.org/2000/svg">
<path d="M11.7124 5.28031C15.1684 5.28031 17.9524 5.56831 19.2964 5.80831C20.0164 6.00031 20.5924 6.48031 20.6884 7.10431C20.9764 8.64031 21.1684 10.2723 21.1684 11.9523C21.1204 14.0163 20.8804 15.6963 20.6884 16.8963C20.5444 17.8083 19.5844 18.0963 19.2964 18.1923C17.5684 18.5283 14.6884 18.7683 11.8084 18.7683C8.92843 18.7683 6.00043 18.5763 4.32043 18.1923C3.60043 18.0003 3.02443 17.5203 2.92843 16.8963C2.54443 15.5523 2.40043 13.7763 2.40043 12.0003C2.40043 9.79231 2.59243 8.16031 2.78443 7.15231C2.92843 6.24031 3.93643 5.95231 4.17643 5.85631C5.76043 5.52031 8.68843 5.28031 11.7124 5.28031ZM11.7124 4.32031C8.54443 4.32031 5.56843 4.56031 3.98443 4.89631C2.92843 5.13631 2.01643 5.85631 1.82443 6.96031C1.63243 8.11231 1.44043 9.84031 1.44043 12.0003C1.44043 14.1603 1.63243 15.8403 1.87243 17.0403C2.06443 18.0963 2.97643 18.8643 4.03243 19.1043C5.71243 19.4403 8.59243 19.6803 11.7604 19.6803C14.9284 19.6803 17.8084 19.4403 19.4884 19.1043C20.5444 18.8643 21.4564 18.1443 21.6484 17.0403C21.8404 15.8403 22.0804 14.1123 22.1284 11.9523C22.1284 9.79231 21.8884 8.06431 21.6484 6.86431C21.4564 5.80831 20.5444 5.04031 19.4884 4.80031C17.8084 4.56031 14.8804 4.32031 11.7124 4.32031Z" fill="white"/>
<path d="M10.0801 9.79216L13.9201 12.0002L10.0801 14.2082V9.79216ZM9.12012 8.16016V15.8402L15.8401 12.0002L9.12012 8.16016Z" fill="white"/>
</svg>
