<?xml version="1.0" encoding="utf-8"?>
<!-- Generator: Adobe Illustrator 21.0.0, SVG Export Plug-In . SVG Version: 6.00 Build 0)  -->
<svg version="1.1" id="Ebene_1" xmlns="http://www.w3.org/2000/svg" xmlns:xlink="http://www.w3.org/1999/xlink" x="0px" y="0px"
	 viewBox="0 0 841.9 595.3" style="enable-background:new 0 0 841.9 595.3;" xml:space="preserve">
<style type="text/css">
	.st0{fill:#8BB74D;}
	.st1{fill:#AB2781;}
	.st2{fill:#EEC338;}
	.st3{fill:#76A5C5;}
	.st4{fill:#CF5F65;}
	.st5{fill:#CA4484;}
</style>
<g>
	<g>
		<path class="st0" d="M411.6,300.4c0-2.9,0.8-5.3,2.3-7.2c1.7-2.1,3.9-3.1,6.7-3.1c2.2,0,4,0.7,5.4,2c0.4,0.3,0.5,0.7,0.5,1.2
			c0,0.3-0.1,0.5-0.3,0.7c-0.2,0.2-0.5,0.3-0.8,0.3c-0.2,0-0.6-0.2-1-0.5l-1-0.7c-0.4-0.2-0.8-0.4-1.2-0.5c-0.4-0.1-1-0.2-1.9-0.2
			c-1.9,0-3.4,0.9-4.6,2.8c-1,1.6-1.5,3.4-1.5,5.4c0,2.1,0.5,3.9,1.5,5.4c1.1,1.8,2.7,2.7,4.6,2.7c1.3,0,2.5-0.3,3.6-0.8
			c0.3-0.2,0.7-0.4,1-0.6c0.4-0.2,0.8-0.3,1.1-0.3c0.6,0,0.9,0.4,0.9,1.1c0,0.4-0.1,0.7-0.4,0.9c-0.7,0.6-1.6,1.1-2.8,1.5
			c-1.1,0.3-2.1,0.4-3.2,0.4c-2.8,0-5-1.1-6.6-3.2C412.4,305.6,411.6,303.2,411.6,300.4z"/>
		<path class="st0" d="M436.2,295.3h6.4c0.7,0,1.1,0.5,1.1,1.4v12.7c0,0.4-0.1,0.7-0.3,0.9c-0.2,0.3-0.5,0.4-0.9,0.4
			c-0.4,0-0.7-0.1-0.9-0.4c-0.2-0.3-0.4-0.6-0.4-0.9v-11.9h-4.6c-0.8,0-1.3,0.4-1.3,1.3v7.7c0,1.1-0.2,2.1-0.6,2.8
			c-0.5,0.9-1.3,1.4-2.3,1.4c-1.5,0-2.3-0.4-2.3-1.1c0-0.6,0.3-1,1-1.1c0.8-0.1,1.3-0.3,1.5-0.5c0.2-0.3,0.2-0.8,0.2-1.6v-8
			C432.9,296.4,434,295.3,436.2,295.3z"/>
		<path class="st0" d="M460.1,297.2c0-0.9,0.1-1.5,0.4-1.7c0.2-0.2,0.5-0.3,0.8-0.3c0.8,0,1.2,0.4,1.2,1.3v13c0,0.9-0.4,1.3-1.2,1.3
			c-0.3,0-0.6-0.1-0.8-0.3c-0.2-0.2-0.4-0.5-0.4-0.9c0,0.2,0.1-0.2,0.1-1.1c-1.1,1.5-2.5,2.3-4.2,2.3c-1.5,0-2.8-0.5-4-1.4
			c-1.2-0.9-2-2.2-2.4-3.6c-0.2-0.8-0.3-1.7-0.3-2.8c0-1.2,0.2-2.3,0.6-3.3c0.5-1.3,1.3-2.4,2.3-3.1c1.1-0.9,2.3-1.3,3.7-1.3
			C457.5,295.2,459,295.9,460.1,297.2z M451.7,303.1c0,1.4,0.3,2.6,1,3.6c0.7,1.2,1.8,1.8,3.1,1.8c1.5,0,2.6-0.6,3.4-1.7
			c0.6-1,1-2.2,1-3.8c0-1.5-0.3-2.8-0.9-3.8c-0.7-1.2-1.8-1.8-3.3-1.8c-1.4,0-2.5,0.6-3.2,1.9C452.1,300.3,451.7,301.6,451.7,303.1z
			"/>
		<path class="st0" d="M479.6,310.5h-10.2v2c0,0.4-0.1,0.7-0.3,0.9c-0.2,0.3-0.5,0.4-0.9,0.4c-0.3,0-0.6-0.1-0.9-0.4
			c-0.2-0.3-0.4-0.6-0.4-0.9v-2.6c0-0.7,0.3-1.2,0.8-1.4c0.7-0.3,1.1-0.7,1.3-1.1c0.2-0.4,0.3-1,0.3-1.7v-7.2c0-2.1,1.1-3.1,3.3-3.1
			h6.6c0.7,0,1.1,0.5,1.1,1.4v11.6c0.6,0,1,0,1.2,0.1c0.4,0.1,0.6,0.5,0.6,1v3.1c0,0.4-0.1,0.7-0.4,0.9c-0.3,0.2-0.6,0.4-1,0.4
			c-0.3,0-0.6-0.1-0.8-0.4c-0.2-0.3-0.3-0.6-0.3-0.9V310.5z M471.1,308.4l6.7,0v-10.8H473c-0.8,0-1.3,0.4-1.3,1.3v7
			C471.7,306.9,471.5,307.7,471.1,308.4z"/>
		<path class="st0" d="M492.5,310.7c-2,0-3.7-0.8-5-2.4c-1.2-1.5-1.7-3.2-1.7-5.3c0-2.1,0.6-3.9,1.7-5.4c1.2-1.6,2.9-2.4,5-2.4
			c2.1,0,3.7,0.8,5,2.4c1.1,1.5,1.7,3.3,1.7,5.4c0,2.1-0.6,3.9-1.7,5.3C496.3,309.9,494.6,310.7,492.5,310.7z M492.5,308.5
			c1.5,0,2.6-0.6,3.3-1.8c0.6-1,0.9-2.2,0.9-3.8c0-1.5-0.3-2.7-1-3.8c-0.8-1.2-1.9-1.8-3.3-1.8c-1.4,0-2.5,0.6-3.3,1.8
			c-0.6,1-0.9,2.3-0.9,3.8c0,1.5,0.3,2.8,0.9,3.8C490,307.9,491.1,308.5,492.5,308.5z"/>
		<path class="st0" d="M503.9,302.9c0-2.1,0.6-3.9,1.8-5.4c1.3-1.6,2.9-2.4,5-2.4c0.8,0,1.7,0.1,2.5,0.4c1.1,0.4,1.7,0.9,1.7,1.5
			c0,0.7-0.3,1.1-0.9,1.1c-0.4,0-0.9-0.1-1.4-0.4c-0.5-0.3-1.1-0.4-1.8-0.4c-1.4,0-2.5,0.6-3.3,1.8c-0.7,1.1-1.1,2.3-1.1,3.7
			c0,1.6,0.3,2.9,1,3.9c0.8,1.2,1.9,1.8,3.4,1.8c0.6,0,1.3-0.2,2-0.5c0.7-0.4,1.2-0.5,1.3-0.5c0.7,0,1.1,0.4,1.1,1.1
			c0,0.4-0.3,0.8-0.8,1.2c-0.9,0.6-2.1,0.9-3.5,0.9c-2.2,0-3.9-0.8-5.1-2.3C504.4,307,503.9,305.2,503.9,302.9z"/>
		<path class="st0" d="M522.3,297.5h-2.5c-0.3,0-0.6-0.1-0.8-0.3c-0.3-0.2-0.4-0.5-0.4-0.8c0-0.8,0.4-1.1,1.2-1.1h7.6
			c0.8,0,1.2,0.4,1.2,1.1c0,0.7-0.4,1.1-1.1,1.1h-2.7v12c0,0.4-0.1,0.7-0.4,0.9c-0.3,0.2-0.6,0.3-0.9,0.3c-0.8,0-1.2-0.4-1.2-1.3
			V297.5z"/>
		<path class="st0" d="M535.7,306.5l8-10.4c0.5-0.6,0.9-0.9,1.4-0.9c0.8,0,1.2,0.4,1.2,1.1v13.2c0,0.3-0.1,0.6-0.4,0.8
			c-0.2,0.2-0.5,0.3-0.8,0.3c-0.3,0-0.6-0.1-0.9-0.3c-0.3-0.2-0.4-0.5-0.4-0.8v-10.1l-8.1,10.5c-0.3,0.4-0.7,0.6-1.2,0.6
			c-0.8,0-1.2-0.4-1.2-1.2v-13.1c0-0.4,0.1-0.6,0.4-0.9c0.2-0.2,0.5-0.3,0.9-0.3c0.3,0,0.6,0.1,0.9,0.3c0.2,0.2,0.4,0.5,0.4,0.9
			V306.5z"/>
		<path class="st0" d="M573.1,297.4h-7.3v12.1c0,0.9-0.4,1.3-1.3,1.3c-0.3,0-0.6-0.1-0.9-0.4c-0.2-0.3-0.4-0.6-0.4-0.9v-12.9
			c0-0.4,0.1-0.7,0.3-0.9s0.5-0.4,0.9-0.4h9.8c0.9,0,1.3,0.4,1.3,1.3v13c0,0.9-0.4,1.3-1.3,1.3c-0.3,0-0.6-0.1-0.9-0.4
			c-0.2-0.3-0.4-0.6-0.4-0.9V297.4z"/>
		<path class="st0" d="M587.6,310.7c-2,0-3.7-0.8-5-2.4c-1.2-1.5-1.7-3.2-1.7-5.3c0-2.1,0.6-3.9,1.7-5.4c1.2-1.6,2.9-2.4,5-2.4
			c2.1,0,3.7,0.8,5,2.4c1.1,1.5,1.7,3.3,1.7,5.4c0,2.1-0.6,3.9-1.7,5.3C591.3,309.9,589.7,310.7,587.6,310.7z M587.6,308.5
			c1.5,0,2.6-0.6,3.3-1.8c0.6-1,0.9-2.2,0.9-3.8c0-1.5-0.3-2.7-1-3.8c-0.8-1.2-1.9-1.8-3.3-1.8c-1.4,0-2.5,0.6-3.3,1.8
			c-0.6,1-0.9,2.3-0.9,3.8c0,1.5,0.3,2.8,0.9,3.8C585.1,307.9,586.2,308.5,587.6,308.5z"/>
		<path class="st0" d="M600.2,301.8h5.7c0.8,0,1.2,0.4,1.2,1.1c0,0.7-0.4,1.1-1.2,1.1h-5.7c-0.3,0-0.6-0.1-0.8-0.3
			c-0.3-0.2-0.4-0.4-0.4-0.7c0-0.3,0.1-0.6,0.3-0.8C599.6,301.9,599.9,301.8,600.2,301.8z"/>
		<path class="st0" d="M623.6,310.5h-10.2v2c0,0.4-0.1,0.7-0.3,0.9c-0.2,0.3-0.5,0.4-0.9,0.4c-0.3,0-0.6-0.1-0.9-0.4
			c-0.2-0.3-0.4-0.6-0.4-0.9v-2.6c0-0.7,0.3-1.2,0.8-1.4c0.7-0.3,1.1-0.7,1.3-1.1c0.2-0.4,0.3-1,0.3-1.7v-7.2c0-2.1,1.1-3.1,3.3-3.1
			h6.6c0.7,0,1.1,0.5,1.1,1.4v11.6c0.6,0,1,0,1.2,0.1c0.4,0.1,0.6,0.5,0.6,1v3.1c0,0.4-0.1,0.7-0.4,0.9c-0.3,0.2-0.6,0.4-1,0.4
			c-0.3,0-0.6-0.1-0.8-0.4c-0.2-0.3-0.3-0.6-0.3-0.9V310.5z M615,308.4l6.7,0v-10.8h-4.8c-0.8,0-1.3,0.4-1.3,1.3v7
			C615.7,306.9,615.4,307.7,615,308.4z"/>
		<path class="st0" d="M636.5,310.7c-2,0-3.7-0.8-5-2.4c-1.2-1.5-1.7-3.2-1.7-5.3c0-2.1,0.6-3.9,1.7-5.4c1.2-1.6,2.9-2.4,5-2.4
			c2.1,0,3.7,0.8,5,2.4c1.1,1.5,1.7,3.3,1.7,5.4c0,2.1-0.6,3.9-1.7,5.3C640.2,309.9,638.6,310.7,636.5,310.7z M636.5,308.5
			c1.5,0,2.6-0.6,3.3-1.8c0.6-1,0.9-2.2,0.9-3.8c0-1.5-0.3-2.7-1-3.8c-0.8-1.2-1.9-1.8-3.3-1.8c-1.4,0-2.5,0.6-3.3,1.8
			c-0.6,1-0.9,2.3-0.9,3.8c0,1.5,0.3,2.8,0.9,3.8C634,307.9,635.1,308.5,636.5,308.5z"/>
		<path class="st0" d="M655.8,310.7c-0.6,0-1-0.3-1.2-0.9l-3.3-10.9l-0.1,0l-1.4,10.7c-0.1,0.8-0.5,1.1-1.3,1.1c-0.6,0-1-0.3-1.1-1
			c0-0.2,0-0.4,0-0.5l1.9-12.6c0.1-0.4,0.3-0.8,0.6-1.1c0.3-0.3,0.7-0.4,1.2-0.4c0.9,0,1.4,0.4,1.6,1.2l3,9.9l0.1,0l3-9.9
			c0.2-0.8,0.8-1.2,1.6-1.2c0.4,0,0.8,0.1,1.2,0.4c0.3,0.3,0.5,0.6,0.6,1.1l1.9,12.6c0,0.1,0,0.2,0,0.4c-0.1,0.7-0.5,1-1.1,1
			c-0.8,0-1.2-0.4-1.3-1.1l-1.4-10.7l0,0l-3.3,10.9C656.8,310.4,656.4,310.7,655.8,310.7z"/>
		<path class="st0" d="M679.5,297.2c0-0.9,0.1-1.5,0.4-1.7c0.2-0.2,0.5-0.3,0.8-0.3c0.8,0,1.2,0.4,1.2,1.3v13c0,0.9-0.4,1.3-1.2,1.3
			c-0.3,0-0.6-0.1-0.8-0.3c-0.2-0.2-0.4-0.5-0.4-0.9c0,0.2,0.1-0.2,0.1-1.1c-1.1,1.5-2.5,2.3-4.2,2.3c-1.5,0-2.8-0.5-4-1.4
			c-1.2-0.9-2-2.2-2.4-3.6c-0.2-0.8-0.3-1.7-0.3-2.8c0-1.2,0.2-2.3,0.6-3.3c0.5-1.3,1.3-2.4,2.3-3.1c1.1-0.9,2.3-1.3,3.7-1.3
			C676.9,295.2,678.3,295.9,679.5,297.2z M671.1,303.1c0,1.4,0.3,2.6,1,3.6c0.7,1.2,1.8,1.8,3.1,1.8c1.5,0,2.6-0.6,3.4-1.7
			c0.6-1,1-2.2,1-3.8c0-1.5-0.3-2.8-0.9-3.8c-0.7-1.2-1.8-1.8-3.3-1.8c-1.4,0-2.5,0.6-3.2,1.9C671.4,300.3,671.1,301.6,671.1,303.1z
			"/>
		<path class="st0" d="M690.5,308.3h5.3v-12.1c0-0.4,0.1-0.7,0.3-0.9c0.2-0.3,0.5-0.4,0.9-0.4c0.9,0,1.3,0.4,1.3,1.3v12.1h5.3v-12.1
			c0-0.4,0.1-0.7,0.3-0.9c0.2-0.3,0.5-0.4,0.9-0.4c0.9,0,1.3,0.4,1.3,1.3v12.9c0,0.9-0.4,1.3-1.3,1.3h-15.6c-0.4,0-0.7-0.1-0.9-0.4
			c-0.2-0.3-0.4-0.6-0.4-0.9v-12.9c0-0.4,0.1-0.7,0.3-0.9c0.2-0.3,0.5-0.4,0.9-0.4c0.9,0,1.3,0.4,1.3,1.3V308.3z"/>
		<path class="st0" d="M722.4,303.5h-7.6v5.9c0,0.9-0.4,1.3-1.3,1.3c-0.3,0-0.6-0.1-0.9-0.4c-0.2-0.3-0.4-0.6-0.4-0.9v-12.9
			c0-0.4,0.1-0.7,0.3-0.9c0.2-0.3,0.5-0.4,0.9-0.4c0.8,0,1.3,0.4,1.3,1.3v4.9h7.6v-4.8c0-0.4,0.1-0.7,0.3-0.9
			c0.2-0.3,0.5-0.4,0.9-0.4c0.8,0,1.3,0.4,1.3,1.3v13c0,0.9-0.4,1.3-1.3,1.3c-0.3,0-0.6-0.1-0.9-0.4c-0.2-0.3-0.4-0.6-0.4-0.9V303.5
			z"/>
		<path class="st0" d="M737.2,308.5c1.5,0,2.9-0.5,4.3-1.5c0.4-0.3,0.7-0.4,1-0.4c0.7,0,1,0.4,1,1.1c0,0.2-0.2,0.5-0.5,0.9
			c-0.7,0.7-1.5,1.3-2.6,1.7c-1,0.4-2,0.6-3.1,0.6c-2.2,0-3.9-0.8-5.2-2.4c-1.2-1.5-1.8-3.3-1.8-5.5c0-2.1,0.6-3.9,1.9-5.3
			c1.3-1.5,3-2.3,5.1-2.3c1.9,0,3.4,0.7,4.7,2.1c1.2,1.4,1.8,3,1.8,4.9c0,1.1-0.6,1.7-1.7,1.7h-9.3c0,1.3,0.4,2.3,1.3,3.2
			C734.9,308.1,736,308.5,737.2,308.5z M732.8,302h8.4c0-1.3-0.3-2.4-1-3.2c-0.7-1-1.7-1.4-3-1.4c-1.3,0-2.3,0.5-3.2,1.4
			C733.2,299.7,732.8,300.7,732.8,302z"/>
		<path class="st0" d="M756.3,310.7c-0.6,0-1-0.3-1.2-0.9l-3.3-10.9l-0.1,0l-1.4,10.7c-0.1,0.8-0.5,1.1-1.3,1.1c-0.6,0-1-0.3-1.1-1
			c0-0.2,0-0.4,0-0.5l1.9-12.6c0.1-0.4,0.3-0.8,0.6-1.1c0.3-0.3,0.7-0.4,1.2-0.4c0.9,0,1.4,0.4,1.6,1.2l3,9.9l0.1,0l3-9.9
			c0.2-0.8,0.8-1.2,1.6-1.2c0.4,0,0.8,0.1,1.2,0.4c0.3,0.3,0.5,0.6,0.6,1.1l1.9,12.6c0,0.1,0,0.2,0,0.4c-0.1,0.7-0.5,1-1.1,1
			c-0.8,0-1.2-0.4-1.3-1.1l-1.4-10.7l0,0l-3.3,10.9C757.3,310.4,756.9,310.7,756.3,310.7z"/>
		<path class="st0" d="M772.4,310l-4.5-13c-0.1-0.3-0.1-0.5-0.1-0.7c0-0.3,0.1-0.6,0.3-0.8c0.2-0.2,0.5-0.3,0.8-0.3
			c0.7,0,1.1,0.3,1.3,0.9l3.5,10.4l0.1,0l3.4-10.5c0.2-0.6,0.6-0.9,1.2-0.9c0.8,0,1.2,0.4,1.2,1.2c0,0.2,0,0.5-0.1,0.7l-6.6,18.7
			c-0.3,0.7-0.7,1.1-1.3,1.1c-0.3,0-0.6-0.1-0.8-0.3c-0.2-0.2-0.3-0.5-0.3-0.8c0-0.3,0-0.6,0.1-0.8L772.4,310z"/>
	</g>
</g>
<g>
	<path class="st1" d="M429,322.7c-11,0-26.4,9.3-26.4,30c0,10.9,6.4,17.4,17.1,17.4c13.1,0,21.2-10.5,21.2-18c0-2.6-1.5-3.5-2.7-3.5
		c-1,0-1.6,0.4-1.9,0.8c-1.1,1.1-1,3.1-0.8,4.9c0,0.3,0,0.6,0,0.8c0,0,0,0,0,0c0.1,2.4-1,5-3,7.1c-2.8,3-7,4.6-11.8,4.6
		c-8.1,0-11.9-4.6-11.9-14.6c0-3.6,0.4-7,1.2-10.2h30.8c3.6,0,3.6-3.3,3.6-4.9C444.5,328.7,438.1,322.7,429,322.7z M429,325.6
		c8.7,0,10,6.1,10,9.8c0,1.3,0,3.9-0.9,3.9h-27C415,329.2,423.1,325.6,429,325.6z"/>
	<path class="st1" d="M489,323.4h-2.2c-0.6,0-1.6,0.2-1.9,1.6c-0.9-0.2-1.8-0.3-2.7-0.5c-2.6-0.5-5.4-1.1-7.9-1.1
		c-7.8,0-16.2,4.5-16.2,12.9c0,5.1,3.1,9.1,8,11c-2.5,1.5-4.8,3.9-7.1,7.4c-5.2,8-8.3,11.5-9.2,12c-0.3,0-0.4-0.1-0.6-0.2
		c-0.2-0.1-0.4-0.2-0.8-0.2c-0.8,0-1.4,0.6-1.4,1.4c0,1.7,3,2,3,2c6.1,0,10.3-6.5,14-12.2c3-4.7,5.9-9.1,8.9-9.1h4.3
		c0.6,0,1.1-0.5,1.2-1.1c0-0.1,0.1-0.3,0.1-0.6c0-0.7-0.5-1.2-1.2-1.2h-4.1c-3.5,0-9.4-1.1-9.4-8.3c0-6.2,4.6-11,10.4-11
		c2.3,0,5,0.6,7.6,1.2c0.8,0.2,1.7,0.4,2.5,0.5l-6.1,34.2l0,0.3c-0.1,0.5-0.2,1-0.2,1.5c0,3.4,2.2,5.6,5.8,5.6
		c2.7,0,6.4-1.6,6.4-5.3c0-0.8-0.6-1.4-1.4-1.4c-0.7,0-1.4,0.5-1.5,1.3c-0.4,1.6-1.4,2.1-2.2,2.1c-0.3,0-1.2,0-1.2-1.5
		c0-0.1,0-0.5,0-0.6c0-0.1,0-0.1,0-0.2l6.8-38.4c0-0.1,0-0.1,0-0.2v-0.2C490.8,324.1,490.1,323.4,489,323.4z"/>
	<path class="st1" d="M601.6,367c-0.3-0.6-1-1-2-0.7c-0.1,0-0.2,0.1-0.3,0.1c-0.1,0-0.1,0.1-0.2,0.1c-0.8-0.7-2-4.6-2.9-7.4
		c-0.5-1.6-1.1-3.3-1.7-5c-3-8.2-8.8-11.7-13.9-12.4c4.7-8.5,13.1-15.3,22.4-12.1c1.3,0.5,2.7,0.3,3.6-0.5c0.9-0.8,1.2-1.9,0.9-3
		c-0.3-1.3-1.5-2.3-3.2-2.6c-10.9-2.3-24.1,8-28.8,22.5c-0.1,0.3-0.1,0.7,0.1,1c0.2,0.3,0.5,0.5,0.8,0.6l0.6,0.1
		c0.6,0.1,1.1-0.2,1.3-0.7l0.2-0.6c0.1-0.3,0.4-1,0.6-1.6c3.6,0.7,7.4,5.4,9.5,11.8l0.5,1.7c2.2,6.8,3.6,11.3,8.9,11.3
		c1.1,0,1.9-0.2,2.7-0.6C601.8,368.5,601.9,367.6,601.6,367z"/>
	<path class="st1" d="M577.3,325.3c-1.1-1.3-2.8-2-5-2c-1.4,0-3.4,0.6-4.6,1.3c-0.5,0.3-0.8,0.8-0.8,1.3c0,0.5,0.3,1,0.7,1.3
		c0.5,0.3,1.1,0.3,1.7-0.1c0.5-0.3,1-0.5,1.4-0.5c0.5,0,1.3,0.1,1.7,0.7c0.4,0.5,0.5,1.4,0.3,2.5l-7.2,37.3c0,0.2-0.2,1,0.3,1.5
		c0.3,0.4,0.8,0.6,1.4,0.6h2.2c1,0,1.8-0.7,2-1.6l7-36.5C579,328,578.1,326.2,577.3,325.3z"/>
	<path class="st1" d="M658.8,323.6h-14.3c-0.9,0-1.6,0.7-1.6,1.5c0,0.8,0.6,1.4,1.5,1.4h2.3c1.6,0,2,0.2,2,0.2c0,0,0.2,0.5-0.9,2.5
		l-17.5,32.1l-7.4-34.8h4c0.9,0,1.6-0.7,1.6-1.5c0-0.4-0.2-0.8-0.5-1c-0.3-0.2-0.6-0.4-1-0.4h-14.7c-0.8,0-1.5,0.7-1.5,1.5
		c0,0.3,0.1,0.7,0.3,0.9c0.3,0.3,0.6,0.5,1.1,0.5h4.3l8.7,40.7c0.2,0.9,0.6,1.4,1,1.7l-0.7,1.4c-3.2,6-8.4,13.6-15.3,15.5
		c-3.7,1-7.5,0.4-11.5-2c-1.2-0.7-2.5-0.7-3.6,0c-1,0.7-1.6,1.8-1.4,3c0.1,0.9,0.7,2.6,3.5,3.7c2.1,0.9,4.2,1.3,6.4,1.3
		c8.7,0,17.4-7.1,24.6-20.3c0,0,0,0,0,0l22.3-41.2c1.5-2.6,3-3.7,5.1-3.7h3.1c0.9,0,1.6-0.7,1.6-1.5
		C660.3,324.2,659.6,323.6,658.8,323.6z"/>
	<path class="st1" d="M680.7,322.5H680c-15.5,0-26,15.2-26,29.5c0,11.4,6.8,18.3,18.2,18.4c9.6,0,19.5-7.7,19.6-15.2
		c0-2.1-1.4-3.6-3.3-3.6c-1.9,0-3.2,1.4-3.2,3.4c0,0.4,0.1,0.8,0.1,1.1c0,0.2,0.1,0.5,0.1,0.7c-0.1,4.4-4.5,10.5-12.7,10.5
		c-8.3,0-12.4-4.9-12.4-14.4c0-10.8,5.2-27,19.6-27.4h0.6c3.3,0,5.8,0.8,7.3,2.3c1,1,1.5,2.3,1.4,3.8c0,0.6-0.2,1.2-0.5,2
		c-0.3,0.8-0.6,1.7-0.6,2.6c0,1.4,1,2.8,3.1,2.8c2.1,0,3.5-2.2,3.7-5.6c0-2.5-0.9-4.8-2.7-6.6C689.8,323.9,685.6,322.5,680.7,322.5z
		"/>
	<path class="st1" d="M722.3,322.9c-7.7,0-17.2,4.2-19.3,11.1c-4.2,4.7-6.6,11.1-6.6,17.9c0,11.3,6.9,18.4,17.9,18.4
		c16.1,0,25.7-15.1,25.7-29.7C740,329.6,733.2,322.9,722.3,322.9z M714.4,367.3c-7.9,0-11.9-4.8-11.9-14.2c0-3.4,0.7-8.5,1.8-11
		l0.6-1.6c0-0.1,0.1-0.3,0.1-0.4c0-0.2,0-0.3,0-0.5c0.2,0,0.4,0.1,0.7,0.1c1.6,0,3.3-1.4,3.3-3.4c0-0.2,0-0.5-0.1-0.7
		c0-0.2,0-0.3,0-0.5c0-4.4,5.5-9.3,13.3-9.3c4.4,0,11.7,1.8,11.7,13.6C733.9,353.3,727.9,367.3,714.4,367.3z"/>
	<path class="st1" d="M772.5,344.5c2.3-0.6,4.5-1.4,6.4-2.6c4.4-2.4,5.4-6.9,5.4-8.9c0.1-3.5-1.9-9.5-14.3-9.5
		c-11,0-26.4,9.3-26.4,30c0,11,6.2,17.3,17,17.4c9.3-0.2,19.8-6.8,19.8-15.9C780.4,348.8,776.4,345.9,772.5,344.5z M770,326.4
		c5.4,0,8.5,2.1,8.5,5.9c0,7.1-5.9,10.5-17.9,10.5H751C754.2,331.5,762.9,326.4,770,326.4z M761,367.9c-7.8,0-11.3-4.6-11.3-14.8
		c0-2.6,0.2-5.1,0.6-7.3h10c9.9,0.1,14.1,3,14.1,9.5C774.3,362.9,767.4,367.9,761,367.9z"/>
	<path class="st1" d="M371.1,297.5c-0.6,0-1.7,0.2-2.3,0.3c2.1-4.1,5.3-5.8,10.5-5.8c0.7,0,1.5,0.2,2.4,0.3c1.1,0.2,2.2,0.4,3.3,0.4
		c1.7,0,3.2-1.3,3.2-2.7c0.1-0.7-0.1-1.4-0.6-1.9c-0.7-0.8-1.9-1.2-3.7-1.2c-8.1,0-17.9,3.1-22,11.1c-2.8-1.2-7.5-2.2-11.3-2.1
		c-21.7,0.6-38.1,20.6-37.4,45.5l0,0.6c0.9,19.9,16.8,26.5,31.4,26.1c0.2,0,0.4,0,0.6,0c-6.9,13.3-20.3,21.3-31.3,21
		c-17.5-0.5-27-14.9-27-26.8c0-12.1,7.6-26.1,20.2-28.4c1.4-0.3,2.5-1.1,2.8-2.3c0.3-1,0-2.1-0.8-2.9c-0.9-0.9-2.3-1-3.7-0.5
		c-12.3,4.5-21.6,19.3-21.6,34.3c0,14.3,12.1,30.1,29.7,30.2c13.6,0.1,31.6-9,38.8-25.7c2.8,1.2,6.7,2.4,10.6,2.4
		c21.7,0,38.7-19.5,38.7-44.4v-0.6C401.4,304.5,385.7,297.5,371.1,297.5z M344.7,365.1c-16,0.5-24.3-7.1-24.7-22.3
		c-0.7-25.2,11.9-43.2,30.7-43.8c3.3-0.1,7.5,0.9,10.2,1.9c-7,23.2-11.9,56.9-11.9,56.9c-0.5,2.5-1.3,4.8-2.2,7.1
		C346,365,345.4,365,344.7,365.1z M363.1,366.5c-3.3,0-6.9-1.1-9.5-2.2l0.1-0.1c1.3-2.8,2.2-6,2.9-9.6l3.1-17.4l5.3-24.9
		c1.1-4.9,1.9-8.7,3-11.6c1-0.1,2-0.1,3-0.1c16,0,24.1,7.8,24.1,23C395.1,348.8,381.9,366.5,363.1,366.5z"/>
	<path class="st1" d="M545.4,322.3c-11,0-26.4,9.3-26.4,30c0,11,6.2,17.3,17,17.4c9.3-0.2,19.8-6.8,19.8-15.9c0-6.3-4-9.2-8-10.6
		c9.7-2.4,12-7.4,12-11.5C559.7,326,554.1,322.3,545.4,322.3z M525.6,344.6H536c9.5,0.1,13.7,3,13.7,9.5c0,7.6-6.9,12.6-13.4,12.6
		c-7.8,0-11.3-4.6-11.3-14.8C525,349.3,525.2,346.8,525.6,344.6z M526.3,341.6c3.2-11.3,12-16.4,19-16.4c5.4,0,8.5,2.1,8.5,5.9
		c0,7.1-5.5,10.4-17.4,10.5H526.3z"/>
</g>
<g>
	<path class="st1" d="M403.6,262c-1.9-2.7-3.8-6.1-3.8-6.1h-46.2h-46.2c0,0-1.9,3.4-3.8,6.1c-1.9,2.7-1.6,6,0.6,7.3
		c0.6,0.4,1.3,0.5,2.1,0.5c1.9,0,4-1.2,5.4-3.1c0.1-0.1,0.1-0.3,0.2-0.4c1.7,2.3,6.1,3.9,11.3,3.9c3.7,0,6.9-0.8,9.1-2.1
		c2.2,1.3,5.5,2.1,9.2,2.1c6.7,0,12.1-2.6,12.1-5.9c0,3.2,5.4,5.9,12.1,5.9c3.7,0,7-0.8,9.2-2.1c2.2,1.3,5.5,2.1,9.1,2.1
		c5.2,0,9.6-1.6,11.3-3.9c0.1,0.1,0.1,0.3,0.2,0.4c1.4,2,3.5,3.1,5.4,3.1c0.7,0,1.4-0.2,2.1-0.5C405.2,268,405.5,264.8,403.6,262z"
		/>
	<g>
		<g>
			<path class="st2" d="M355.1,252.4c-1.5-2.9-1.9-6.5-0.9-9.9c0.3-1,0.8-1.9,1.3-2.7c-0.8,0.2-1.7,0.4-2.6,0.4c-0.2,0-0.4,0-0.5,0
				c-4.5,0-8.5-2.9-10.3-7.2c-0.4,1.6-1.1,3.1-1.9,4.5c2.6,0.6,4.9,2,6.8,4c0.1,0.1,0.3,0.3,0.4,0.4c2.5,2.9,3.4,6.8,2.8,10.5H355.1
				z"/>
			<path class="st3" d="M342,223.9c1.4-3.4,4.4-5.8,8-6c4.2-0.2,7.8,3.3,8,7.9c0.1,1.8-0.5,3.6-1.6,4.9c-1.1,1.4-2.7,2.2-4.4,2.2
				c-2.9,0.1-5.4-2.3-5.5-5.5c-0.1-1.3,0.4-2.5,1.2-3.5c0.8-1,1.9-1.5,3.1-1.6c0.6,0,1.1,0.5,1.2,1.2c0,0.7-0.4,1.2-1.1,1.3
				c-0.6,0-1.1,0.3-1.5,0.8c-0.4,0.5-0.6,1.1-0.6,1.7c0.1,1.8,1.5,3.3,3.2,3.2c1.1-0.1,2.1-0.6,2.8-1.5c0.7-0.9,1.1-2,1.1-3.2
				c-0.1-3.2-2.7-5.7-5.7-5.6c-3.9,0.2-6.9,3.8-6.7,8c0.2,5.4,4.5,9.6,9.5,9.4c3.1-0.2,6-1.6,8-4.1c2.1-2.5,3.2-5.7,3-9.1
				c-0.1-2.5-0.7-4.8-1.8-6.9h-23.2C340.3,219.4,341.3,221.6,342,223.9z"/>
			<path class="st0" d="M374.8,231.7c-3.4-0.9-6.4-2.8-8.7-5.6c-0.2,3.4-1.4,6.6-3.6,9.1c-0.1,0.2-0.3,0.3-0.4,0.4
				c1.3-0.1,2.6,0,3.8,0.5c4,1.5,6.1,6.2,4.8,10.5c-0.5,1.7-1.7,3.1-3.2,4c-1.5,0.8-3.2,0.9-4.8,0.3c-2.8-1-4.2-4.3-3.3-7.3
				c0.4-1.2,1.2-2.2,2.2-2.8c1.1-0.6,2.3-0.7,3.4-0.2c0.6,0.2,0.9,0.9,0.7,1.5c-0.2,0.6-0.8,1-1.4,0.8c-0.6-0.2-1.2-0.2-1.7,0.1
				c-0.5,0.3-0.9,0.8-1.1,1.4c-0.5,1.7,0.3,3.6,1.9,4.2c1,0.4,2.2,0.3,3.1-0.2c1-0.5,1.7-1.4,2.1-2.6c1-3.1-0.6-6.4-3.4-7.4
				c-3.7-1.4-7.7,0.8-8.9,4.8c-1,3.2-0.4,6.6,1.4,9.2h16.5c1.1-1.3,2-2.8,2.5-4.6c0.7-2.1,0.9-4.3,0.7-6.4c-0.8-3.2-0.2-6.6,1.8-9.2
				C377.8,232.2,376.3,232.1,374.8,231.7z"/>
			<path class="st4" d="M318.9,238.4c0.3,0.1,0.5,0.1,0.7,0.2c-1.1-1.8-1.9-4-2-6.3c-0.2-5.5,3.7-10.3,8.8-10.5
				c4.2-0.2,7.8,3.3,8,7.9c0.1,1.8-0.5,3.6-1.6,4.9c-1.1,1.4-2.7,2.2-4.4,2.2c-2.9,0.1-5.4-2.3-5.5-5.5c-0.1-1.3,0.4-2.5,1.2-3.5
				c0.8-1,1.9-1.5,3.1-1.6c0.6,0,1.1,0.5,1.2,1.2c0,0.7-0.4,1.2-1.1,1.3c-0.6,0-1.1,0.3-1.5,0.8c-0.4,0.5-0.6,1.1-0.6,1.7
				c0.1,1.8,1.5,3.3,3.2,3.2c1.1-0.1,2.1-0.6,2.8-1.5c0.7-0.9,1.1-2,1.1-3.2c-0.1-3.2-2.7-5.7-5.7-5.6c-3.9,0.2-6.9,3.8-6.7,8
				c0.2,5.4,4.5,9.6,9.5,9.4c3.1-0.2,6-1.6,8-4.1c2.1-2.5,3.2-5.7,3-9.1c-0.2-4.1-1.8-7.9-4.5-10.8h-11.8c-5,0-9,4.4-9,9.8v10.7
				C316.4,238,317.6,238.1,318.9,238.4z"/>
			<g>
				<path class="st1" d="M325.8,246.2c-1.7-2.8-4.3-4.8-7.3-5.5c-1.1-0.3-2.2-0.3-3.3-0.2v6.2c1.1-0.4,2.2-0.5,3.4-0.2
					c1.7,0.4,3.1,1.4,4,3c0.5,0.9,0.8,1.9,0.8,2.9h3.9C327.4,250.3,326.9,248.1,325.8,246.2z"/>
				<path class="st1" d="M318,248.9c-1-0.2-2.1,0-2.9,0.6v2.9h6c0-0.5-0.2-1.1-0.5-1.6C320,249.8,319.1,249.1,318,248.9z"/>
				<path class="st1" d="M380.6,243c2.6,4.1,7.6,5.3,11.6,3.1v-6.8c-0.5,1.1-1.1,2-2,2.7c-2.4,1.8-5.7,1.2-7.4-1.4
					c-0.7-1.1-1-2.3-0.7-3.6c0.2-1.3,0.8-2.4,1.8-3.1c0.5-0.4,1.2-0.3,1.5,0.3c0.4,0.5,0.2,1.3-0.3,1.7c-0.5,0.4-0.8,0.9-0.9,1.6
					c-0.1,0.6,0,1.3,0.4,1.8c1,1.5,2.9,1.9,4.3,0.8c0.9-0.7,1.5-1.7,1.7-2.9c0.2-1.2-0.1-2.4-0.7-3.3c-1.7-2.6-5.1-3.3-7.5-1.4
					c-2,1.5-3,3.9-3,6.3c0.2,0.8,0.3,1.5,0.3,2.3C379.9,241.7,380.2,242.4,380.6,243z"/>
				<path class="st1" d="M379.6,245.4c-0.1,1.1-0.4,2.1-0.7,3.2c-0.4,1.4-1,2.7-1.8,3.8h15.1v-3.7
					C387.8,250.6,382.7,249.3,379.6,245.4z"/>
				<path class="st1" d="M387.9,229.3c1.5,0.5,2.8,1.6,3.8,3.1c0.2,0.3,0.4,0.6,0.5,1v-5.9c0-0.8-0.1-1.7-0.3-2.4
					C390.9,226.7,389.5,228.2,387.9,229.3z"/>
			</g>
			<g>
				<path class="st5" d="M338.4,247.5c-1.1,0-2.1,0.5-2.9,1.3c-0.9,1-1.4,2.2-1.5,3.5h8c0.4-1.2,0.2-2.6-0.7-3.6
					C340.5,248,339.5,247.5,338.4,247.5z"/>
				<path class="st5" d="M345.5,243.2c-1.9-2-4.3-3.3-6.9-3.6c-2.4,2.6-5.6,4.2-9.1,4.4c-0.2,0-0.4,0-0.5,0c-0.7,0-1.4-0.1-2.1-0.2
					c0.3,0.4,0.5,0.7,0.8,1.1c0.1,0.2,0.2,0.3,0.3,0.5c1.2,2.2,1.7,4.6,1.5,7h2.3c0.1-1.9,0.8-3.8,2.2-5.2c1.2-1.3,2.8-2,4.5-2
					c1.7,0,3.3,0.7,4.5,2c1.3,1.4,1.8,3.4,1.4,5.3h3.6C348.6,249.2,347.8,245.7,345.5,243.2z"/>
				<path class="st5" d="M390.8,222.2c-1-1.7-2.5-3.1-4.3-3.9c-0.5,1.2-1.4,2.3-2.4,3c-3.6,2.4-8.3,1.2-10.5-2.7
					c-0.2-0.3-0.4-0.7-0.5-1h-8.5c0.6,1.3,1,2.8,1.2,4.2c0.1,0.1,0.2,0.2,0.3,0.3c2.1,3.7,5.3,6.2,9.2,7.2c3.8,1,7.8,0.3,11.2-2
					C388.4,226.1,389.9,224.3,390.8,222.2z"/>
				<path class="st5" d="M383,219.2c0.6-0.4,1.1-0.9,1.4-1.6c-0.4-0.1-0.8-0.1-1.2-0.1h-7.5C377.3,220.1,380.5,220.9,383,219.2z"/>
			</g>
		</g>
		<path class="st1" d="M379.3,201.5c-0.3-2.6-2.3-5-5.1-6.1c-0.2-0.1-0.3-0.1-0.5-0.2c0-0.5,0-1.1-0.1-1.6c-0.7-2.7-3-4.3-6.4-4.4
			c-2.6,0-5.6,1.6-9.3,4.8c-1-1-1.9-2.1-2.8-3.1c1.2-1.8,1.9-3.5,2.3-4.9c0.4-1.9,0.2-3.7-0.5-4.9c-0.6-0.9-1.6-1.5-2.6-1.5
			c-1,0-2,0.6-2.6,1.5c-0.8,1.3-1,3.1-0.5,4.9c0.3,1.5,1.1,3.2,2.3,4.9c-0.8,1-1.8,2.1-2.8,3.1c-3.7-3.2-6.7-4.8-9.4-4.8h0
			c-3.3,0.1-5.6,1.6-6.3,4.4c-0.1,0.5-0.2,1-0.1,1.6c-0.2,0.1-0.3,0.1-0.5,0.2c-2.8,1.1-4.8,3.5-5.1,6.1c-0.3,2.6,0.3,5.1,1.8,6.9
			c2,2.5,5.3,3.3,8.4,2.1c1.3-0.5,2.3-1.9,2.6-3.5c0.5-0.1,1-0.2,1.5-0.3c0.4-0.1,0.9-0.3,1.3-0.5c0.3-0.1,2.7-0.9,5.6-2.7
			c1,0.9,1.9,1.9,2.8,2.7c-1.2,1.1-2.2,2-3.2,2.8c-1.5-0.8-2.9-1.3-4.2-1.3l-0.2,0c-0.7,0-1.3,0.1-1.9,0.4c-0.7,0.4-1.5,1-1.5,2.3
			c0,0.9,0.9,2.2,2.9,2.2c0.9,0,1.9-0.3,3-0.8l0,0c0.5-0.2,1.5-0.8,2.1-1.2c1.2,0.8,2.3,1.8,3.7,3.3l0.3,0.3l0.3-0.3
			c1.4-1.5,2.5-2.5,3.7-3.3c0.6,0.4,1.6,1,2.1,1.2l0,0c1.1,0.5,2.1,0.8,3,0.8c2,0,2.9-1.3,2.9-2.2c0-1.3-0.8-1.9-1.5-2.3
			c-0.5-0.3-1.1-0.4-1.9-0.4l-0.2,0c-1.2,0-2.7,0.4-4.2,1.3c-1-0.8-2.1-1.7-3.2-2.8c0.9-0.9,1.9-1.8,2.8-2.7
			c2.9,1.8,5.3,2.6,5.5,2.7c0.5,0.2,0.9,0.4,1.3,0.5c0.5,0.1,1,0.2,1.5,0.3c0.3,1.5,1.3,2.9,2.6,3.5c1,0.4,1.9,0.6,2.9,0.6
			c0,0,0,0,0,0c2.1,0,4.1-1,5.5-2.6C378.9,206.6,379.6,204.2,379.3,201.5z M369.7,203.4c0,0,0.2,0,0.3,0c0.3,0,0.5,0.1,0.6,0.3
			c0.3,0.5,0.1,1-0.1,1.2c-0.4,0.6-1.4,0.9-2.6,1c0,0,0,0,0,0C368,204.5,368.8,203.7,369.7,203.4z M371.5,206.3
			c1-0.7,1.3-2.1,0.8-3.2c-0.6-1.2-1.7-1.7-3.1-1.2c-1.3,0.5-2.7,2-2.9,3.8c-0.3-0.1-0.6-0.1-0.9-0.2c-1.7-0.5-3.7-1.6-6-3.3
			c0.4-0.4,0.8-0.8,1.3-1.3c0.5-0.5,0.8-0.9,1.1-1.1c0.1-0.1,0.2-0.2,0.4-0.3c1.7,0.7,3.5,1.1,5.1,1.1l0.3,0c2,0,3.5-0.6,4.5-1.8
			c0.5-0.6,0.9-1.3,1.2-2.1c0,0,0.1,0,0.1,0c2.2,0.8,3.5,2.6,3.9,4.9c0.3,2.4-0.4,4.6-2.1,6.1c-1.2,1-2.7,1.6-4.1,1.7
			c-0.6,0-1.1-0.1-1.6-0.3c-0.8-0.4-1.3-1-1.6-1.8C369.4,207.3,370.6,207,371.5,206.3z M342,205.6c-0.2-1.8-1.6-3.3-2.9-3.8
			c-1.4-0.5-2.5,0-3.1,1.2c-0.5,1.1-0.2,2.5,0.8,3.2c0.9,0.7,2.2,1,3.6,0.8c-0.2,0.8-0.8,1.5-1.6,1.8c-0.5,0.2-1,0.3-1.6,0.3
			c-1.4,0-3-0.7-4.1-1.7c-1.7-1.5-2.5-3.7-2.1-6.1c0.3-2.3,1.7-4,3.9-4.9c0,0,0.1,0,0.1,0c0.2,0.8,0.6,1.5,1.2,2.1
			c1,1.2,2.6,1.7,4.5,1.8l0.3,0c1.6,0,3.5-0.4,5.1-1.1c0.1,0.1,0.3,0.2,0.4,0.4c0.3,0.3,0.7,0.7,1.2,1.2c0.4,0.4,0.8,0.8,1.2,1.2
			c-2.2,1.7-4.2,2.8-6,3.3C342.6,205.5,342.3,205.6,342,205.6z M338,204.8c-0.2-0.3-0.4-0.7-0.1-1.2c0.1-0.2,0.3-0.3,0.6-0.3
			c0.1,0,0.3,0,0.3,0c0.9,0.3,1.7,1.1,1.8,2.4C339.4,205.7,338.4,205.4,338,204.8z M370.4,195.7v0.4c0.4,0,0.8,0,1.2,0.1
			c-1,3.2-5.7,2.7-7.2,2.4c-0.3-0.1-0.5-0.2-0.8-0.3c2-1.4,4.4-2.2,6.7-2.3L370.4,195.7L370.4,195.7z M355.9,199l2.5-2.5
			c0.9,0.9,1.8,1.5,2.6,2.1c0,0,0,0,0.1,0c0,0,0,0-0.1,0.1c-0.3,0.3-0.7,0.7-1.2,1.2l-1.3,1.3C357.7,200.6,356.8,199.9,355.9,199z
			 M370.7,194.8l-0.3,0c-2.9,0-5.8,1.1-8.2,2.9c-0.1-0.1-0.3-0.1-0.4-0.2c-0.8-0.5-1.6-1.1-2.4-1.9c2.7-2.7,2.8-2.8,4.3-3.8l0.5-0.3
			l0,0c0.7-0.3,1.3-0.5,1.9-0.7c0.3,0,0.7-0.1,1.1-0.1c1,0,2.8,0.2,3.8,1.4c0.6,0.7,0.9,1.6,0.9,2.7
			C371.4,194.8,371,194.8,370.7,194.8z M354.2,205.4c-0.9-0.9-1.9-1.7-2.7-2.6c1-0.7,1.9-1.4,2.7-2.2c0.8,0.8,1.7,1.5,2.7,2.2
			C356,203.8,355.1,204.6,354.2,205.4z M352.9,182.3c0.3-0.4,0.7-0.6,1.2-0.6h0.1c0.5,0,1,0.2,1.2,0.6c0.7,0.9,0.8,2,0.5,3.4
			c-0.3,1.2-0.9,2.6-1.8,4.1c-0.9-1.5-1.5-2.9-1.8-4.1C352.1,184.3,352.3,183.2,352.9,182.3z M354.3,192.2L354.3,192.2
			c0.8,0.9,1.6,1.9,2.6,2.9l-0.1,0.1c-0.8,0.7-1.6,1.5-2.5,2.3c-0.8-0.8-1.7-1.6-2.5-2.3l-0.1-0.1
			C352.6,194.1,353.4,193,354.3,192.2L354.3,192.2z M338.1,195.7l0.1,0.4c2.3,0.1,4.7,0.9,6.7,2.3c-0.2,0.1-0.5,0.2-0.7,0.2
			c-1.6,0.3-6.2,0.8-7.2-2.4c0.4,0,0.8-0.1,1.2-0.1L338.1,195.7L338.1,195.7z M347.4,198.7C347.5,198.6,347.5,198.6,347.4,198.7
			c0.9-0.6,1.8-1.3,2.7-2.1l2.5,2.5c-0.9,0.8-1.8,1.6-2.6,2.2l-1.3-1.4C348.2,199.4,347.8,199,347.4,198.7
			C347.5,198.7,347.4,198.7,347.4,198.7z M344.4,191.5l0.5,0.3c1.4,1,1.5,1.1,4.3,3.8c-0.9,0.8-1.7,1.4-2.4,1.9
			c-0.1,0.1-0.2,0.1-0.4,0.2c-2.4-1.9-5.4-2.9-8.2-2.9l-0.3,0c-0.4,0-0.7,0-1,0.1c0-1.1,0.3-2.1,0.9-2.7c1.1-1.2,2.9-1.4,3.8-1.4
			c0.4,0,0.7,0,1,0.1C343.1,190.9,343.8,191.2,344.4,191.5z M354.2,207.7c1,0.8,1.9,1.6,2.8,2.2c-0.9,0.7-1.9,1.5-2.8,2.4
			c-0.9-0.9-1.9-1.8-2.8-2.4C352.3,209.3,353.3,208.5,354.2,207.7z M345.8,211.4c-1.1,0-1.7-0.7-1.8-1.2c0-0.1,0.1-0.3,0.2-0.4
			c0.3-0.4,1-0.7,1.8-0.7c0.9,0,1.9,0.3,2.9,0.8C347.5,211.2,346.4,211.4,345.8,211.4z M364.3,209.8c0.1,0.2,0.2,0.3,0.2,0.4
			c0,0.5-0.7,1.2-1.8,1.2c-0.7,0-1.8-0.3-3.1-1.5C361.6,208.9,363.6,208.9,364.3,209.8z"/>
	</g>
</g>
<path class="st0" d="M250.1,270.2c0.6-6.9-0.3-14.9-2.5-24c-5-21.1-19.4-38.3-32.1-56.2c-10.5-14.7-21.9-28.6-33.8-41.9
	c-11.6-13.1-35.3-41.7-37-39.3c-1.5,1.1-4.1,17.9-2.3,40.2c3.2,2.4,6.1,4.7,8.6,6.6c17.1,12.8,31.6,24.9,44.5,36.9
	c2.5,2.4,5.1,4.8,7.7,7.1c12.1,11,24.4,22.4,33.2,36.6c-11.5-17.1-28.9-29-45.1-42c-15-12-30.6-22.7-46.6-32.8
	c-15.7-9.9-48.2-32-49.2-28.9C91.9,137,115.2,272.3,219.1,270c5.1-0.1,11.9,0.3,16.4,3.1c-6.4,1.5-17.4,1.9-21.4,8.8
	c-3.3,5.7-0.2,11.6,3.8,13.9c9,5.2,18.2,3.3,26.1-3.1C249.1,286,250.9,278.5,250.1,270.2z"/>
<g>
	<path class="st1" d="M159.1,372.1c-4.5-1.1-9.3-1.7-14-1.6c-11.6,0.3-34.4,2.7-45.7,6c-0.9,0.3-2.6-0.4-3.1-1.2
		c-2.3-3.7-5.2-4.7-8.7-2.5c-1.4,0.9-2.6,2.1-3.8,3.3c-3,3.2-11.5,8-15.5,9.5c-3.1,1.2-5.7,3.9-8.3,6.1c-0.6,0.5-1,2.2-0.6,2.8
		c0.5,0.8,1.7,1.5,2.6,1.5c1.1,0.1,2.3-0.5,3.4-0.8c4.6-1,19.2-4.4,23.9-4.5c11.1-0.3,27.3-2.1,38.4-1.7c0.8,0,1.6,0.1,2.5,0.1
		c4-2,10-3.4,14.9-4.6c1.3-0.3,2.4-0.6,3.5-0.9c4.1-1.1,11.2-1.8,16.5-2.3c0.5-0.1,1-0.1,1.5-0.2l13-10.3c0,0-5.5,2.4-10.5,5.1
		C165.7,374.6,162.5,372.9,159.1,372.1z"/>
	<g>
		<path class="st1" d="M207.1,378c0,0-5.2-1.1-9.1-3.7c-3.9-2.5-1.8-9.9-1.8-9.9s-2.6,0.5-5.1,0.3c-8.5,7.2-21.9,17.1-23.5,19.1
			c-4.7,0.5-13.9,1.3-18.5,2.5c-5.1,1.3-14,3.1-18.7,5.6c-11.7,6.4-30.1,20.9-40.2,30c-0.8,0.7-2.8,1-3.7,0.5
			c-3.9-2.3-7.2-1.8-9.9,2.2c-1,1.5-1.8,3.3-2.4,5.1c-1.7,4.6-8.4,13.7-11.8,17.3c-2.6,2.7-4.1,6.7-5.9,10.3c-0.4,0.8-0.1,2.6,0.5,3
			c0.8,0.5,2.3,0.5,3.3,0.1c1.2-0.5,2.1-1.7,3.2-2.6c4.3-3.3,17.7-14.3,22.4-16.9c11.1-6.1,26.9-16.4,38.4-21.9
			c12.5-5.9,39.3-10.8,45.2-11.9c4.4-0.8,23-9.8,40.5-19.1C206.4,384.8,207.1,378,207.1,378z"/>
		<path class="st1" d="M370,270.8c-3.6,0.4-7.2,1.5-10.9,1.5c-3.5-0.1-6.9-1.2-10.3-2c-2.7-0.7-3.4-2.9-2.9-5.7
			c0.2-0.9,0.5-2.1,0.2-2.7c-0.6-1.2-1.6-2.4-2.7-2.9c-0.4-0.2-1.9,1.3-2.3,2.4c-0.8,1.9-0.9,4.2-1.9,5.9c-1.2,2-2.9,4.2-4.8,5.2
			c-6.6,3.6-14.1,5.3-20.8,8.6c-5.7,2.8-13.4-4.1-19.3-13.7c0.1,0,0.1,0,0.2,0c-3.3-5-8.3-23.4-12-24.4c-6.1-1.6-7.1-14.5-4.3-14.4
			c2.5,0.1,8.4,2.7,10.7,1.4c0.8-0.2,1.6-0.5,2.3-1.1c2.1-1.7,0-3.6,1.1-5.2c1.2-1.5,2.3,0.1,2.5-1.4c0.1-1.3-1.3-2.1-0.1-2.9
			c0.4-0.2,0.7-0.5,1-0.9c0.3-0.4,0.4-0.9,0.3-1.3c-0.2-0.6-0.9-0.8-1.4-1.1c-2.3-1.3,1.1-2.6,1.8-3.5c1.2-1.5,2.2-1.3-0.5-3.3
			c-6.6-4.8-2.4-13-1.9-19.7c0.5-6.6,5.3-7.9,6.8-15.5c1.3-6.5-3.4-11.5-8.5-9.2c3.1,1.8,2.1,7-1.7,7.7c-3.8,0.7-11.3-1.5-11.3-1.5
			s-16.2-4.5-17.4-19.5c-0.6-8.4,7.3-15.6,15-17.1c7.6-1.5-6.8-6.3-20.4-0.4c-13.6,5.9-26.5,16.9-26.5,36.4
			c0,28,21.4,40.8,21.1,42.3c-1.1,6.7-7.4,2.2-7.4,2.2s-1.6,6,3.3,9.1c7.5,4.8,11.8-5.1,13.6-1.1c1.7,4,2.1,11.9,0.4,17
			c-2,5.2-4,11-4.4,14.6c-0.1,3.1-0.3,7.7-0.6,12.7l-0.4-0.3c0,0,0.1,1.7,0.1,4.7c-0.2,3.1-0.5,6.3-0.7,9.2
			c-0.3,2.6-0.8,5.6-1.4,8.9c-1.2,6.2-2.6,9-3.7,10.2c-10.7-0.6-43.6,8.9-53.4,13.2c-10.5,4.6-20.2,5.9-22.7,9.8
			c-5.4,8.7,5,10.6,3.7,13c-2,3.6-0.6,6.3,4.2,8.7c-0.9,5.7,0.6,7.8,5.5,8.9c-2.2,6.5,3.3,6.8,3.5,6.7c0,0.1,0.2,0.7,0.5,1.6
			c3.4,1.1,7.2,0.1,7.2,0.1s-2.6,6.2,2.9,10.7c5.5,4.5,8.6,1.1,8.6,1.1s-1.6,2.3,1.3,9.6c0.5,1.2,1.1,2.1,1.7,2.8
			c0.3-0.1,0.5-0.3,0.8-0.4c0.5,0.8,1.1,1.5,1.7,1.9c3.1,1,6.5-0.6,6.5-0.6v0.7c2.4-1,4.5-2.6,5.2-2.5c-3.4,19.9,9.2,7,10.7,7
			c1.9,5.4,0.6,11.5,4.8,10.8c4.8-0.9,8.3-8.7,10.6-9.8c0,7,2.7,17.9,10.5,8c10.6-13.6,10.3-78.2,10-80.6c-1.2-7.2,0.6-7.4,1.2-8.4
			c1.7-2.9,10.2-17.2,11.9-26.5c0,0,0,0,0-0.1c-0.5-0.6-1-1.3-1.6-1.9c-4-4.1-7.1-9.3-9.8-14.5c-0.9-1.7-1.1-3.9-1.2-6.1
			c0.1,0,0.3,0.1,0.4,0.1c3.4,14.4,14.7,23.7,27.6,30.2c0.9,0.4,1.8,0.7,2.7,1.2c4.7,2.8,8.3,0.9,13.5-1.1
			c10.1-4,16.2-10.3,22.8-14.2c4.8-2.8,6.5,0.1,11.7,0.9c7.1,1,13.1-1.9,18.6-6.3c0.7-0.6,1-1.8,1.4-2.8
			C371.8,271.2,370.9,270.7,370,270.8z"/>
	</g>
</g>
</svg>
