<?xml version="1.0" encoding="utf-8"?>
<!-- Generator: Adobe Illustrator 21.0.0, SVG Export Plug-In . SVG Version: 6.00 Build 0)  -->
<svg version="1.1" id="Layer_1" xmlns="http://www.w3.org/2000/svg" xmlns:xlink="http://www.w3.org/1999/xlink" x="0px" y="0px"
	 viewBox="0 0 1920 1200" style="enable-background:new 0 0 1920 1200;" xml:space="preserve">
<path d="M783.8,577.8h-27.5c-2.1,0-3.8,1.6-3.8,3.6v19.1c0,2,1.7,3.6,3.8,3.6h27.5c2.1,0,3.8-1.6,3.8-3.6v-19.1
	C787.5,579.4,785.8,577.8,783.8,577.8z M783.5,580.4L770,591.8l-13.4-11.4H783.5z M784.9,600.5c0,0.5-0.5,1-1.2,1h-27.5
	c-0.6,0-1.1-0.4-1.1-1v-17.7l13.2,11.2c0.2,0.1,0.4,0.2,0.6,0.2l2.1,0c0.2,0,0.4-0.1,0.6-0.2l13.2-11.2V600.5z"/>
</svg>
