<svg xmlns="http://www.w3.org/2000/svg" width="26.4" height="22" viewBox="0 0 26.4 22"><defs><style>.a{fill:#0077ed;}</style></defs><g transform="translate(0 -42.667)"><g transform="translate(0 42.667)"><g transform="translate(0 0)"><circle class="a" cx="5.5" cy="5.5" r="5.5" transform="translate(7.7 6.6)"/><path class="a" d="M24.2,45.967H20.712a1.641,1.641,0,0,1-1.167-.483l-2.011-2.011a2.733,2.733,0,0,0-1.945-.806H10.811a2.733,2.733,0,0,0-1.945.806L6.856,45.484a1.641,1.641,0,0,1-1.167.483H2.2a2.2,2.2,0,0,0-2.2,2.2v14.3a2.2,2.2,0,0,0,2.2,2.2h22a2.2,2.2,0,0,0,2.2-2.2v-14.3A2.2,2.2,0,0,0,24.2,45.967Zm-11,15.4a6.6,6.6,0,1,1,6.6-6.6A6.607,6.607,0,0,1,13.2,61.367Zm8.8-9.9a1.1,1.1,0,1,1,1.1-1.1A1.1,1.1,0,0,1,22,51.467Z" transform="translate(0 -42.667)"/></g></g></g></svg>