<svg xmlns="http://www.w3.org/2000/svg" width="18.597" height="24.436" viewBox="0 0 18.597 24.436"><defs><style>.a{fill:#0077ed;}</style></defs><g transform="translate(-58.601 0)"><g transform="translate(58.601 0)"><g transform="translate(0 0)"><path class="a" d="M62.46,20.722a2.6,2.6,0,0,1-2.8-2.466V6.218a2.294,2.294,0,0,1,2.275-2.5H70.07L68.322,5.463a.53.53,0,0,0,.739.76l.011-.011,2.657-2.657a.529.529,0,0,0,0-.749L69.071.149a.534.534,0,0,0-.749.011.536.536,0,0,0,0,.739l1.754,1.749H61.944A3.352,3.352,0,0,0,58.6,6.218V18.256a3.667,3.667,0,0,0,3.859,3.529.531.531,0,0,0,0-1.063Z" transform="translate(-58.601 0)"/><path class="a" d="M195.446,53.215a.531.531,0,0,0,0,1.063,2.1,2.1,0,0,1,2.291,2.36V68.612a2.392,2.392,0,0,1-2.307,2.673h-7.042l1.749-1.749a.53.53,0,0,0-.749-.749l-2.657,2.657a.529.529,0,0,0,0,.749l2.657,2.657a.53.53,0,0,0,.749-.749l-1.749-1.754h7.037c1.982,0,3.37-1.536,3.37-3.736V56.638A3.139,3.139,0,0,0,195.446,53.215Z" transform="translate(-180.198 -50.564)"/></g></g></g></svg>