<svg xmlns="http://www.w3.org/2000/svg" width="79.052" height="75.023" viewBox="0 0 79.052 75.023"><g transform="translate(61.771 6.714)"><path d="M401.343,56.527h-.013a1.266,1.266,0,1,0,.013,0Z" transform="translate(-400.078 -56.527)"/></g><g transform="translate(0 4.028)"><path d="M44.916,93.249,32.935,88.257a1.423,1.423,0,0,1-.878-1.317V84.4l2.24-1.244a6.624,6.624,0,0,0,3.383-5.2l0-.054h1.17A3.949,3.949,0,0,0,42.8,73.96V71.536a19.862,19.862,0,0,0,1.343-7.347A19.462,19.462,0,0,0,38.4,50.367a19.8,19.8,0,0,0-4.755-3.52c-.061-4.261-4.326-7.713-9.564-7.713s-9.5,3.452-9.564,7.713a19.788,19.788,0,0,0-4.755,3.52A19.461,19.461,0,0,0,4.028,64.189a19.863,19.863,0,0,0,1.343,7.347V73.96A3.949,3.949,0,0,0,9.315,77.9h1.17l0,.054a6.624,6.624,0,0,0,3.383,5.2l2.24,1.244V86.94a1.423,1.423,0,0,1-.878,1.317L3.254,93.249A5.273,5.273,0,0,0,0,98.129v8.056a3.949,3.949,0,0,0,3.944,3.944H44.225a3.949,3.949,0,0,0,3.944-3.944V98.129A5.273,5.273,0,0,0,44.916,93.249ZM40.281,73.96a1.428,1.428,0,0,1-1.427,1.427h-.941l.5-5.539h.437a1.428,1.428,0,0,1,1.427,1.427Zm-16.2-32.309c3.3,0,6.072,1.707,6.838,4a20.894,20.894,0,0,0-13.677,0C18.013,43.358,20.787,41.652,24.085,41.652ZM9.315,75.387A1.428,1.428,0,0,1,7.888,73.96V71.275a1.428,1.428,0,0,1,1.427-1.427h.437l.5,5.539Zm5.78,5.566A4.109,4.109,0,0,1,13,77.731L12.039,67.19a41.049,41.049,0,0,0,7.91-.85c6.9-1.43,12.538-4.551,16.29-9.025A1.259,1.259,0,0,0,34.309,55.7c-8.189,9.764-23.364,8.964-23.572,8.952h0A1.251,1.251,0,0,0,9.4,66.018l.119,1.313H9.315a3.925,3.925,0,0,0-2.353.781,18.692,18.692,0,0,1-.416-3.923,16.96,16.96,0,0,1,5-12.044,17.548,17.548,0,0,1,12.536-5.122A17.547,17.547,0,0,1,36.62,52.144a16.96,16.96,0,0,1,5,12.044,18.684,18.684,0,0,1-.416,3.923,3.924,3.924,0,0,0-2.353-.781h-.208l.119-1.313a1.258,1.258,0,0,0-.364-1l-2.685-2.685a1.259,1.259,0,0,0-1.78,1.78L36.2,66.377l-.9,9.859c-1.028.909-4.288,3.179-11.224,3.179a1.259,1.259,0,0,0,0,2.518,22.786,22.786,0,0,0,10.256-2.074,4.107,4.107,0,0,1-1.267,1.095l-6.993,3.885a4.088,4.088,0,0,1-3.994,0ZM16.2,90.58A3.934,3.934,0,0,0,18.63,86.94V85.8l2.235,1.242a6.59,6.59,0,0,0,6.439,0L29.539,85.8V86.94a3.933,3.933,0,0,0,2.427,3.641l1.32.55A17.39,17.39,0,0,1,27.1,95.9a9.058,9.058,0,0,1-3.013.8,9.054,9.054,0,0,1-3.013-.8,17.39,17.39,0,0,1-6.189-4.77ZM8.056,107.612H3.944a1.428,1.428,0,0,1-1.427-1.427V98.129a2.773,2.773,0,0,1,.184-.994l4.316,3.453a2.755,2.755,0,0,1,1.039,2.162ZM37.6,102.75v4.861H10.574V102.75A5.261,5.261,0,0,0,8.59,98.622l-4-3.2,7.862-3.276c4.148,5.13,8.341,6.542,10.376,6.929v4.259a1.259,1.259,0,1,0,2.518,0V99.073c2.036-.387,6.228-1.8,10.376-6.929l7.862,3.276-4,3.2A5.262,5.262,0,0,0,37.6,102.75Zm8.056,3.435a1.428,1.428,0,0,1-1.427,1.427H40.113V102.75a2.756,2.756,0,0,1,1.039-2.163l4.316-3.453a2.773,2.773,0,0,1,.184.994v8.056Z" transform="translate(0 -39.134)"/></g><g transform="translate(15.016 33.567)"><path d="M104.774,232.509a4.351,4.351,0,0,0-7.392,0A1.259,1.259,0,1,0,99.65,233.6a1.933,1.933,0,0,1,2.856,0,1.259,1.259,0,1,0,2.268-1.093Z" transform="translate(-97.256 -230.454)"/></g><g transform="translate(25.511 33.567)"><path d="M172.746,232.509a4.351,4.351,0,0,0-7.392,0,1.259,1.259,0,0,0,2.268,1.093,1.933,1.933,0,0,1,2.856,0,1.259,1.259,0,1,0,2.268-1.093Z" transform="translate(-165.229 -230.454)"/></g><g transform="translate(46.995 0)"><path d="M320.4,13.045a16.015,16.015,0,0,0-10.6,28.029,20.759,20.759,0,0,1-3.64,4.5,1.259,1.259,0,0,0,.817,2.216c.033,0,.066,0,.1,0a21.061,21.061,0,0,0,9.127-3.24,16.029,16.029,0,1,0,4.2-31.5Zm0,29.539a13.508,13.508,0,0,1-4.051-.619,1.258,1.258,0,0,0-1.119.184,16.633,16.633,0,0,1-4.712,2.329,24.967,24.967,0,0,0,2.005-3.094,1.259,1.259,0,0,0-.337-1.6,13.492,13.492,0,1,1,8.213,2.8Z" transform="translate(-304.374 -13.045)"/></g><g transform="translate(60.421 12.084)"><path d="M395.281,102.054H395.2V93.83h.084a1.259,1.259,0,1,0,0-2.518H392.6a1.259,1.259,0,1,0,0,2.518h.084v8.224H392.6a1.259,1.259,0,1,0,0,2.518h2.685a1.259,1.259,0,1,0,0-2.518Z" transform="translate(-391.337 -91.312)"/></g></svg>