<svg xmlns="http://www.w3.org/2000/svg" width="28.914" height="35.675" viewBox="0 0 28.914 35.675"><defs><style>.a{fill:none;stroke-miterlimit:10;}.b,.c{stroke:none;}.c{fill:#fff;}</style></defs><g transform="translate(-3.381)"><g class="a"><path class="b" d="M32.295,26.2c-.1.271-.189.562-.3.848a21.982,21.982,0,0,1-3.863,6.481,8.366,8.366,0,0,1-1.061,1.043,4.188,4.188,0,0,1-2.608,1.052,5.229,5.229,0,0,1-2.161-.394c-.5-.2-1-.434-1.5-.619a6.732,6.732,0,0,0-4.92.121c-.586.232-1.164.488-1.761.689a4.209,4.209,0,0,1-2.141.188,4.165,4.165,0,0,1-1.714-.8,9.667,9.667,0,0,1-1.688-1.67,22.81,22.81,0,0,1-4.771-9.906,18.01,18.01,0,0,1-.4-4.812,11.4,11.4,0,0,1,1.607-5.469,8.677,8.677,0,0,1,5.568-4.041,7.086,7.086,0,0,1,4.263.332q1.1.42,2.2.832a2.763,2.763,0,0,0,2.026-.005q1.123-.429,2.251-.85A9.036,9.036,0,0,1,23.7,8.647a8.913,8.913,0,0,1,3.58.449,7.843,7.843,0,0,1,4,2.946c.027.039.057.082.077.113a7.879,7.879,0,0,0-3.794,7.311A7.763,7.763,0,0,0,32.295,26.2ZM17.98,8.253a5.448,5.448,0,0,0,2.174-.4,7.916,7.916,0,0,0,4.791-7.2c0-.207-.018-.414-.027-.654-.327.049-.625.072-.911.144a7.961,7.961,0,0,0-5.281,3.961,6.825,6.825,0,0,0-.952,3.957C17.782,8.213,17.837,8.251,17.98,8.253Z"/><path class="c" d="M 12.73857975006104 31.66255760192871 C 12.76643371582031 31.65588188171387 12.80286884307861 31.6457691192627 12.84848499298096 31.63047218322754 L 12.84848690032959 31.6304759979248 C 13.14154052734375 31.53153419494629 13.47723960876465 31.39389038085938 13.83257102966309 31.24821472167969 C 14.01739883422852 31.17242813110352 14.20852756500244 31.09405708312988 14.41122817993164 31.01381492614746 C 15.77008533477783 30.47695732116699 17.1552848815918 30.20474243164062 18.52835655212402 30.20474243164062 C 19.75754165649414 30.20474243164062 20.98159980773926 30.42294311523438 22.16738510131836 30.85361480712891 C 22.60134124755859 31.01134300231934 22.99914169311523 31.18144226074219 23.35009956359863 31.33151435852051 C 23.51549911499023 31.40224266052246 23.67171287536621 31.46904373168945 23.81368446350098 31.52702903747559 C 23.98415565490723 31.59638595581055 24.13818550109863 31.62870025634766 24.29842758178711 31.62870025634766 C 24.30908012390137 31.62870025634766 24.31977844238281 31.62855911254883 24.33049201965332 31.6282901763916 C 24.33289337158203 31.62816047668457 24.33475685119629 31.62801551818848 24.33612442016602 31.62788772583008 C 24.34784889221191 31.62281799316406 24.39964485168457 31.59797668457031 24.49068450927734 31.52091407775879 L 24.49494171142578 31.51731491088867 L 24.49919891357422 31.51372909545898 C 24.74811363220215 31.30422973632812 24.93559837341309 31.12405776977539 25.05648422241211 30.97824287414551 L 25.06184196472168 30.97177124023438 L 25.06724166870117 30.9653148651123 C 25.99116706848145 29.8602294921875 26.74481773376465 28.76587104797363 27.3428783416748 27.65776634216309 C 25.07094764709473 25.61316299438477 23.78046607971191 22.92512893676758 23.56677055358887 19.73065757751465 C 23.43444442749023 17.73516464233398 23.72322082519531 15.18488025665283 25.29878616333008 12.7028636932373 C 25.00021171569824 12.64620018005371 24.70391273498535 12.61831474304199 24.40460014343262 12.61831474304199 C 24.27694129943848 12.61831474304199 24.14699935913086 12.62358570098877 24.01838493347168 12.63398551940918 L 24.0156135559082 12.63421440124512 L 24.01284217834473 12.63442897796631 C 23.59450531005859 12.66767024993896 23.06789398193359 12.84474086761475 22.70394515991211 12.97708320617676 C 21.95004844665527 13.25685214996338 21.19876289367676 13.5425968170166 20.50119972229004 13.80895709991455 C 19.70518493652344 14.11348628997803 18.8817138671875 14.2678861618042 18.05368423461914 14.2678861618042 C 17.23812866210938 14.2678861618042 16.42571258544922 14.11800003051758 15.64262771606445 13.82374286651611 C 14.83698463439941 13.52190017700195 14.10905647277832 13.24635696411133 13.41721343994141 12.98135757446289 L 13.41375637054443 12.98002910614014 L 13.41028499603271 12.97868633270264 C 12.97087097167969 12.80944347381592 12.56685638427734 12.72717189788818 12.17515659332275 12.72717189788818 C 11.95171356201172 12.72717189788818 11.73138523101807 12.75347137451172 11.49677085876465 12.80870056152344 C 10.15635681152344 13.1225004196167 9.176784515380859 13.84008598327637 8.412413597106934 15.06951427459717 C 7.819742202758789 16.02121543884277 7.489570617675781 17.19565773010254 7.403028011322021 18.65997123718262 L 7.402884960174561 18.66252899169922 L 7.402727603912354 18.66508674621582 C 7.332099437713623 19.83484268188477 7.435985088348389 21.06069946289062 7.720727920532227 22.41447257995605 C 8.361028671264648 25.46564102172852 9.652472496032715 28.14453315734863 11.66869735717773 30.60401153564453 C 12.06234264373779 31.08237838745117 12.36352062225342 31.38871765136719 12.64308452606201 31.5956859588623 C 12.68168258666992 31.62422370910645 12.71336555480957 31.64606285095215 12.73857975006104 31.66255760192871 M 12.67176342010498 35.67529296875 C 12.44240093231201 35.67530059814453 12.21140766143799 35.65487670898438 11.97899913787842 35.61100006103516 C 11.34099960327148 35.49200057983398 10.78299903869629 35.19499969482422 10.26499938964844 34.8120002746582 C 9.62199878692627 34.33599853515625 9.081998825073242 33.75600051879883 8.576999664306641 33.14200210571289 C 6.185999393463135 30.22599983215332 4.580999374389648 26.92900085449219 3.805999279022217 23.23600006103516 C 3.471999168395996 21.64800071716309 3.311999320983887 20.04700088500977 3.409999132156372 18.42399978637695 C 3.524999141693115 16.47800064086914 3.976999282836914 14.625 5.016999244689941 12.95499992370605 C 6.321999073028564 10.85599994659424 8.162999153137207 9.480999946594238 10.58499908447266 8.914000511169434 C 11.1201696395874 8.788013458251953 11.65018844604492 8.727171897888184 12.1751594543457 8.727171897888184 C 13.07942199707031 8.727171897888184 13.96919250488281 8.907510757446289 14.84799957275391 9.246000289916992 C 15.57899951934814 9.526000022888184 16.31199836730957 9.803000450134277 17.04599952697754 10.07800006866455 C 17.38234901428223 10.20438003540039 17.71796607971191 10.26787948608398 18.05369186401367 10.26787948608398 C 18.39271354675293 10.26787948608398 18.73184585571289 10.20313262939453 19.07199859619141 10.07299995422363 C 19.82099914550781 9.78700065612793 20.57099914550781 9.501999855041504 21.32299995422363 9.223000526428223 C 22.0939998626709 8.942000389099121 22.87799835205078 8.711999893188477 23.69599914550781 8.647000312805176 C 23.93326950073242 8.627809524536133 24.16960334777832 8.618308067321777 24.40460395812988 8.618308067321777 C 25.38189697265625 8.618308067321777 26.3392505645752 8.782406806945801 27.27599906921387 9.096000671386719 C 28.92299842834473 9.647000312805176 30.26299858093262 10.6220006942749 31.27499961853027 12.04199981689453 C 31.30200004577637 12.08100032806396 31.33199882507324 12.12400054931641 31.35199928283691 12.15500068664551 C 28.79999923706055 13.93400001525879 27.34700012207031 16.28400039672852 27.55799865722656 19.46599960327148 C 27.77099990844727 22.64999961853027 29.48499870300293 24.80400085449219 32.29499816894531 26.20199966430664 C 32.19899749755859 26.47299957275391 32.10599899291992 26.76399993896484 31.99899864196777 27.05000114440918 C 31.11299896240234 29.44899940490723 29.76799964904785 31.57900047302246 28.13599967956543 33.53100204467773 C 27.82099914550781 33.9109992980957 27.45399856567383 34.25500106811523 27.07499885559082 34.57400131225586 C 26.32599830627441 35.20800018310547 25.46399879455566 35.59099960327148 24.46699905395508 35.62599945068359 C 24.41067886352539 35.62780380249023 24.35441017150879 35.62870788574219 24.29842567443848 35.62870788574219 C 23.60989761352539 35.62870788574219 22.9468879699707 35.49279403686523 22.30599975585938 35.23199844360352 C 21.80399894714355 35.02700042724609 21.30999946594238 34.79800033569336 20.80099868774414 34.61299896240234 C 20.04134559631348 34.33709716796875 19.2833309173584 34.20473861694336 18.52835845947266 34.20473861694336 C 17.64151000976562 34.20473861694336 16.75876045227051 34.3872184753418 15.88099956512451 34.73400115966797 C 15.29499912261963 34.96599960327148 14.71699905395508 35.22200012207031 14.11999893188477 35.42300033569336 C 13.64800834655762 35.58124160766602 13.16382026672363 35.6752815246582 12.67176342010498 35.67529296875 Z M 18.1174259185791 8.254825592041016 C 18.07172775268555 8.254825592041016 18.02591323852539 8.254220008850098 17.97999954223633 8.253000259399414 C 17.83699989318848 8.25100040435791 17.7819995880127 8.213000297546387 17.77400016784668 8.062000274658203 C 17.6569995880127 6.63700008392334 18.03899955749512 5.333000183105469 18.72599983215332 4.105000495910645 C 19.89999961853027 2.008000373840332 21.68599891662598 0.7130002975463867 24.00699996948242 0.1440002769231796 C 24.29299926757812 0.07200027257204056 24.59099960327148 0.04900027438998222 24.91799926757812 2.746581913015689e-07 C 24.92700004577637 0.2400002777576447 24.94099998474121 0.44700026512146 24.94499969482422 0.6540002822875977 C 24.99499893188477 3.226000308990479 23.33299827575684 6.589000225067139 20.15399932861328 7.851000308990479 C 19.49949836730957 8.111110687255859 18.82119750976562 8.254826545715332 18.1174259185791 8.254825592041016 Z"/></g></g></svg>