<svg xmlns="http://www.w3.org/2000/svg" width="48.047" height="30.393" viewBox="0 0 48.047 30.393"><defs><style>.a{fill:#0077ed;}</style></defs><g transform="translate(0 -94.062)"><g transform="translate(0 94.062)"><g transform="translate(0 0)"><path class="a" d="M44.683,106.947l-1.244-4.977a.752.752,0,0,0,.6-.736v-.8a3.163,3.163,0,0,0-3.16-3.16H35.208V95.617a1.556,1.556,0,0,0-1.555-1.555H4.765A1.556,1.556,0,0,0,3.21,95.617v13.642a.752.752,0,0,0,1.5,0V95.617a.05.05,0,0,1,.05-.05H33.653a.05.05,0,0,1,.05.05v13.642a.752.752,0,0,0,1.5,0v-.853h8.879a2.462,2.462,0,0,1,2.338,1.705H44.085a.752.752,0,0,0-.752.752v1.6a2.36,2.36,0,0,0,2.357,2.357h.853v3.31H44.575a4.763,4.763,0,0,0-9.005,0h-.362v-5.667a.752.752,0,1,0-1.5,0v5.667H18.094a4.763,4.763,0,0,0-9.005,0H4.765a.05.05,0,0,1-.05-.05V116.43h3.26a.752.752,0,1,0,0-1.5H.752a.752.752,0,1,0,0,1.5H3.21v1.655a1.556,1.556,0,0,0,1.555,1.555H8.828c0,.017,0,.033,0,.05a4.765,4.765,0,0,0,9.529,0c0-.017,0-.033,0-.05H35.309c0,.017,0,.033,0,.05a4.765,4.765,0,0,0,9.529,0c0-.017,0-.033,0-.05h2.459a.752.752,0,0,0,.752-.752v-8.024A3.968,3.968,0,0,0,44.683,106.947Zm-9.476-8.17h5.667a1.657,1.657,0,0,1,1.655,1.655v.05H35.208Zm0,8.125v-4.915h6.685l1.229,4.915ZM13.592,122.95a3.26,3.26,0,1,1,3.26-3.26A3.264,3.264,0,0,1,13.592,122.95Zm26.481,0a3.26,3.26,0,1,1,3.26-3.26A3.264,3.264,0,0,1,40.073,122.95Zm6.47-9.629H45.69a.854.854,0,0,1-.853-.853v-.853h1.705v1.705Z" transform="translate(0 -94.062)"/></g></g><g transform="translate(12.037 118.136)"><path class="a" d="M129.822,350.6a1.555,1.555,0,1,0,1.555,1.555A1.557,1.557,0,0,0,129.822,350.6Z" transform="translate(-128.267 -350.597)"/></g><g transform="translate(38.518 118.136)"><path class="a" d="M412.01,350.6a1.555,1.555,0,1,0,1.555,1.555A1.556,1.556,0,0,0,412.01,350.6Z" transform="translate(-410.455 -350.597)"/></g><g transform="translate(19.259 114.926)"><path class="a" d="M217.214,316.393H205.979a.752.752,0,0,0,0,1.5h11.234a.752.752,0,0,0,0-1.5Z" transform="translate(-205.227 -316.393)"/></g><g transform="translate(1.605 111.716)"><g transform="translate(0 0)"><path class="a" d="M27.484,282.188H17.854a.752.752,0,1,0,0,1.5h9.629a.752.752,0,1,0,0-1.5Z" transform="translate(-17.102 -282.188)"/></g></g><g transform="translate(13.642 101.284)"><g transform="translate(0 0)"><path class="a" d="M157.888,171.243a.752.752,0,0,0-1.064,0l-6.69,6.69-3.48-3.48a.752.752,0,0,0-1.064,1.064l4.012,4.012a.752.752,0,0,0,1.064,0l7.222-7.222A.752.752,0,0,0,157.888,171.243Z" transform="translate(-145.37 -171.023)"/></g></g></g></svg>